<?xml version="1.0" encoding="UTF-8" standalone="no"?>
<!-- Created with Inkscape (http://www.inkscape.org/) -->

<svg
   xmlns:dc="http://purl.org/dc/elements/1.1/"
   xmlns:cc="http://creativecommons.org/ns#"
   xmlns:rdf="http://www.w3.org/1999/02/22-rdf-syntax-ns#"
   xmlns:svg="http://www.w3.org/2000/svg"
   xmlns="http://www.w3.org/2000/svg"
   xmlns:sodipodi="http://sodipodi.sourceforge.net/DTD/sodipodi-0.dtd"
   xmlns:inkscape="http://www.inkscape.org/namespaces/inkscape"
   width="420"
   height="420"
   id="svg4504"
   version="1.1"
   inkscape:version="0.48.5 r10040"
   sodipodi:docname="New document 5">
  <defs
     id="defs4506">
    <filter
       inkscape:collect="always"
       id="filter6246"
       color-interpolation-filters="sRGB">
      <feGaussianBlur
         inkscape:collect="always"
         stdDeviation="4.7147274"
         id="feGaussianBlur6248" />
    </filter>
    <filter
       inkscape:collect="always"
       id="filter6260"
       color-interpolation-filters="sRGB">
      <feGaussianBlur
         inkscape:collect="always"
         stdDeviation="7.8753325"
         id="feGaussianBlur6262" />
    </filter>
    <filter
       inkscape:collect="always"
       id="filter6646"
       color-interpolation-filters="sRGB">
      <feGaussianBlur
         inkscape:collect="always"
         stdDeviation="3.0944565"
         id="feGaussianBlur6648" />
    </filter>
    <filter
       inkscape:collect="always"
       id="filter6654"
       color-interpolation-filters="sRGB">
      <feGaussianBlur
         inkscape:collect="always"
         stdDeviation="2.970932"
         id="feGaussianBlur6656" />
    </filter>
    <filter
       inkscape:collect="always"
       id="filter6662"
       color-interpolation-filters="sRGB">
      <feGaussianBlur
         inkscape:collect="always"
         stdDeviation="2.970932"
         id="feGaussianBlur6664" />
    </filter>
    <filter
       inkscape:collect="always"
       id="filter6670"
       color-interpolation-filters="sRGB">
      <feGaussianBlur
         inkscape:collect="always"
         stdDeviation="1.2377826"
         id="feGaussianBlur6672" />
    </filter>
    <filter
       inkscape:collect="always"
       id="filter6682"
       color-interpolation-filters="sRGB">
      <feGaussianBlur
         inkscape:collect="always"
         stdDeviation="1.1883728"
         id="feGaussianBlur6684" />
    </filter>
    <filter
       inkscape:collect="always"
       id="filter6738"
       color-interpolation-filters="sRGB">
      <feGaussianBlur
         inkscape:collect="always"
         stdDeviation="1.1883728"
         id="feGaussianBlur6740" />
    </filter>
    <filter
       inkscape:collect="always"
       id="filter6915"
       color-interpolation-filters="sRGB">
      <feGaussianBlur
         inkscape:collect="always"
         stdDeviation="5.1541171"
         id="feGaussianBlur6917" />
    </filter>
  </defs>
  <sodipodi:namedview
     id="base"
     pagecolor="#ffffff"
     bordercolor="#666666"
     borderopacity="1.0"
     inkscape:pageopacity="0.0"
     inkscape:pageshadow="2"
     inkscape:zoom="0.49497475"
     inkscape:cx="237.00933"
     inkscape:cy="255.0196"
     inkscape:document-units="px"
     inkscape:current-layer="layer1"
     showgrid="false"
     fit-margin-top="10"
     fit-margin-left="10"
     fit-margin-right="10"
     fit-margin-bottom="10"
     inkscape:window-width="1312"
     inkscape:window-height="878"
     inkscape:window-x="287"
     inkscape:window-y="49"
     inkscape:window-maximized="0" />
  <metadata
     id="metadata4509">
    <rdf:RDF>
      <cc:Work
         rdf:about="">
        <dc:format>image/svg+xml</dc:format>
        <dc:type
           rdf:resource="http://purl.org/dc/dcmitype/StillImage" />
        <dc:title></dc:title>
      </cc:Work>
    </rdf:RDF>
  </metadata>
  <g
     inkscape:label="Layer 1"
     inkscape:groupmode="layer"
     id="layer1"
     transform="translate(-114.30602,-244.2702)">
    <rect
       style="fill:#000000;fill-opacity:1;stroke:none"
       id="rect4512"
       width="400"
       height="400"
       x="124.30602"
       y="254.2702"
       ry="40.406101" />
    <path
       id="path5306"
       style="font-size:medium;font-style:normal;font-variant:normal;font-weight:normal;font-stretch:normal;text-indent:0;text-align:start;text-decoration:none;line-height:normal;letter-spacing:normal;word-spacing:normal;text-transform:none;direction:ltr;block-progression:tb;writing-mode:lr-tb;text-anchor:start;baseline-shift:baseline;opacity:0.72916667;color:#000000;fill:#ff5757;fill-opacity:1;stroke:none;stroke-width:30;marker:none;visibility:visible;display:inline;overflow:visible;filter:url(#filter6915);enable-background:accumulate;font-family:Sans;-inkscape-font-specification:Sans"
       d="m 448.75,365.9375 c -18.19394,-0.94815 -35.45383,4.00745 -49.46875,13.8125 -22.42387,15.68807 -36.3249,43.06468 -36.21875,74.75 0.11353,33.88987 14.27313,61.82878 37.0625,77.21875 22.78937,15.38997 53.31154,17.54146 82.3125,4.78125 a 15.00659,15.00659 0 1 0 -12.09375,-27.46875 c -21.08186,9.27586 -39.627,7.13892 -53.4375,-2.1875 -13.8105,-9.32642 -23.7571,-26.57298 -23.84375,-52.4375 -0.0771,-23.01742 9.57408,-40.41656 23.40625,-50.09375 13.83217,-9.67719 31.99261,-12.37602 53.09375,-2.78125 A 15.005533,15.005533 0 1 0 482,374.21875 c -11.06505,-5.03132 -22.33363,-7.71236 -33.25,-8.28125 z M 325.21875,364.625 a 15.0015,15.0015 0 0 0 -13.90625,10.5625 l -45.375,146.875 a 15.0015,15.0015 0 1 0 28.65625,8.875 l 31.0625,-100.5 31.0625,100.5 a 15.0015,15.0015 0 1 0 28.65625,-8.875 L 340,375.1875 A 15.0015,15.0015 0 0 0 325.21875,364.625 z m -109,0 a 15.0015,15.0015 0 0 0 -13.90625,10.5625 l -45.375,146.875 a 15.0015,15.0015 0 1 0 28.65625,8.875 l 31.0625,-100.53125 31.0625,100.53125 a 15.0015,15.0015 0 1 0 28.65625,-8.875 l -45.40625,-146.875 a 15.0015,15.0015 0 0 0 -14.75,-10.5625 z M 311.5,451.46875 a 15.0015,15.0015 0 1 0 0,30 l 29.125,0 a 15.0015,15.0015 0 1 0 0,-30 l -29.125,0 z m -109,0 a 15.0015,15.0015 0 1 0 0,30 l 29.125,0 a 15.0015,15.0015 0 1 0 0,-30 l -29.125,0 z"
       inkscape:connector-curvature="0" />
    <path
       id="path6354"
       style="font-size:medium;font-style:normal;font-variant:normal;font-weight:normal;font-stretch:normal;text-indent:0;text-align:start;text-decoration:none;line-height:normal;letter-spacing:normal;word-spacing:normal;text-transform:none;direction:ltr;block-progression:tb;writing-mode:lr-tb;text-anchor:start;baseline-shift:baseline;color:#000000;fill:#ac0000;fill-opacity:1;stroke:none;stroke-width:25;marker:none;visibility:visible;display:inline;overflow:visible;enable-background:accumulate;font-family:Sans;-inkscape-font-specification:Sans"
       d="m 448.625,368.40625 c -17.65195,-0.92758 -34.37007,3.88302 -47.9375,13.375 -21.70789,15.18717 -35.22873,41.75575 -35.125,72.71875 0.11129,33.22109 13.92762,60.24033 35.96875,75.125 22.04113,14.88467 51.56522,17.03235 79.90625,4.5625 a 12.50125,12.50125 0 1 0 -10.0625,-22.875 c -21.74179,9.56622 -41.31626,7.45671 -55.875,-2.375 -14.55874,-9.83171 -24.84861,-27.99795 -24.9375,-54.53125 -0.0795,-23.73974 9.92061,-41.9469 24.46875,-52.125 14.54814,-10.1781 33.76089,-12.91327 55.5625,-3 A 12.509781,12.509781 0 1 0 480.9375,376.5 c -10.80238,-4.91188 -21.72133,-7.5372 -32.3125,-8.09375 z M 311.5,453.96875 a 12.50125,12.50125 0 1 0 0,25 l 29.125,0 a 12.50125,12.50125 0 1 0 0,-25 l -29.125,0 z m 13.78125,-86.875 a 12.50125,12.50125 0 0 0 -11.5625,8.8125 l -45.375,146.90625 a 12.50125,12.50125 0 1 0 23.875,7.375 l 33.4375,-108.25 33.4375,108.25 A 12.508991,12.508991 0 1 0 383,522.8125 L 337.59375,375.90625 a 12.50125,12.50125 0 0 0 -12.3125,-8.8125 z M 202.5,453.96875 a 12.50125,12.50125 0 1 0 0,25 l 29.125,0 a 12.50125,12.50125 0 1 0 0,-25 l -29.125,0 z m 13.78125,-86.875 a 12.50125,12.50125 0 0 0 -11.5625,8.8125 L 159.3125,522.8125 a 12.508991,12.508991 0 1 0 23.90625,7.375 l 33.4375,-108.25 33.4375,108.25 a 12.50125,12.50125 0 1 0 23.875,-7.375 l -45.375,-146.90625 a 12.50125,12.50125 0 0 0 -12.3125,-8.8125 z"
       inkscape:connector-curvature="0" />
    <path
       style="font-size:medium;font-style:normal;font-variant:normal;font-weight:normal;font-stretch:normal;text-indent:0;text-align:start;text-decoration:none;line-height:normal;letter-spacing:normal;word-spacing:normal;text-transform:none;direction:ltr;block-progression:tb;writing-mode:lr-tb;text-anchor:start;baseline-shift:baseline;color:#000000;fill:#99d7ff;fill-opacity:1;stroke:none;stroke-width:20;marker:none;visibility:visible;display:inline;overflow:visible;filter:url(#filter6246);enable-background:accumulate;font-family:Sans;-inkscape-font-specification:Sans"
       d="m 462.8125,323.1875 c -2.86344,0.0543 -4.65625,0.1875 -4.65625,0.1875 l -43.03125,0 -86.84375,0 c -2.64156,-0.0374 -5.07121,2.35817 -5.07121,5 0,2.64183 2.42965,9.03736 5.07121,9 l 86.84375,0 43.4375,0 c 0.13577,-0.005 0.27133,-0.0153 0.40625,-0.0312 0,0 6.42851,-0.52179 14.03125,0.15625 7.60274,0.67804 16.04456,2.98206 19.46875,6.40625 2.2022,2.2022 3.67452,6.70375 4.21875,10.78125 C 497.23173,358.765 497,362 497,362 c -0.005,0.12494 -0.005,0.25006 0,0.375 l 0,30 0,60 0,60 0,30 c -0.004,0.11454 -0.004,0.22921 0,0.34375 0,0 0.23173,3.26625 -0.3125,7.34375 -0.54423,4.0775 -2.01655,8.5478 -4.21875,10.75 -3.4809,3.4809 -12.05391,5.80597 -19.78125,6.46875 -7.72734,0.66278 -14.25,0.0937 -14.25,0.0937 -0.14574,-0.006 -0.29176,-0.006 -0.4375,0 l -44,0 -88,0 -88,0 -44,0 c -0.14574,-0.006 -0.29176,-0.006 -0.4375,0 0,0 -6.52266,0.56903 -14.25,-0.0937 -7.72734,-0.66278 -16.30035,-2.98785 -19.78125,-6.46875 -2.2022,-2.2022 -3.67452,-6.6725 -4.21875,-10.75 C 154.76827,545.985 155,542.71875 155,542.71875 c 0.004,-0.11454 0.004,-0.22921 0,-0.34375 l 0,-30 0,-60 0,-60 0,-30 c 1.8e-4,-0.18789 -0.0102,-0.37578 -0.0312,-0.5625 0,0 -0.31205,-2.92045 0.125,-6.6875 0.43705,-3.76705 1.74725,-7.93475 4,-10.1875 3.27454,-3.27454 11.45206,-5.77036 18.78125,-6.75 7.32919,-0.97964 13.53125,-0.8125 13.53125,-0.8125 0.0417,5.2e-4 0.0833,5.2e-4 0.125,0 l 41.5625,0 83.0625,0 c 2.64156,0.0374 5.07121,-6.35817 5.07121,-9 0,-2.64183 -2.42965,-5.03736 -5.07121,-5 l -83.0625,0 -41.40625,0 -0.15625,0 c -0.23406,-0.006 -6.89652,-0.20395 -14.96875,0.875 -8.21484,1.09801 -20.01487,5.10862 -26.53125,11.625 -4.81832,4.81832 -8.30189,13.15395 -8.875,18.09375 -0.51512,4.43996 -0.22341,7.70649 -0.15625,8.40625 l 0,30 0,60 0,60 0,29.625 0,0.375 c -0.0335,0.52091 -0.23487,4.19655 0.40625,9 0.68801,5.15473 4.19363,13.66238 9.0625,18.53125 6.89,6.89 19.32006,10.56801 28,11.3125 8.27974,0.71016 14.90233,0.2079 15.53125,0.15625 l 44,0 88,0 88,0 44,0 c 0.62892,0.0516 7.25151,0.55391 15.53125,-0.15625 8.67994,-0.74449 21.11,-4.4225 28,-11.3125 4.86887,-4.86887 8.37449,-13.37652 9.0625,-18.53125 0.64112,-4.80345 0.43979,-8.47909 0.40625,-9 l 0,-0.375 0,-29.625 0,-60 0,-60 0,-29.65625 0,-0.34375 c 0.0314,-0.4815 0.23878,-4.19852 -0.40625,-9.03125 -0.68801,-5.15473 -4.19363,-13.66238 -9.0625,-18.53125 -6.8124,-6.8124 -19.10304,-10.51844 -27.65625,-11.28125 -4.27661,-0.3814 -8.19906,-0.39805 -11.0625,-0.34375 z"
       id="path4514"
       inkscape:connector-curvature="0"
       sodipodi:nodetypes="ccccsccccssscccccccssscccccccssscccccccsssccccsccccsssccccccssscccccssscccccccssscc" />
    <path
       sodipodi:nodetypes="ccccsccccssscccccccssscccccccssscccccccsssccccsccccsssccccccssscccccssscccccccssscc"
       inkscape:connector-curvature="0"
       id="path6250"
       d="m 462.8125,323.1875 c -2.86344,0.0543 -4.65625,0.1875 -4.65625,0.1875 l -43.03125,0 -86.84375,0 c -2.64156,-0.0374 -5.07121,2.35817 -5.07121,5 0,2.64183 2.42965,9.03736 5.07121,9 l 86.84375,0 43.4375,0 c 0.13577,-0.005 0.27133,-0.0153 0.40625,-0.0312 0,0 6.42851,-0.52179 14.03125,0.15625 7.60274,0.67804 16.04456,2.98206 19.46875,6.40625 2.2022,2.2022 3.67452,6.70375 4.21875,10.78125 C 497.23173,358.765 497,362 497,362 c -0.005,0.12494 -0.005,0.25006 0,0.375 l 0,30 0,60 0,60 0,30 c -0.004,0.11454 -0.004,0.22921 0,0.34375 0,0 0.23173,3.26625 -0.3125,7.34375 -0.54423,4.0775 -2.01655,8.5478 -4.21875,10.75 -3.4809,3.4809 -12.05391,5.80597 -19.78125,6.46875 -7.72734,0.66278 -14.25,0.0937 -14.25,0.0937 -0.14574,-0.006 -0.29176,-0.006 -0.4375,0 l -44,0 -88,0 -88,0 -44,0 c -0.14574,-0.006 -0.29176,-0.006 -0.4375,0 0,0 -6.52266,0.56903 -14.25,-0.0937 -7.72734,-0.66278 -16.30035,-2.98785 -19.78125,-6.46875 -2.2022,-2.2022 -3.67452,-6.6725 -4.21875,-10.75 C 154.76827,545.985 155,542.71875 155,542.71875 c 0.004,-0.11454 0.004,-0.22921 0,-0.34375 l 0,-30 0,-60 0,-60 0,-30 c 1.8e-4,-0.18789 -0.0102,-0.37578 -0.0312,-0.5625 0,0 -0.31205,-2.92045 0.125,-6.6875 0.43705,-3.76705 1.74725,-7.93475 4,-10.1875 3.27454,-3.27454 11.45206,-5.77036 18.78125,-6.75 7.32919,-0.97964 13.53125,-0.8125 13.53125,-0.8125 0.0417,5.2e-4 0.0833,5.2e-4 0.125,0 l 41.5625,0 83.0625,0 c 2.64156,0.0374 5.07121,-6.35817 5.07121,-9 0,-2.64183 -2.42965,-5.03736 -5.07121,-5 l -83.0625,0 -41.40625,0 -0.15625,0 c -0.23406,-0.006 -6.89652,-0.20395 -14.96875,0.875 -8.21484,1.09801 -20.01487,5.10862 -26.53125,11.625 -4.81832,4.81832 -8.30189,13.15395 -8.875,18.09375 -0.51512,4.43996 -0.22341,7.70649 -0.15625,8.40625 l 0,30 0,60 0,60 0,29.625 0,0.375 c -0.0335,0.52091 -0.23487,4.19655 0.40625,9 0.68801,5.15473 4.19363,13.66238 9.0625,18.53125 6.89,6.89 19.32006,10.56801 28,11.3125 8.27974,0.71016 14.90233,0.2079 15.53125,0.15625 l 44,0 88,0 88,0 44,0 c 0.62892,0.0516 7.25151,0.55391 15.53125,-0.15625 8.67994,-0.74449 21.11,-4.4225 28,-11.3125 4.86887,-4.86887 8.37449,-13.37652 9.0625,-18.53125 0.64112,-4.80345 0.43979,-8.47909 0.40625,-9 l 0,-0.375 0,-29.625 0,-60 0,-60 0,-29.65625 0,-0.34375 c 0.0314,-0.4815 0.23878,-4.19852 -0.40625,-9.03125 -0.68801,-5.15473 -4.19363,-13.66238 -9.0625,-18.53125 -6.8124,-6.8124 -19.10304,-10.51844 -27.65625,-11.28125 -4.27661,-0.3814 -8.19906,-0.39805 -11.0625,-0.34375 z"
       style="font-size:medium;font-style:normal;font-variant:normal;font-weight:normal;font-stretch:normal;text-indent:0;text-align:start;text-decoration:none;line-height:normal;letter-spacing:normal;word-spacing:normal;text-transform:none;direction:ltr;block-progression:tb;writing-mode:lr-tb;text-anchor:start;baseline-shift:baseline;color:#000000;fill:#99d7ff;fill-opacity:1;stroke:none;stroke-width:20;marker:none;visibility:visible;display:inline;overflow:visible;filter:url(#filter6260);enable-background:accumulate;font-family:Sans;-inkscape-font-specification:Sans"
       transform="matrix(0.96319844,0,0,0.91402404,11.995722,39.303846)" />
    <path
       sodipodi:nodetypes="ccccscccccccccccccccccccccccccccccccccsccccsssccccccssscccccssscccccccssscc"
       inkscape:connector-curvature="0"
       id="path6264"
       d="m 462.8125,323.1875 c -2.86344,0.0543 -4.65625,0.1875 -4.65625,0.1875 l -43.03125,0 -86.84375,0 c -2.64156,-0.0374 -5.07121,2.35817 -5.07121,5 0,2.64183 2.42965,9.03736 5.07121,9 l 86.84375,0 43.4375,0 c 0.13577,-0.005 0.27133,-0.0153 0.40625,-0.0312 9.63603,-0.0183 24.08591,1.61578 31.5,8.5625 3.96285,5.48437 6.81983,9.49246 6.53125,16.0937 -0.005,0.12494 -0.005,0.25006 0,0.375 l 0,30 0,60 0,60 0,30 c -0.004,0.11454 -0.004,0.22921 0,0.34375 -0.1799,5.8581 -2.18218,11.52205 -6.53125,16.09375 -10.45353,6.77405 -19.86376,9.4482 -32.03125,8.56245 -0.14574,-0.006 -0.29176,-0.006 -0.4375,0 l -44,0 -88,0 -88,0 -44,0 c -0.14574,-0.006 -0.29176,-0.006 -0.4375,0 -9.78092,0.0759 -24.50108,-1.5077 -32.03125,-8.56245 -3.97579,-5.4862 -6.8178,-9.48423 -6.53125,-16.09375 0.004,-0.11454 0.004,-0.22921 0,-0.34375 l 0,-30 0,-60 0,-60 0,-30 c 1.8e-4,-0.18789 -0.0102,-0.37578 -0.0312,-0.5625 -0.0576,-5.49847 2.11016,-10.66814 6.125,-14.875 9.93278,-6.5846 18.62457,-9.63587 30.3125,-9.5625 0.0417,5.2e-4 0.0833,5.2e-4 0.125,0 l 41.5625,0 83.0625,0 c 2.64156,0.0374 5.07121,-6.35817 5.07121,-9 0,-2.64183 -2.42965,-5.03736 -5.07121,-5 l -83.0625,0 -41.40625,0 -0.15625,0 c -0.23406,-0.006 -6.89652,-0.20395 -14.96875,0.875 -8.21484,1.09801 -20.01487,5.10862 -26.53125,11.625 -4.81832,4.81832 -8.30189,13.15395 -8.875,18.09375 -0.51512,4.43996 -0.22341,7.70649 -0.15625,8.40625 l 0,30 0,60 0,60 0,29.625 0,0.375 c -0.0335,0.52091 -0.23487,4.19655 0.40625,9 0.68801,5.15473 4.19363,13.66238 9.0625,18.53125 6.89,6.89 19.32006,10.56801 28,11.3125 8.27974,0.71016 14.90233,0.2079 15.53125,0.15625 l 44,0 88,0 88,0 44,0 c 0.62892,0.0516 7.25151,0.55391 15.53125,-0.15625 8.67994,-0.74449 21.11,-4.4225 28,-11.3125 4.86887,-4.86887 8.37449,-13.37652 9.0625,-18.53125 0.64112,-4.80345 0.43979,-8.47909 0.40625,-9 l 0,-0.375 0,-29.625 0,-60 0,-60 0,-29.65625 0,-0.34375 c 0.0314,-0.4815 0.23878,-4.19852 -0.40625,-9.03125 -0.68801,-5.15473 -4.19363,-13.66238 -9.0625,-18.53125 -6.8124,-6.8124 -19.10304,-10.51844 -27.65625,-11.28125 -4.27661,-0.3814 -8.19906,-0.39805 -11.0625,-0.34375 z"
       style="font-size:medium;font-style:normal;font-variant:normal;font-weight:normal;font-stretch:normal;text-indent:0;text-align:start;text-decoration:none;line-height:normal;letter-spacing:normal;word-spacing:normal;text-transform:none;direction:ltr;block-progression:tb;writing-mode:lr-tb;text-anchor:start;baseline-shift:baseline;color:#000000;fill:#47aeff;fill-opacity:1;stroke:none;stroke-width:20;marker:none;visibility:visible;display:inline;overflow:visible;enable-background:accumulate;font-family:Sans;-inkscape-font-specification:Sans" />
    <path
       style="font-size:medium;font-style:normal;font-variant:normal;font-weight:normal;font-stretch:normal;text-indent:0;text-align:start;text-decoration:none;line-height:normal;letter-spacing:normal;word-spacing:normal;text-transform:none;direction:ltr;block-progression:tb;writing-mode:lr-tb;text-anchor:start;baseline-shift:baseline;color:#000000;fill:#6cbeff;fill-opacity:1;stroke:none;stroke-width:20;marker:none;visibility:visible;display:inline;overflow:visible;enable-background:accumulate;font-family:Sans;-inkscape-font-specification:Sans"
       d="m 462.8125,325.1875 c -2.86344,0.0543 -4.65625,0.1875 -4.65625,0.1875 l -43.03125,0 -84.84375,0 c -2.64156,-0.0374 -5.07121,0.35817 -5.07121,3 0,2.64183 2.42965,7.03736 5.07121,7 l 84.84375,0 43.4375,0 c 0.13577,-0.005 0.27133,-0.0153 0.40625,-0.0312 9.63603,-0.0183 26.08591,1.61578 33.5,8.5625 3.96285,5.48437 6.81983,11.49246 6.53125,18.0937 -0.005,0.12494 -0.005,0.25006 0,0.375 l 0,30 0,60 0,60 0,30 c -0.004,0.11454 -0.004,0.22921 0,0.34375 -0.1799,5.8581 -2.18218,13.52205 -6.53125,18.09375 -10.45353,6.77405 -21.86376,9.4482 -34.03125,8.56245 -0.14574,-0.006 -0.29176,-0.006 -0.4375,0 l -44,0 -88,0 -88,0 -44,0 c -0.14574,-0.006 -0.29176,-0.006 -0.4375,0 -9.78092,0.0759 -26.50108,-1.5077 -34.03125,-8.56245 -3.97579,-5.4862 -6.8178,-11.48423 -6.53125,-18.09375 0.004,-0.11454 0.004,-0.22921 0,-0.34375 l 0,-30 0,-60 0,-60 0,-30 c 1.8e-4,-0.18789 -0.0102,-0.37578 -0.0312,-0.5625 -0.0576,-5.49847 2.11016,-12.66814 6.125,-16.875 9.93278,-6.5846 20.62457,-9.63587 32.3125,-9.5625 0.0417,5.2e-4 0.0833,5.2e-4 0.125,0 l 41.5625,0 81.0625,0 c 2.64156,0.0374 5.07121,-4.35817 5.07121,-7 0,-2.64183 -2.42965,-3.03736 -5.07121,-3 l -81.0625,0 -41.40625,0 -0.15625,0 c -0.23406,-0.006 -6.89652,-0.20395 -14.96875,0.875 -8.21484,1.09801 -18.01487,5.10862 -24.53125,11.625 -4.81832,4.81832 -8.30189,11.15395 -8.875,16.09375 -0.51512,4.43996 -0.22341,7.70649 -0.15625,8.40625 l 0,30 0,60 0,60 0,29.625 0,0.375 c -0.0335,0.52091 -0.23487,4.19655 0.40625,9 0.68801,5.15473 4.19363,11.66238 9.0625,16.53125 6.89,6.89 17.32006,10.56801 26,11.3125 8.27974,0.71016 14.90233,0.2079 15.53125,0.15625 l 44,0 88,0 88,0 44,0 c 0.62892,0.0516 7.25151,0.55391 15.53125,-0.15625 8.67994,-0.74449 19.11,-4.4225 26,-11.3125 4.86887,-4.86887 8.37449,-11.37652 9.0625,-16.53125 0.64112,-4.80345 0.43979,-8.47909 0.40625,-9 l 0,-0.375 0,-29.625 0,-60 0,-60 0,-29.65625 0,-0.34375 c 0.0314,-0.4815 0.23878,-4.19852 -0.40625,-9.03125 -0.68801,-5.15473 -4.19363,-11.66238 -9.0625,-16.53125 -6.8124,-6.8124 -17.10304,-10.51844 -25.65625,-11.28125 -4.27661,-0.3814 -8.19906,-0.39805 -11.0625,-0.34375 z"
       id="path6266"
       inkscape:connector-curvature="0"
       sodipodi:nodetypes="ccccscccccccccccccccccccccccccccccccccsccccsssccccccssscccccssscccccccssscc" />
    <path
       sodipodi:nodetypes="ccccscccccccccccccccccccccccccccccccccsccccsssccccccssscccccssscccccccssscc"
       inkscape:connector-curvature="0"
       id="path6268"
       d="m 462.8125,327.1875 c -2.86344,0.0543 -4.65625,0.1875 -4.65625,0.1875 l -43.03125,0 -82.84375,0 c -2.64156,-0.0374 -5.07121,0.35817 -5.07121,3 0,2.64183 2.42965,3.03736 5.07121,3 l 82.84375,0 43.4375,0 c 0.13577,-0.005 0.27133,-0.0153 0.40625,-0.0312 9.63603,-0.0183 27.90734,2.50864 35.32143,9.45536 3.96285,5.48437 6.9984,12.5996 6.70982,19.20084 -0.005,0.12494 -0.005,0.25006 0,0.375 l 0,30 0,60 0,60 0,30 c -0.004,0.11454 -0.004,0.22921 0,0.34375 -0.1799,5.8581 -2.36075,14.80776 -6.70982,19.37946 -10.45353,6.77405 -23.68519,10.16249 -35.85268,9.27674 -0.14574,-0.006 -0.29176,-0.006 -0.4375,0 l -44,0 -88,0 -88,0 -44,0 c -0.14574,-0.006 -0.29176,-0.006 -0.4375,0 -9.78092,0.0759 -27.42965,-1.68627 -34.95982,-8.74102 -3.97579,-5.4862 -7.88923,-13.30566 -7.60268,-19.91518 0.004,-0.11454 0.004,-0.22921 0,-0.34375 l 0,-30 0,-60 0,-60 0,-30 c 1.8e-4,-0.18789 -0.0102,-0.37578 -0.0312,-0.5625 -0.0576,-5.49847 2.4673,-13.59671 6.48214,-17.80357 9.93278,-6.5846 22.26743,-10.7073 33.95536,-10.63393 0.0417,5.2e-4 0.0833,5.2e-4 0.125,0 l 41.5625,0 79.0625,0 c 2.64156,0.0374 5.07121,-0.35817 5.07121,-3 0,-2.64183 -2.42965,-3.03736 -5.07121,-3 l -79.0625,0 -41.40625,0 -0.15625,0 c -0.23406,-0.006 -6.89652,-0.20395 -14.96875,0.875 -8.21484,1.09801 -16.90773,4.39433 -23.42411,10.91071 -4.81832,4.81832 -7.40903,9.86824 -7.98214,14.80804 -0.51512,4.43996 -0.22341,7.70649 -0.15625,8.40625 l 0,30 0,60 0,60 0,29.625 0,0.375 c -0.0335,0.52091 -0.23487,4.19655 0.40625,9 0.68801,5.15473 3.65792,10.01952 8.52679,14.88839 6.89,6.89 15.85577,10.21087 24.53571,10.95536 8.27974,0.71016 14.90233,0.2079 15.53125,0.15625 l 44,0 88,0 88,0 44,0 c 0.62892,0.0516 7.25151,0.55391 15.53125,-0.15625 8.67994,-0.74449 17.82429,-4.06536 24.71429,-10.95536 4.86887,-4.86887 7.6602,-9.73366 8.34821,-14.88839 0.64112,-4.80345 0.43979,-8.47909 0.40625,-9 l 0,-0.375 0,-29.625 0,-60 0,-60 0,-29.65625 0,-0.34375 c 0.0314,-0.4815 0.23878,-4.19852 -0.40625,-9.03125 -0.68801,-5.15473 -2.94363,-10.01952 -7.8125,-14.88839 -6.8124,-6.8124 -16.35304,-10.1613 -24.90625,-10.92411 -4.27661,-0.3814 -8.19906,-0.39805 -11.0625,-0.34375 z"
       style="font-size:medium;font-style:normal;font-variant:normal;font-weight:normal;font-stretch:normal;text-indent:0;text-align:start;text-decoration:none;line-height:normal;letter-spacing:normal;word-spacing:normal;text-transform:none;direction:ltr;block-progression:tb;writing-mode:lr-tb;text-anchor:start;baseline-shift:baseline;color:#000000;fill:#a2d6ff;fill-opacity:1;stroke:none;stroke-width:20;marker:none;visibility:visible;display:inline;overflow:visible;enable-background:accumulate;font-family:Sans;-inkscape-font-specification:Sans" />
    <path
       style="font-size:medium;font-style:normal;font-variant:normal;font-weight:normal;font-stretch:normal;text-indent:0;text-align:start;text-decoration:none;line-height:normal;letter-spacing:normal;word-spacing:normal;text-transform:none;direction:ltr;block-progression:tb;writing-mode:lr-tb;text-anchor:start;baseline-shift:baseline;color:#000000;fill:#d8eeff;fill-opacity:1;stroke:none;stroke-width:20;marker:none;visibility:visible;display:inline;overflow:visible;enable-background:accumulate;font-family:Sans;-inkscape-font-specification:Sans"
       d="m 462.8125,329.1875 c -2.86344,0.0543 -4.65625,0.1875 -4.65625,0.1875 l -43.03125,0 -78.84375,0 c -2.64156,-0.0374 -5.07121,-1.64183 -5.07121,1 0,2.64183 2.42965,1.03736 5.07121,1 l 78.84375,0 43.4375,0 c 0.13577,-0.005 0.27133,-0.0153 0.40625,-0.0312 9.63603,-0.0183 29.42257,2.99341 36.83666,9.94013 3.96285,5.48437 7.48317,14.11483 7.19459,20.71607 -0.005,0.12494 -0.005,0.25006 0,0.375 l 0,30 0,60 0,60 0,30 c -0.004,0.11454 -0.004,0.22921 0,0.34375 -0.1799,5.8581 -4.10821,16.82807 -8.45728,21.39977 -10.45353,6.77405 -23.93773,10.14218 -36.10522,9.25643 -0.14574,-0.006 -0.29176,-0.006 -0.4375,0 l -44,0 -88,0 -88,0 -44,0 c -0.14574,-0.006 -0.29176,-0.006 -0.4375,0 -9.78092,0.0759 -29.19742,-2.67612 -36.72759,-9.73087 -3.97579,-5.4862 -8.12146,-14.31581 -7.83491,-20.92533 0.004,-0.11454 0.004,-0.22921 0,-0.34375 l 0,-30 0,-60 0,-60 0,-30 c 1.8e-4,-0.18789 -0.0102,-0.37578 -0.0312,-0.5625 -0.0576,-5.49847 2.69953,-16.37463 6.71437,-20.58149 9.93278,-6.5846 24.0352,-9.92938 35.72313,-9.85601 0.0417,5.2e-4 0.0833,5.2e-4 0.125,0 l 41.5625,0 75.0625,0 c 2.64156,0.0374 5.07121,1.64183 5.07121,-1 0,-2.64183 -2.42965,-1.03736 -5.07121,-1 l -75.0625,0 -41.40625,0 -0.15625,0 c -0.23406,-0.006 -6.89652,-0.20395 -14.96875,0.875 -8.21484,1.09801 -15.3925,3.40448 -21.90888,9.92086 -4.81832,4.81832 -6.92426,8.85809 -7.49737,13.79789 -0.51512,4.43996 -0.22341,7.70649 -0.15625,8.40625 l 0,30 0,60 0,60 0,29.625 0,0.375 c -0.0335,0.52091 -0.23487,4.19655 0.40625,9 0.68801,5.15473 3.42569,8.75683 8.29456,13.6257 6.89,6.89 14.088,9.47356 22.76794,10.21805 8.27974,0.71016 14.90233,0.2079 15.53125,0.15625 l 44,0 88,0 88,0 44,0 c 0.62892,0.0516 7.25151,0.55391 15.53125,-0.15625 8.67994,-0.74449 16.05652,-4.3382 22.94652,-11.2282 4.86887,-4.86887 7.42797,-7.46082 8.11598,-12.61555 0.64112,-4.80345 0.43979,-8.47909 0.40625,-9 l 0,-0.375 0,-29.625 0,-60 0,-60 0,-29.65625 0,-0.34375 c 0.0314,-0.4815 0.23878,-4.19852 -0.40625,-9.03125 -0.68801,-5.15473 -2.20632,-9.26191 -7.07519,-14.13078 -6.8124,-6.8124 -15.09035,-8.91891 -23.64356,-9.68172 -4.27661,-0.3814 -8.19906,-0.39805 -11.0625,-0.34375 z"
       id="path6270"
       inkscape:connector-curvature="0"
       sodipodi:nodetypes="ccccscccccccccccccccccccccccccccccccccsccccsssccccccssscccccssscccccccssscc" />
    <path
       style="fill:none;stroke:#ff3131;stroke-width:17;stroke-linecap:round;stroke-linejoin:round;stroke-miterlimit:4;stroke-opacity:1;stroke-dasharray:none"
       d="m 171.26445,526.50432 45.38541,-146.90373 45.38542,146.90373"
       id="path6202"
       inkscape:connector-curvature="0"
       sodipodi:nodetypes="ccc" />
    <path
       style="fill:none;stroke:#ff3131;stroke-width:17;stroke-linecap:round;stroke-linejoin:miter;stroke-miterlimit:4;stroke-opacity:1;stroke-dasharray:none"
       d="m 202.48616,466.47371 29.13143,0"
       id="path6204"
       inkscape:connector-curvature="0" />
    <path
       sodipodi:nodetypes="ccc"
       inkscape:connector-curvature="0"
       id="path6210"
       d="m 171.26445,526.50432 45.38541,-146.90373 45.38542,146.90373"
       style="fill:none;stroke:#ff7272;stroke-width:10;stroke-linecap:round;stroke-linejoin:round;stroke-miterlimit:4;stroke-opacity:1;stroke-dasharray:none" />
    <path
       inkscape:connector-curvature="0"
       id="path6212"
       d="m 202.48616,466.47371 29.13143,0"
       style="fill:none;stroke:#ff7272;stroke-width:10;stroke-linecap:round;stroke-linejoin:miter;stroke-miterlimit:4;stroke-opacity:1;stroke-dasharray:none" />
    <path
       style="fill:none;stroke:#ffbdbd;stroke-width:3.88953352;stroke-linecap:round;stroke-linejoin:round;stroke-miterlimit:4;stroke-opacity:1;stroke-dasharray:none"
       d="m 171.26445,526.50432 45.38541,-146.90373 45.38542,146.90373"
       id="path6272"
       inkscape:connector-curvature="0"
       sodipodi:nodetypes="ccc" />
    <path
       style="fill:none;stroke:#ffbdbd;stroke-width:3.88953352;stroke-linecap:round;stroke-linejoin:miter;stroke-miterlimit:4;stroke-opacity:1;stroke-dasharray:none"
       d="m 202.48616,466.47371 29.13143,0"
       id="path6274"
       inkscape:connector-curvature="0" />
    <path
       sodipodi:nodetypes="ccc"
       inkscape:connector-curvature="0"
       id="path6370"
       d="m 280.27283,526.50432 45.38541,-146.90373 45.38542,146.90373"
       style="fill:none;stroke:#ff3131;stroke-width:17;stroke-linecap:round;stroke-linejoin:round;stroke-miterlimit:4;stroke-opacity:1;stroke-dasharray:none" />
    <path
       inkscape:connector-curvature="0"
       id="path6372"
       d="m 311.49454,466.47371 29.13144,0"
       style="fill:none;stroke:#ff3131;stroke-width:17;stroke-linecap:round;stroke-linejoin:miter;stroke-miterlimit:4;stroke-opacity:1;stroke-dasharray:none" />
    <path
       style="fill:none;stroke:#ff7272;stroke-width:10;stroke-linecap:round;stroke-linejoin:round;stroke-miterlimit:4;stroke-opacity:1;stroke-dasharray:none"
       d="m 280.27283,526.50432 45.38541,-146.90373 45.38542,146.90373"
       id="path6374"
       inkscape:connector-curvature="0"
       sodipodi:nodetypes="ccc" />
    <path
       style="fill:none;stroke:#ff7272;stroke-width:10;stroke-linecap:round;stroke-linejoin:miter;stroke-miterlimit:4;stroke-opacity:1;stroke-dasharray:none"
       d="m 311.49454,466.47371 29.13144,0"
       id="path6376"
       inkscape:connector-curvature="0" />
    <path
       sodipodi:nodetypes="ccc"
       inkscape:connector-curvature="0"
       id="path6378"
       d="m 280.27283,526.50432 45.38541,-146.90373 45.38542,146.90373"
       style="fill:none;stroke:#ffbdbd;stroke-width:3.88953352;stroke-linecap:round;stroke-linejoin:round;stroke-miterlimit:4;stroke-opacity:1;stroke-dasharray:none" />
    <path
       inkscape:connector-curvature="0"
       id="path6380"
       d="m 311.49454,466.47371 29.13144,0"
       style="fill:none;stroke:#ffbdbd;stroke-width:3.88953352;stroke-linecap:round;stroke-linejoin:miter;stroke-miterlimit:4;stroke-opacity:1;stroke-dasharray:none" />
    <path
       style="fill:none;stroke:#ff3131;stroke-width:17;stroke-linecap:round;stroke-linejoin:miter;stroke-miterlimit:4;stroke-opacity:1;stroke-dasharray:none"
       d="m 475.77715,387.88756 c -50.60795,-23.01162 -97.90767,11.87335 -97.72441,66.57609 0.20018,59.75439 48.25843,90.328 98.34125,68.29193"
       id="path6356"
       inkscape:connector-curvature="0"
       sodipodi:nodetypes="csc" />
    <path
       sodipodi:nodetypes="csc"
       inkscape:connector-curvature="0"
       id="path6358"
       d="m 475.77715,387.88756 c -50.60795,-23.01162 -97.90767,11.87335 -97.72441,66.57609 0.20018,59.75439 48.25843,90.328 98.34125,68.29193"
       style="fill:none;stroke:#ff7272;stroke-width:10;stroke-linecap:round;stroke-linejoin:miter;stroke-miterlimit:4;stroke-opacity:1;stroke-dasharray:none" />
    <path
       style="fill:none;stroke:#ffbdbd;stroke-width:4.42047358;stroke-linecap:round;stroke-linejoin:miter;stroke-miterlimit:4;stroke-opacity:1;stroke-dasharray:none"
       d="m 475.77715,387.88756 c -50.60795,-23.01162 -97.90767,11.87335 -97.72441,66.57609 0.20018,59.75439 48.25843,90.328 98.34125,68.29193"
       id="path6360"
       inkscape:connector-curvature="0"
       sodipodi:nodetypes="csc" />
  </g>
</svg>
