<?xml version="1.0" encoding="UTF-8" standalone="no"?>
<!-- Created with Inkscape (http://www.inkscape.org/) -->

<svg
   width="107.664mm"
   height="139.422mm"
   viewBox="0 0 107.664 139.42199"
   version="1.1"
   id="svg1"
   inkscape:version="1.3.2 (091e20e, 2023-11-25)"
   sodipodi:docname="knaac-awards-mini.svg"
   inkscape:export-filename="knaac-mini.png"
   inkscape:export-xdpi="36.439999"
   inkscape:export-ydpi="36.439999"
   xmlns:inkscape="http://www.inkscape.org/namespaces/inkscape"
   xmlns:sodipodi="http://sodipodi.sourceforge.net/DTD/sodipodi-0.dtd"
   xmlns:xlink="http://www.w3.org/1999/xlink"
   xmlns="http://www.w3.org/2000/svg"
   xmlns:svg="http://www.w3.org/2000/svg">
  <sodipodi:namedview
     id="namedview1"
     pagecolor="#ffffff"
     bordercolor="#666666"
     borderopacity="1.0"
     inkscape:showpageshadow="2"
     inkscape:pageopacity="0.0"
     inkscape:pagecheckerboard="0"
     inkscape:deskcolor="#d1d1d1"
     inkscape:document-units="mm"
     inkscape:zoom="0.42776299"
     inkscape:cx="106.36731"
     inkscape:cy="91.171983"
     inkscape:window-width="1600"
     inkscape:window-height="869"
     inkscape:window-x="62"
     inkscape:window-y="25"
     inkscape:window-maximized="0"
     inkscape:current-layer="layer1" />
  <defs
     id="defs1">
    <linearGradient
       id="linearGradient17"
       inkscape:collect="always">
      <stop
         style="stop-color:#1fadff;stop-opacity:1;"
         offset="0"
         id="stop17" />
      <stop
         style="stop-color:#00a0ff;stop-opacity:1;"
         offset="1"
         id="stop18" />
    </linearGradient>
    <linearGradient
       id="linearGradient11"
       inkscape:collect="always">
      <stop
         style="stop-color:#d90000;stop-opacity:1;"
         offset="0"
         id="stop11" />
      <stop
         style="stop-color:#f90000;stop-opacity:1;"
         offset="0.51812154"
         id="stop13" />
      <stop
         style="stop-color:#cf0000;stop-opacity:1;"
         offset="1"
         id="stop12" />
    </linearGradient>
    <linearGradient
       id="linearGradient9"
       inkscape:collect="always">
      <stop
         style="stop-color:#00539e;stop-opacity:1;"
         offset="0"
         id="stop9" />
      <stop
         style="stop-color:#00247b;stop-opacity:0.97647059;"
         offset="1"
         id="stop10" />
    </linearGradient>
    <rect
       x="219.63741"
       y="608.36078"
       width="422.53482"
       height="65.423164"
       id="rect9" />
    <rect
       x="230.09633"
       y="491.56943"
       width="362.57605"
       height="85.414551"
       id="rect8" />
    <rect
       x="252.75734"
       y="425.32959"
       width="332.94241"
       height="130.73656"
       id="rect7" />
    <rect
       x="268.44571"
       y="421.84329"
       width="285.87726"
       height="111.56186"
       id="rect6" />
    <rect
       x="256.24365"
       y="261.47311"
       width="205.69217"
       height="55.78093"
       id="rect4" />
    <rect
       x="256.24365"
       y="261.47311"
       width="205.69217"
       height="55.78093"
       id="rect5" />
    <linearGradient
       inkscape:collect="always"
       xlink:href="#linearGradient9"
       id="linearGradient10"
       x1="65.544113"
       y1="92.464302"
       x2="151.3577"
       y2="148.39464"
       gradientUnits="userSpaceOnUse"
       gradientTransform="matrix(1.0218594,0,0,1,0.24130393,2.6458334)" />
    <linearGradient
       inkscape:collect="always"
       xlink:href="#linearGradient11"
       id="linearGradient12"
       x1="76.585777"
       y1="171.43063"
       x2="104.68034"
       y2="178.60538"
       gradientUnits="userSpaceOnUse"
       gradientTransform="matrix(1.1708726,0,0,0.9956402,-10.013894,3.3911034)" />
    <linearGradient
       inkscape:collect="always"
       xlink:href="#linearGradient11"
       id="linearGradient15"
       x1="121.56799"
       y1="176.14786"
       x2="145.51582"
       y2="168.97313"
       gradientUnits="userSpaceOnUse"
       gradientTransform="matrix(1.1372343,0,0,0.99656212,-18.181814,3.2295452)" />
    <linearGradient
       inkscape:collect="always"
       xlink:href="#linearGradient17"
       id="linearGradient18"
       x1="98.591805"
       y1="77.519516"
       x2="123.07871"
       y2="168.54028"
       gradientUnits="userSpaceOnUse" />
  </defs>
  <g
     inkscape:label="Layer 1"
     inkscape:groupmode="layer"
     id="layer1"
     transform="translate(-58.842643,-61.597504)">
    <path
       id="path3"
       style="fill:url(#linearGradient15);stroke:#880000;stroke-width:2.81669;stroke-linejoin:round;stroke-dasharray:none;stroke-opacity:1"
       d="m 111.62849,155.05547 27.15353,-7.38381 c 2.7115,14.94852 7.9172,28.90353 14.92298,42.14155 l -18.17406,-6.95091 -8.97947,14.33472 c -7.28229,-13.12788 -11.93245,-27.30418 -14.92298,-42.14155 z"
       sodipodi:nodetypes="cccccc" />
    <path
       id="rect3"
       style="opacity:1;fill:url(#linearGradient12);stroke:#880000;stroke-width:2.85673;stroke-linejoin:round;stroke-dasharray:none;stroke-opacity:1"
       d="m 87.785818,149.50843 28.685202,4.95824 c -6.30115,12.29298 -10.05498,26.46325 -10.32678,43.19962 l -10.900389,-13.85245 -17.78481,8.89421 c -0.08653,-14.87366 2.78094,-29.35071 10.326777,-43.19962 z"
       sodipodi:nodetypes="cccccc" />
    <ellipse
       style="fill:url(#linearGradient10);fill-opacity:1;stroke-width:1.40268;stroke-linejoin:round;stroke-dasharray:none"
       id="path1"
       ry="55"
       rx="51.092968"
       cy="119.24335"
       cx="112.64582" />
    <path
       id="ellipse9"
       style="fill:#18aaff;fill-opacity:1;stroke-width:1.97352;stroke-linejoin:round;stroke-dasharray:none"
       d="M 68.179864,92.419452 C 72.990805,82.293184 80.6706,75.472798 86.817486,71.921184 c -2.916938,4.994601 2.748303,9.845782 7.036069,6.724431 -0.639258,8.415312 -15.938615,16.689627 -18.686337,20.603923 2.19255,-5.254742 -3.77659,-10.586047 -6.987354,-6.830086 z"
       sodipodi:nodetypes="ccccc" />
    <ellipse
       style="fill:url(#linearGradient18);fill-opacity:1;stroke-width:1.27618;stroke-linejoin:round;stroke-dasharray:none"
       id="ellipse1"
       cx="112.64582"
       cy="119.06119"
       rx="41.719761"
       ry="46.443417" />
    <path
       id="path2"
       style="opacity:1;fill:#ffdd1d;stroke:#000000;stroke-width:10;stroke-linecap:round;stroke-linejoin:round"
       inkscape:transform-center-x="0.37257525"
       inkscape:transform-center-y="-2.8267467"
       transform="matrix(0.26458333,0,0,0.26458333,83.335097,91.775707)"
       d="M 186.79285,198.36409 C 161.50732,186.65653 138.85851,185.71399 116.33779,167.09441 92.802118,184.93796 72.959794,191.88092 47.872539,200.41497 49.73185,171.18308 42.979681,146.37731 54.891317,125.7617 29.876518,111.38373 18.418452,92.540722 1.1721421,70.394267 28.607502,62.773148 47.777691,54.544637 75.213051,54.55012 82.791194,28.561383 91.201349,9.3036407 109.50246,-15.153244 c 19.02316,23.7193483 31.59439,41.748265 39.71659,67.024893 26.55856,-2.825009 49.39357,6.313378 77.39074,10.681412 -17.52145,23.639624 -28.45632,47.228119 -51.97425,58.874779 11.09664,27.29845 10.36115,49.6378 12.15731,76.93625 z"
       sodipodi:nodetypes="ccccccccccc" />
  </g>
  <g
     inkscape:groupmode="layer"
     id="layer3"
     inkscape:label="Text Paths"
     style="display:none">
    <path
       style="fill:none;stroke:#000000;stroke-width:0.264583px;stroke-linecap:butt;stroke-linejoin:miter;stroke-opacity:1"
       d="m 65.283019,144.21499 c 29.320964,-2.01035 61.855831,-2.24555 94.802341,0.25759"
       id="path16"
       sodipodi:nodetypes="cc"
       transform="translate(-58.842643,-61.597503)" />
    <path
       style="fill:none;stroke:#000000;stroke-width:0.264583px;stroke-linecap:butt;stroke-linejoin:miter;stroke-opacity:1"
       d="m 63.737329,152.28135 c 29.320964,-2.01035 65.333631,-1.85913 98.280141,0.64401"
       id="path15"
       sodipodi:nodetypes="cc"
       transform="translate(-58.842643,-61.597503)" />
    <path
       style="fill:none;stroke:#000000;stroke-width:0.264583px;stroke-linecap:butt;stroke-linejoin:miter;stroke-opacity:1"
       d="m 90.142872,161.29453 c 10.942378,3.79004 30.737618,4.37759 44.696208,-0.25757"
       id="path17"
       sodipodi:nodetypes="cc"
       transform="translate(-58.842643,-61.597503)" />
  </g>
</svg>
