<svg version="1.1" id="Layer_1" xmlns="http://www.w3.org/2000/svg" x="0" y="0" viewBox="0 0 550 169.1" xml:space="preserve"><style>.st0{fill:#00a7e1}.st1{fill:#0071ce}.st2{fill:#7a2986}</style><path class="st0" d="M0 90h4.3v64.8H0V90zM17.7 141.6v-.2c0-9.4 8.1-14.7 19.8-14.7 6.3 0 10.6.8 15 2v-2c0-9.1-5.6-13.8-14.9-13.8-5.5 0-10 1.5-14.2 3.6l-1.6-3.8c5-2.3 9.8-3.9 16.1-3.9 6.1 0 11 1.7 14.3 5 3 3 4.6 7.2 4.6 12.8v28.2h-4.3v-7.5c-3.1 4.3-8.7 8.6-17.3 8.6-8.4-.1-17.5-4.9-17.5-14.3zm34.9-3.8v-5.1c-3.8-1-8.9-2-15.3-2-9.6 0-14.9 4.3-14.9 10.6v.2c0 6.6 6.2 10.4 13.1 10.4 9.2-.2 17.1-5.9 17.1-14.1zM72.4 109.5h4.3v8.4c3-5.3 8.1-9.5 16.3-9.5 11.4 0 18.1 7.8 18.1 18.6v27.7h-4.3v-26.9c0-9.3-5.2-15.4-14.4-15.4-8.9 0-15.7 6.7-15.7 16.1v26.2h-4.3v-45.2zM125.9 162.2l2.6-3.5c5.4 4.2 11.6 6.4 18.3 6.4 10.4 0 17.7-5.9 17.7-17.6v-6.6c-3.9 5.6-9.9 10.5-18.9 10.5-10.9 0-21.7-8.3-21.7-21.3v-.2c0-13 10.8-21.5 21.7-21.5 9 0 15.2 4.8 18.9 10.1v-9h4.3v38.2c0 6.6-2.1 11.7-5.8 15.3-3.9 3.9-9.8 6-16.4 6-7.5.1-14.5-2.2-20.7-6.8zm38.8-32.2v-.2c0-10.5-9.3-17.2-18.7-17.2-9.5 0-17.5 6.6-17.5 17.1v.2c0 10.2 8.2 17.3 17.5 17.3 9.4 0 18.7-6.9 18.7-17.2zM184.4 137.2v-27.7h4.3v26.9c0 9.3 5.2 15.4 14.4 15.4 8.9 0 15.7-6.7 15.7-16.1v-26.2h4.3v45.2h-4.3v-8.4c-3 5.3-8.1 9.5-16.3 9.5-11.4 0-18.1-7.8-18.1-18.6zM236 141.6v-.2c0-9.4 8.1-14.7 19.8-14.7 6.3 0 10.6.8 15 2v-2c0-9.1-5.6-13.8-14.9-13.8-5.5 0-10 1.5-14.2 3.6l-1.6-3.8c5-2.3 9.8-3.9 16.1-3.9 6.1 0 11 1.7 14.3 5 3 3 4.6 7.2 4.6 12.8v28.2h-4.3v-7.5c-3.1 4.3-8.7 8.6-17.3 8.6-8.5-.1-17.5-4.9-17.5-14.3zm34.8-3.8v-5.1c-3.8-1-8.9-2-15.3-2-9.6 0-14.9 4.3-14.9 10.6v.2c0 6.6 6.2 10.4 13.1 10.4 9.2-.2 17.1-5.9 17.1-14.1zM289.7 162.2l2.6-3.5c5.4 4.2 11.6 6.4 18.3 6.4 10.4 0 17.7-5.9 17.7-17.6v-6.6c-3.9 5.6-9.9 10.5-18.9 10.5-10.9 0-21.7-8.3-21.7-21.3v-.2c0-13 10.8-21.5 21.7-21.5 9 0 15.2 4.8 18.9 10.1v-9h4.3v38.2c0 6.6-2.1 11.7-5.8 15.3-3.9 3.9-9.8 6-16.4 6-7.5.1-14.5-2.2-20.7-6.8zm38.9-32.2v-.2c0-10.5-9.3-17.2-18.7-17.2-9.5 0-17.5 6.6-17.5 17.1v.2c0 10.2 8.2 17.3 17.5 17.3 9.4 0 18.7-6.9 18.7-17.2zM346.1 132.2v-.2c0-13.1 9.2-23.6 21.5-23.6 12.7 0 20.8 10.3 20.8 23.7 0 .8 0 1.1-.1 1.8h-37.5c.8 11.3 8.9 17.8 17.7 17.8 7 0 11.8-3.1 15.5-7.1l3 2.7c-4.6 5-10 8.5-18.7 8.5-11.9 0-22.2-9.5-22.2-23.6zm37.5-2.2c-.6-9.1-5.9-17.6-16.2-17.6-9 0-15.9 7.5-16.7 17.6h32.9z"/><path class="st1" d="M405.6 90.9h13.5v64.8h-13.5V90.9zM428.9 142v-.2c0-10.4 7.9-15.2 19.2-15.2 4.8 0 8.2.8 11.6 2v-.8c0-5.6-3.5-8.7-10.2-8.7-5.1 0-8.8 1-13.1 2.6l-3.4-10.3c5.2-2.3 10.4-3.8 18.5-3.8 7.4 0 12.7 2 16.1 5.3 3.5 3.5 5.1 8.8 5.1 15.2v27.6h-13v-5.1c-3.3 3.6-7.8 6-14.4 6-9 0-16.4-5.2-16.4-14.6zm31-3.1v-2.4c-2.3-1.1-5.3-1.8-8.6-1.8-5.8 0-9.3 2.3-9.3 6.6v.2c0 3.6 3 5.8 7.4 5.8 6.2 0 10.5-3.5 10.5-8.4zM497.7 149.5v6.2h-13.5V90.9h13.5v24c3.3-4.4 7.8-7.7 14.8-7.7 11.1 0 21.6 8.7 21.6 24.6v.2c0 15.9-10.4 24.6-21.6 24.6-7.1 0-11.6-3.3-14.8-7.1zm23-17.5v-.2c0-7.9-5.3-13.1-11.6-13.1s-11.5 5.2-11.5 13.1v.2c0 7.9 5.2 13.1 11.5 13.1s11.6-5.1 11.6-13.1z"/><path class="st2" d="M453.4 98.1c-12.6 0-22.8-10.2-22.8-22.8s10.2-22.8 22.8-22.8c12.6 0 22.8 10.2 22.8 22.8S466 98.1 453.4 98.1zm0-35.6c-7 0-12.8 5.7-12.8 12.8 0 7 5.7 12.8 12.8 12.8 7 0 12.8-5.7 12.8-12.8 0-7.1-5.8-12.8-12.8-12.8zM437.8 42.3c-6.6 0-11.9-5.4-11.9-11.9s5.4-11.9 11.9-11.9c6.6 0 11.9 5.4 11.9 11.9s-5.3 11.9-11.9 11.9zm0-18.2c-3.4 0-6.2 2.8-6.2 6.2s2.8 6.2 6.2 6.2c3.4 0 6.2-2.8 6.2-6.2s-2.7-6.2-6.2-6.2z"/><circle class="st1" cx="460.2" cy="17.2" r="8.6"/><circle class="st0" cx="440.4" cy="5.5" r="5.5"/><path class="st0" d="M469.3 29.2c-9.5 0-17.3 7.8-17.3 17.3 0 2.1.4 4.2 1.1 6.1h.2c8.2 0 15.4 4.4 19.4 10.9 7.9-1.6 13.8-8.6 13.8-16.9.1-9.7-7.6-17.4-17.2-17.4zm0 24.5c-4 0-7.3-3.3-7.3-7.3s3.3-7.3 7.3-7.3 7.3 3.3 7.3 7.3-3.2 7.3-7.3 7.3z"/><g><path class="st1" d="M547.7 106.4c-1.5 1.5-3.4 2.3-5.6 2.3s-4-.8-5.6-2.3c-1.5-1.5-2.3-3.4-2.3-5.6 0-2.2.8-4 2.3-5.6 1.5-1.5 3.4-2.3 5.6-2.3 2.2 0 4 .8 5.6 2.3 1.5 1.5 2.3 3.4 2.3 5.6 0 2.2-.8 4-2.3 5.6zM537.3 96c-1.3 1.3-2 2.9-2 4.8s.7 3.5 2 4.8c1.3 1.3 2.9 2 4.8 2s3.5-.7 4.8-2 2-2.9 2-4.8-.7-3.5-2-4.8c-1.3-1.3-2.9-2-4.8-2s-3.5.7-4.8 2zm4.6.4c1.1 0 1.9.1 2.4.3.9.4 1.3 1.1 1.3 2.2 0 .8-.3 1.3-.8 1.7-.3.2-.7.3-1.3.4.7.1 1.2.4 1.5.8.3.5.5.9.5 1.3v1.2c0 .2 0 .4.1.5l.1.1h-1.4v-.1-1.1c0-1-.3-1.7-.8-2-.3-.2-.9-.3-1.7-.3h-1.2v3.4h-1.5v-8.7h2.8zm1.7 1.4c-.4-.2-1-.3-1.8-.3h-1.3v3.1h1.4c.6 0 1.1-.1 1.5-.2.6-.2.9-.7.9-1.4-.2-.6-.4-1-.7-1.2z"/></g><g><path class="st1" d="M35.1 55.2h7.6l16 37h-8.6L46.7 84H30.8l-3.4 8.2H19l16.1-37zm8.6 21.7l-5-11.9-5 11.9h10zM76.2 55.2h7.6l16 37h-8.6L87.8 84H72l-3.4 8.2h-8.4l16-37zm8.7 21.7l-5-11.9-5 11.9h10zM101.6 74v-.1c0-10.5 8-19 19.5-19 7.1 0 11.3 2.3 14.8 5.7l-5.2 5.9c-2.9-2.6-5.8-4.2-9.6-4.2-6.3 0-10.9 5.1-10.9 11.5v.1c0 6.3 4.4 11.6 10.9 11.6 4.3 0 6.9-1.7 9.8-4.3l5.2 5.2c-3.8 4-8.1 6.6-15.3 6.6-11-.1-19.2-8.4-19.2-19z"/></g></svg>