<?xml version="1.0" encoding="UTF-8" standalone="no"?>
<!-- Created with Inkscape (http://www.inkscape.org/) -->

<svg
   width="107.664mm"
   height="139.422mm"
   viewBox="0 0 107.664 139.42199"
   version="1.1"
   id="svg1"
   inkscape:version="1.3.2 (091e20e, 2023-11-25)"
   sodipodi:docname="knaac-awards.svg"
   inkscape:export-filename="knaac-awards.png"
   inkscape:export-xdpi="171.044"
   inkscape:export-ydpi="171.044"
   xmlns:inkscape="http://www.inkscape.org/namespaces/inkscape"
   xmlns:sodipodi="http://sodipodi.sourceforge.net/DTD/sodipodi-0.dtd"
   xmlns:xlink="http://www.w3.org/1999/xlink"
   xmlns="http://www.w3.org/2000/svg"
   xmlns:svg="http://www.w3.org/2000/svg">
  <sodipodi:namedview
     id="namedview1"
     pagecolor="#ffffff"
     bordercolor="#666666"
     borderopacity="1.0"
     inkscape:showpageshadow="2"
     inkscape:pageopacity="0.0"
     inkscape:pagecheckerboard="0"
     inkscape:deskcolor="#d1d1d1"
     inkscape:document-units="mm"
     inkscape:zoom="0.84859633"
     inkscape:cx="73.651037"
     inkscape:cy="185.01141"
     inkscape:window-width="1600"
     inkscape:window-height="869"
     inkscape:window-x="62"
     inkscape:window-y="46"
     inkscape:window-maximized="0"
     inkscape:current-layer="layer1" />
  <defs
     id="defs1">
    <linearGradient
       id="linearGradient17"
       inkscape:collect="always">
      <stop
         style="stop-color:#1fadff;stop-opacity:1;"
         offset="0"
         id="stop17" />
      <stop
         style="stop-color:#00a0ff;stop-opacity:1;"
         offset="1"
         id="stop18" />
    </linearGradient>
    <linearGradient
       id="linearGradient11"
       inkscape:collect="always">
      <stop
         style="stop-color:#d90000;stop-opacity:1;"
         offset="0"
         id="stop11" />
      <stop
         style="stop-color:#f90000;stop-opacity:1;"
         offset="0.51812154"
         id="stop13" />
      <stop
         style="stop-color:#cf0000;stop-opacity:1;"
         offset="1"
         id="stop12" />
    </linearGradient>
    <linearGradient
       id="linearGradient9"
       inkscape:collect="always">
      <stop
         style="stop-color:#00539e;stop-opacity:1;"
         offset="0"
         id="stop9" />
      <stop
         style="stop-color:#00247b;stop-opacity:0.97647059;"
         offset="1"
         id="stop10" />
    </linearGradient>
    <rect
       x="219.63741"
       y="608.36078"
       width="422.53482"
       height="65.423164"
       id="rect9" />
    <rect
       x="230.09633"
       y="491.56943"
       width="362.57605"
       height="85.414551"
       id="rect8" />
    <rect
       x="252.75734"
       y="425.32959"
       width="332.94241"
       height="130.73656"
       id="rect7" />
    <rect
       x="268.44571"
       y="421.84329"
       width="285.87726"
       height="111.56186"
       id="rect6" />
    <rect
       x="256.24365"
       y="261.47311"
       width="205.69217"
       height="55.78093"
       id="rect4" />
    <rect
       x="256.24365"
       y="261.47311"
       width="205.69217"
       height="55.78093"
       id="rect5" />
    <linearGradient
       inkscape:collect="always"
       xlink:href="#linearGradient9"
       id="linearGradient10"
       x1="65.544113"
       y1="92.464302"
       x2="151.3577"
       y2="148.39464"
       gradientUnits="userSpaceOnUse"
       gradientTransform="matrix(1.0218594,0,0,1,0.24130393,2.6458334)" />
    <linearGradient
       inkscape:collect="always"
       xlink:href="#linearGradient11"
       id="linearGradient12"
       x1="76.585777"
       y1="171.43063"
       x2="104.68034"
       y2="178.60538"
       gradientUnits="userSpaceOnUse"
       gradientTransform="translate(2.6458334,2.6458334)" />
    <linearGradient
       inkscape:collect="always"
       xlink:href="#linearGradient11"
       id="linearGradient15"
       x1="121.56799"
       y1="176.14786"
       x2="145.51582"
       y2="168.97313"
       gradientUnits="userSpaceOnUse"
       gradientTransform="translate(2.6458334,2.6458334)" />
    <linearGradient
       inkscape:collect="always"
       xlink:href="#linearGradient17"
       id="linearGradient18"
       x1="98.591805"
       y1="77.519516"
       x2="123.07871"
       y2="168.54028"
       gradientUnits="userSpaceOnUse" />
  </defs>
  <g
     inkscape:label="Layer 1"
     inkscape:groupmode="layer"
     id="layer1"
     transform="translate(-58.842643,-61.597504)">
    <path
       id="rect2"
       style="fill:#880000;stroke-width:1.32092;stroke-linejoin:round;stroke-dasharray:none"
       d="m 62.645835,148.75185 c 33.333333,4.53706 66.666685,4.06685 100.000015,0 l -1.15927,9.22938 c -35.52306,7.65159 -63.991243,3.64643 -97.324576,0.0322 z"
       sodipodi:nodetypes="ccccc" />
    <path
       id="path3"
       style="fill:url(#linearGradient15);stroke:#880000;stroke-width:1.78768;stroke-linejoin:round;stroke-dasharray:none;stroke-opacity:1"
       d="m 116.79144,154.99552 23.87681,-7.40928 c 2.38429,15.00008 6.9618,29.00324 13.12217,42.28692 l -15.98093,-6.97489 -7.89588,14.38417 c -6.40351,-13.17316 -10.49252,-27.39837 -13.12217,-42.28692 z"
       sodipodi:nodetypes="cccccc" />
    <path
       id="rect3"
       style="opacity:1;fill:url(#linearGradient12);stroke:#880000;stroke-width:1.78768;stroke-linejoin:round;stroke-dasharray:none;stroke-opacity:1"
       d="m 86.173038,149.40299 24.498992,4.97995 c -5.38158,12.34681 -8.58759,26.57913 -8.81973,43.38879 l -9.309625,-13.91311 -15.189365,8.93316 c -0.0739,-14.93879 2.375101,-29.47924 8.819728,-43.38879 z"
       sodipodi:nodetypes="cccccc" />
    <ellipse
       style="fill:url(#linearGradient10);fill-opacity:1;stroke-width:1.40268;stroke-linejoin:round;stroke-dasharray:none"
       id="path1"
       ry="55"
       rx="51.092968"
       cy="119.24335"
       cx="112.64582" />
    <path
       id="ellipse9"
       style="fill:#18aaff;fill-opacity:1;stroke-width:1.3876;stroke-linejoin:round;stroke-dasharray:none"
       d="m 70.958688,87.484901 c 4.244098,-7.143971 9.785145,-11.484303 14.047218,-14.459315 -2.486941,3.132584 0.789391,4.936594 4.02109,2.889262 -0.48181,5.519706 -11.430238,12.468305 -13.501202,15.035741 1.65253,-3.446651 -2.147146,-5.929269 -4.567106,-3.465688 z"
       sodipodi:nodetypes="ccccc" />
    <ellipse
       style="fill:url(#linearGradient18);fill-opacity:1;stroke-width:1.27618;stroke-linejoin:round;stroke-dasharray:none"
       id="ellipse1"
       cx="112.64582"
       cy="119.06119"
       rx="45"
       ry="51.691799" />
    <path
       d="M 150.75499,99.680812 C 140.809,93.35404 141.1418,111.72677 150.21971,105.932 l 3.8512,8.27747 c -6.22737,2.88828 -15.66381,1.69902 -19.18063,-4.39042 -4.60817,-6.84492 -1.38562,-17.300511 6.43833,-20.120625 3.44107,-1.390971 9.35767,-1.791261 11.50092,1.066383 z"
       style="font-weight:bold;font-size:80px;line-height:1.25;font-family:Futura;-inkscape-font-specification:'Futura, Bold';white-space:pre;fill:#ffdd1d;fill-opacity:1;stroke:#000000;stroke-width:1.08968;stroke-linecap:round;stroke-linejoin:round;stroke-dasharray:none;stroke-opacity:1"
       id="path1-1"
       sodipodi:nodetypes="ccccccc" />
    <path
       id="rect1"
       style="fill:#d80000;stroke:#880000;stroke-width:1.50334;stroke-linejoin:round;stroke-dasharray:none;stroke-opacity:1"
       d="m 62.645835,132.24586 c 35.318548,-3.97043 68.366525,-3.39968 100.000015,0 1.53197,8.33333 0.59069,16.66667 -1.54569,25 -31.68918,-2.74025 -61.353761,-3.3945 -96.723792,0 -1.290577,-8.33333 -2.898471,-16.66667 -1.730533,-25 z"
       sodipodi:nodetypes="ccccc" />
    <text
       xml:space="preserve"
       id="text3"
       style="font-style:normal;font-weight:normal;font-size:10.5833px;line-height:1.25;font-family:sans-serif;white-space:pre;display:inline;opacity:0.488889;fill:#000000;fill-opacity:1;stroke:none;stroke-width:1.00005;stroke-dasharray:none"
       transform="translate(58.713835,63.171068)"><textPath
         xlink:href="#path17"
         id="textPath17"><tspan
           id="tspan4"
           style="font-style:normal;font-variant:normal;font-weight:bold;font-stretch:normal;font-size:7.05556px;font-family:Chalkboard;-inkscape-font-specification:'Chalkboard, Bold';font-variant-ligatures:normal;font-variant-caps:normal;font-variant-numeric:normal;font-variant-east-asian:normal;stroke-width:1.00005;stroke-dasharray:none"> by OpenAAC</tspan></textPath></text>
    <text
       xml:space="preserve"
       transform="matrix(0.26458333,0,0,0.26458333,10.025185,7.7191379)"
       id="text5"
       style="font-style:normal;font-weight:normal;font-size:40px;line-height:1.25;font-family:sans-serif;letter-spacing:-3px;white-space:pre;shape-inside:url(#rect5);display:inline;fill:#003b8c;fill-opacity:0.988235;stroke:none;stroke-width:1.00005;stroke-dasharray:none"><tspan
         x="256.24414"
         y="303.31304"
         id="tspan5"><tspan
           style="font-size:46.6667px;font-family:'Arial Black';-inkscape-font-specification:'Arial Black, Normal'"
           id="tspan3">2025</tspan></tspan></text>
    <path
       style="font-size:66.6667px;line-height:1.25;font-family:'Savoye LET';-inkscape-font-specification:'Savoye LET, Normal';white-space:pre;stroke-width:0.331214;stroke-dasharray:none"
       d="m 123.34748,126.01505 c -0.44374,1.07266 -0.96428,1.64106 -1.53667,1.75841 -1.91315,0.39221 -3.11984,-0.9115 -3.30694,-2.23157 -0.71508,-5.04528 2.81595,-8.27353 4.81466,-8.06756 1.62601,0.16757 1.68124,1.96137 1.55455,2.57324 -0.54053,1.679 -1.14175,3.38635 -1.15766,4.8205 1.07331,3.07301 2.11374,1.41183 2.76258,0.58503 l 0.0894,0.24277 c -0.64518,1.31777 -2.69645,2.5049 -3.21989,0.31918 z m 0.77046,-5.75469 c 0.6794,-1.47787 -1.5095,-1.47779 -2.13829,-1.09033 -1.18147,0.72804 -3.01998,3.09078 -2.42858,6.4164 0.26554,1.49322 1.68382,1.51086 2.45654,1.17227 1.38797,-0.60817 0.94505,-3.96351 2.11033,-6.49834 z m 2.17318,1.57739 1.24463,-0.54389 c 0,0 -0.23007,1.54867 -0.23664,2.09627 -0.005,0.43936 -0.031,0.66468 0.0262,1.4787 0.075,0.95111 0.13483,1.53152 0.17951,1.74125 0.0447,0.20971 0.12808,0.31622 0.2502,0.31951 0.15808,0.004 0.16075,-0.11202 0.53356,-0.60527 0.37301,-0.50042 0.74164,-1.10522 1.10591,-1.8144 l -0.26432,-2.59556 1.22133,-0.53325 0.004,0.26973 c 0.016,1.5391 0.0473,2.64362 0.0939,3.31356 0.0169,0.17301 0.0335,0.3568 0.0498,0.55138 0.0165,0.18739 0.0269,0.33506 0.0312,0.44304 0.0115,0.10817 0.026,0.23437 0.0437,0.37866 0.0179,0.13709 0.0298,0.22728 0.0358,0.27058 0.0511,0.23865 0.14129,0.35973 0.27062,0.36322 0.25865,0.007 0.4893,-0.37687 1.14929,-1.38724 0.62193,-0.93231 0.94173,-1.72537 0.95937,-2.37918 0.0142,-0.5245 -0.14802,-0.90995 -0.48649,-1.15635 l 0.83942,-0.73231 c 0.28787,-0.25113 0.35937,0.67118 0.34696,1.13101 -0.0136,0.50294 -0.16908,1.07035 -0.46656,1.70224 -0.29745,0.63189 -0.73346,1.33554 -1.30801,2.11094 -0.35787,0.47207 -0.68476,0.8623 -0.98069,1.17069 -0.32583,0.3507 -0.58932,0.52334 -0.7905,0.51791 -0.15807,-0.004 -0.27468,-0.0793 -0.34983,-0.22514 -0.075,-0.15302 -0.12924,-0.40613 -0.16286,-0.75936 l -0.18505,-1.93551 c -0.33338,0.63092 -0.71229,1.21747 -1.13676,1.75966 -0.55885,0.7255 -0.99991,1.08387 -1.32323,1.07514 -0.15088,-0.004 -0.2605,-0.0718 -0.32886,-0.203 -0.0682,-0.13845 -0.12614,-0.38807 -0.17392,-0.74886 -0.069,-1.67861 -0.36992,-2.7863 -0.19154,-5.07417 z m 13.42046,-0.14476 -1.11949,3.91713 c -0.11942,0.42818 -0.18241,0.76442 -0.189,1.0087 -0.006,0.21554 0.0358,0.40361 0.12498,0.5642 0.0891,0.16059 0.20197,0.24271 0.33848,0.24639 0.20836,0.006 0.56011,-0.24011 1.05526,-0.73725 l 0.14681,0.15496 -0.12233,0.13689 c -0.39262,0.42801 -0.69554,0.729 -0.90875,0.903 -0.20582,0.167 -0.38418,0.24848 -0.53506,0.24441 -0.22991,-0.006 -0.42789,-0.13018 -0.59393,-0.37194 -0.15865,-0.24874 -0.23373,-0.53117 -0.22519,-0.84731 0.006,-0.22992 0.10652,-0.74849 0.30082,-1.55572 l 0.0973,-0.4072 c -0.28252,0.61072 -0.65416,1.19387 -1.11494,1.74945 -0.77282,0.92824 -1.5005,1.38315 -2.18305,1.36473 -0.40954,-0.011 -1.00992,-0.1972 -1.23908,-0.49818 -0.22915,-0.30096 -0.33704,-0.69934 -0.32366,-1.19509 0.0182,-0.67537 0.22772,-1.37795 0.62849,-2.1077 0.40795,-0.72957 0.90212,-1.3238 1.48252,-1.78268 0.58778,-0.46588 1.43213,-0.66141 1.97098,-0.64687 0.56762,0.0153 0.9859,0.23512 1.25486,0.6594 l 0.1296,-0.40635 z m -1.27661,1.34605 c -0.0789,-0.27535 -0.22042,-0.49129 -0.4247,-0.64778 -0.19691,-0.1635 -0.42828,-0.24884 -0.69413,-0.25601 -0.31612,-0.009 -0.65419,0.12974 -1.0142,0.41482 -0.35982,0.27789 -0.69399,0.67152 -1.00253,1.18088 -0.24096,0.40334 -0.44716,0.85075 -0.61861,1.34223 -0.16426,0.49168 -0.25075,0.89918 -0.25947,1.2225 -0.01,0.36642 0.0505,0.65565 0.1815,0.86771 0.13807,0.21223 0.33645,0.32184 0.59508,0.32882 0.33051,0.009 0.67956,-0.13625 1.04713,-0.4355 0.36758,-0.29926 0.73515,-0.73153 1.10271,-1.29681 0.22446,-0.32468 0.40223,-0.65064 0.53329,-0.97784 0.13107,-0.32721 0.27999,-0.78335 0.44677,-1.36844 z m 1.46513,3.6756 c 0.63806,-0.73055 1.89148,-3.09969 2.11728,-3.74071 -0.57324,-0.33903 -0.85172,-0.8103 -0.83544,-1.41383 0.008,-0.28738 0.0822,-0.51906 0.22367,-0.69499 0.14136,-0.17594 0.31622,-0.26109 0.52457,-0.25547 0.21556,0.006 0.38887,0.11116 0.51995,0.31602 0.13128,0.19766 0.19265,0.45457 0.18412,0.7707 -0.006,0.22273 -0.0522,0.46954 -0.13862,0.74043 0.19265,0.0555 0.36799,0.0854 0.52606,0.0896 0.44546,0.012 0.81537,-0.10741 1.10975,-0.35832 l 0.84767,-0.11242 -0.0795,0.14884 c -0.50953,0.95304 -0.99559,1.85693 -1.35809,2.76748 -0.35513,0.90355 -0.53879,1.58165 -0.551,2.0343 -0.004,0.16525 0.0348,0.30651 0.11798,0.4238 0.0834,0.1101 0.18604,0.16679 0.30817,0.17009 0.29459,0.008 0.44685,-0.16541 1.11754,-0.77285 l 0.1672,0.19863 c -0.20719,0.21731 -0.5272,0.48549 -0.96001,0.80456 -0.38895,0.29149 -0.74866,0.43278 -1.07917,0.42386 -0.28021,-0.008 -0.50043,-0.10694 -0.66062,-0.29825 -0.15304,-0.19106 -0.22517,-0.44826 -0.21645,-0.77158 0.0145,-0.53886 0.24131,-1.2158 0.68033,-2.03081 0.15922,-0.30488 0.36271,-0.6517 0.61046,-1.04046 0.24777,-0.38877 0.55864,-0.85133 0.93261,-1.38769 l 0.11187,-0.14798 c -0.24292,0.20917 -0.47701,0.35744 -0.70227,0.44482 -0.21787,0.0805 -0.4669,0.11683 -0.74711,0.10927 -0.12932,-0.003 -0.26534,-0.0252 -0.40807,-0.0649 -0.24892,0.69791 -1.55643,3.06728 -2.20885,3.79745 z m 2.37183,-4.38095 c 0.0336,-0.17885 0.052,-0.32934 0.0553,-0.45148 0.007,-0.25146 -0.031,-0.45023 -0.11334,-0.59625 -0.0752,-0.14582 -0.17739,-0.22049 -0.30673,-0.22398 -0.0719,-0.002 -0.13747,0.0322 -0.19688,0.10255 -0.052,0.0633 -0.0795,0.14526 -0.0822,0.24584 -0.009,0.3377 0.20549,0.64547 0.64376,0.92332 z m 10.38388,-5.05929 -2.35736,8.25349 c -0.17486,0.65534 -0.25657,1.11473 -0.26355,1.37339 -0.006,0.2299 0.0283,0.41778 0.10344,0.5636 0.0824,0.14603 0.19536,0.22098 0.33905,0.22486 0.18681,0.005 0.16027,-0.0721 0.43367,-0.34514 l 0.32097,-0.30411 0.0222,-0.021 c 0.008,-0.008 0.0215,-0.0319 0.0329,-0.0207 l 0.15759,0.15524 -0.0889,0.0946 c -0.28117,0.29439 -0.42544,0.44509 -0.43282,0.45208 l -0.36525,0.34605 c -0.18447,0.17478 -0.32039,0.28256 -0.40777,0.32333 -0.0804,0.0481 -0.17087,0.0709 -0.27147,0.0682 -0.2371,-0.006 -0.43138,-0.13388 -0.58286,-0.38243 -0.15148,-0.24854 -0.22294,-0.53089 -0.21441,-0.84702 0.005,-0.18681 0.0693,-0.52566 0.1785,-1.01976 l 0.13513,-0.61111 c -0.19902,0.4476 -0.50687,0.93182 -0.92357,1.45264 -0.75087,0.91443 -1.46759,1.36246 -2.15015,1.34405 -0.40953,-0.0111 -0.936,-0.17266 -1.16516,-0.47364 -0.22895,-0.30815 -0.33655,-0.7173 -0.32279,-1.22743 0.0192,-0.71129 0.22539,-1.42474 0.61858,-2.14032 0.39339,-0.72277 0.88388,-1.31351 1.47146,-1.7722 0.59476,-0.45849 1.38667,-0.6744 1.96145,-0.65889 0.42391,0.0114 0.81568,0.14785 1.17532,0.4092 l 1.16037,-4.662 z m -2.7073,5.77333 c -0.0594,-0.19573 -0.1882,-0.35379 -0.38626,-0.47418 -0.19787,-0.12757 -0.41178,-0.19446 -0.64169,-0.20066 -0.33769,-0.009 -0.69023,0.13236 -1.05761,0.42444 -0.36021,0.29226 -0.70584,0.71075 -1.03689,1.25544 -0.24097,0.40333 -0.44348,0.84724 -0.60754,1.33174 -0.15669,0.47751 -0.24036,0.91385 -0.25102,1.30901 -0.009,0.34486 0.0551,0.62342 0.19315,0.83567 0.14525,0.21243 0.34721,0.32213 0.60587,0.32911 0.30175,0.008 0.62925,-0.13761 0.98245,-0.43725 0.36039,-0.29945 0.72447,-0.7354 1.09223,-1.30787 0.24776,-0.38878 0.44561,-0.79327 0.59357,-1.21349 0.17998,-0.54159 0.31035,-0.97666 0.39113,-1.30524 z m 1.07781,4.20169 0.43258,-0.44168 c 0.51357,-0.52438 1.1453,1.07958 1.83504,1.09819 0.35924,0.01 0.6677,-0.097 0.92537,-0.32016 0.26506,-0.23012 0.40176,-0.49965 0.41009,-0.8086 0.006,-0.22273 -0.05,-0.41477 -0.16781,-0.57613 -0.11787,-0.16137 -0.15343,-0.18121 -0.60318,-0.56723 -0.41459,-0.35632 -0.69472,-0.6335 -0.84036,-0.83156 -0.13828,-0.20506 -0.46444,-0.53163 -0.45746,-0.79029 0.009,-0.33768 0.11451,-0.64761 0.31629,-0.92978 0.20892,-0.28195 0.48097,-0.50469 0.81612,-0.66821 0.33536,-0.1707 0.86818,-0.19837 1.31319,-0.14651 0.32332,0.009 0.59052,0.0987 0.8016,0.26969 0.21846,0.16409 0.32431,0.37186 0.31752,0.62333 -0.009,0.33051 -0.15513,0.55304 -0.43863,0.66763 -0.034,-0.33885 -0.15625,-0.60459 -0.36675,-0.79722 -0.20312,-0.19961 -0.46994,-0.30387 -0.80045,-0.31279 -0.29457,-0.008 -0.55584,0.082 -0.78381,0.27005 -0.22058,0.18099 -0.33417,0.39362 -0.34076,0.63791 -0.008,0.30177 0.17061,0.60497 0.53628,0.90963 l 0.61141,0.5234 c 0.59772,0.49785 0.88979,0.99825 0.87622,1.5012 -0.0101,0.3736 -0.12736,0.72275 -0.35181,1.04745 -0.21708,0.31769 -0.51147,0.56859 -0.88313,0.75269 -0.36447,0.1843 -0.74788,0.27102 -1.15022,0.26016 -0.63946,-0.0173 -1.58495,-0.77018 -2.00734,-1.37117 z"
       id="text6"
       aria-label="Awards"
       sodipodi:nodetypes="csssccccccssscsccssccccccccccscsccssccsccccscccccccsccccscscccsssccscccccccccscsscscccccsscscsccccscscccscscscccscccccsscscccsscccscccsscssscccscsccscccccscccscscccccccccssccsccscsccscsccsccsccscs" />
    <text
       xml:space="preserve"
       id="text8"
       style="font-style:normal;font-weight:normal;font-size:10.5833px;line-height:1.25;font-family:sans-serif;white-space:pre;display:inline;fill:#ffffff;fill-opacity:1;stroke:none;stroke-width:1.00005;stroke-dasharray:none"
       x="37.410755"
       y="0"
       transform="translate(58.842643,61.597504)"><textPath
         xlink:href="#path16"
         id="textPath16"
         style="font-style:normal;font-variant:normal;font-weight:bold;font-stretch:normal;font-size:8.81944px;font-family:Sans;-inkscape-font-specification:'Sans, Bold';font-variant-ligatures:normal;font-variant-caps:normal;font-variant-numeric:normal;font-variant-east-asian:normal;text-align:start;text-anchor:start;fill:#ffffff;fill-opacity:1;stroke-width:1.00005;stroke-dasharray:none">Annual Recognition</textPath></text>
    <text
       xml:space="preserve"
       id="text9"
       style="font-style:normal;font-weight:normal;font-size:10.5833px;line-height:1.25;font-family:sans-serif;white-space:pre;display:inline;opacity:0.739683;fill:#fefefe;fill-opacity:1;stroke:none;stroke-width:1.00005;stroke-dasharray:none"
       transform="translate(58.842643,61.597504)"><textPath
         xlink:href="#path15"
         id="textPath15"><tspan
           id="tspan9"
           style="font-style:normal;font-variant:normal;font-weight:normal;font-stretch:normal;font-size:6.35px;font-family:Sans;-inkscape-font-specification:'Sans, Normal';font-variant-ligatures:normal;font-variant-caps:normal;font-variant-numeric:normal;font-variant-east-asian:normal;fill:#fefefe;fill-opacity:1;stroke-width:1.00005;stroke-dasharray:none">     varied categories of AAC</tspan></textPath></text>
    <path
       d="m 127.1645,101.66302 c -0.41241,-1.08667 -0.92759,-2.289989 -1.44723,-3.55511 -0.64663,1.540936 -1.09727,2.70937 -1.43826,3.76034 z m -0.0626,4.58831 h -2.5017 c -0.52118,1.51723 -2.51457,8.78944 -3.03576,10.30669 l -9.33523,-1.91822 c 3.32405,-8.73283 3.77305,-15.678843 7.36233,-23.483287 l 12.78789,-1.733812 c 2.26304,11.120049 3.46513,17.358879 6.78915,26.091699 l -9.43244,1.04356 z"
       style="font-weight:bold;font-size:80px;line-height:1.25;font-family:Futura;-inkscape-font-specification:'Futura, Bold';white-space:pre;fill:#ffdd1d;fill-opacity:1;stroke:#000000;stroke-width:1.08968;stroke-linecap:round;stroke-linejoin:round;stroke-dasharray:none;stroke-opacity:1"
       id="path1-4"
       sodipodi:nodetypes="ccccccccccccc" />
    <path
       d="m 82.979664,100.77199 h 3.831167 c 0.03763,0.66962 -0.140819,1.23581 -0.103048,1.78497 5.435765,-2.937451 7.674602,0.19006 7.72302,2.63233 v 6.44121 h -3.831149 c -0.10498,-2.407 0.417632,-4.02197 -0.280447,-4.58259 -1.459295,-1.23459 -3.65669,-0.0666 -3.508376,2.347 v 2.23559 h -3.831167 z"
       style="font-weight:bold;font-size:80px;line-height:1.25;font-family:Futura;-inkscape-font-specification:'Futura, Bold';white-space:pre;opacity:1;fill:#fff4b7;fill-opacity:1;stroke:#000000;stroke-width:1.05833;stroke-linecap:round;stroke-linejoin:round;stroke-dasharray:none;stroke-opacity:1"
       id="path1-40"
       sodipodi:nodetypes="ccccccccccc" />
    <path
       d="m 107.21311,102.16246 c -1.0192,-2.907081 -0.41815,-1.01364 -1.4375,-3.920713 -1.01922,2.907073 -0.50166,1.147469 -1.52085,4.054543 z m -2.5545,4.2227 c -0.52119,1.51723 -2.51459,8.78945 -3.03578,10.30669 l -9.133288,-1.31245 c 2.316471,-9.07854 2.444887,-12.4631 7.293014,-24.752167 l 12.655284,-1.070695 c 1.59992,10.456932 3.26916,15.331882 6.59319,24.064702 l -9.23648,3.07055 c -0.52119,-1.51724 -1.42275,-7.31731 -2.2809,-10.3067 -1.21571,0.15 -1.63301,7e-5 -2.85504,7e-5 z"
       style="font-weight:bold;font-size:80px;line-height:1.25;font-family:Futura;-inkscape-font-specification:'Futura, Bold';white-space:pre;fill:#ffdd1d;fill-opacity:1;stroke:#000000;stroke-width:1.08968;stroke-linecap:round;stroke-linejoin:round;stroke-dasharray:none;stroke-opacity:1"
       id="path9"
       sodipodi:nodetypes="ccccccccccccc" />
    <path
       d="m 77.005184,93.980622 -0.08153,9.076588 c 1.513509,-0.81525 1.243099,-1.40738 2.756608,-2.59736 l 2.770332,2.88257 c -1.813278,1.67217 -0.859298,0.69238 -2.672576,2.36455 1.919111,1.94733 0.955663,1.18506 2.874774,3.13239 l -2.493774,2.70961 -3.072302,-3.28239 -0.08153,3.28239 H 73.174017 V 93.980622 Z"
       style="font-weight:bold;font-size:80px;line-height:1.25;font-family:Futura;-inkscape-font-specification:'Futura, Bold';white-space:pre;opacity:1;fill:#fff4b7;fill-opacity:1;stroke:#000000;stroke-width:1.05833;stroke-linecap:round;stroke-linejoin:round;stroke-dasharray:none;stroke-opacity:1"
       id="path1-2"
       sodipodi:nodetypes="cccccccccccc" />
  </g>
  <g
     inkscape:groupmode="layer"
     id="layer3"
     inkscape:label="Text Paths"
     style="display:none">
    <path
       style="fill:none;stroke:#000000;stroke-width:0.264583px;stroke-linecap:butt;stroke-linejoin:miter;stroke-opacity:1"
       d="m 65.283019,144.21499 c 29.320964,-2.01035 61.855831,-2.24555 94.802341,0.25759"
       id="path16"
       sodipodi:nodetypes="cc"
       transform="translate(-58.842643,-61.597503)" />
    <path
       style="fill:none;stroke:#000000;stroke-width:0.264583px;stroke-linecap:butt;stroke-linejoin:miter;stroke-opacity:1"
       d="m 63.737329,152.28135 c 29.320964,-2.01035 65.333631,-1.85913 98.280141,0.64401"
       id="path15"
       sodipodi:nodetypes="cc"
       transform="translate(-58.842643,-61.597503)" />
    <path
       style="fill:none;stroke:#000000;stroke-width:0.264583px;stroke-linecap:butt;stroke-linejoin:miter;stroke-opacity:1"
       d="m 90.142872,161.29453 c 10.942378,3.79004 30.737618,4.37759 44.696208,-0.25757"
       id="path17"
       sodipodi:nodetypes="cc"
       transform="translate(-58.842643,-61.597503)" />
  </g>
</svg>
