<?xml version="1.0" encoding="utf-8"?>
<!-- Generator: Adobe Illustrator 22.0.1, SVG Export Plug-In . SVG Version: 6.00 Build 0)  -->
<svg version="1.1" id="Layer_1" xmlns="http://www.w3.org/2000/svg" xmlns:xlink="http://www.w3.org/1999/xlink" x="0px" y="0px"
	 viewBox="0 0 688.9 110.3" style="enable-background:new 0 0 688.9 110.3;" xml:space="preserve">
<style type="text/css">
	.st0{fill:#FF5500;}
	.st1{fill:url(#SVGID_1_);}
	.st2{fill:#A5254E;}
	.st3{fill:url(#SVGID_2_);}
	.st4{fill-rule:evenodd;clip-rule:evenodd;fill:#FF5500;}
</style>
<g>
	<path class="st0" d="M152.8,22.6c-0.4-1.2-1.2-1.4-6.1-1.4h-0.8c-5.2,0-5.7,0.5-6,1.4l-22,61.8c-0.5,1.3,0.1,1.5,5.4,1.5h0.9
		c5.2,0,6.2-0.5,6.6-1.5l5-14.9h20.7l5.1,14.9c0.4,1.1,1.6,1.5,6.8,1.5h1.1c5.3,0,6-0.5,5.6-1.6L152.8,22.6z M139,59.6l1-3
		c2.9-8.6,4.9-15.2,6.1-19.7c1.3,4.7,2.8,9.6,5.9,19.5l1,3.1H139z M213.1,71c0,4.1-1.7,8.1-4.6,10.9c-3.3,3.2-8.3,4.9-14.8,4.9
		c-6.9,0-11.8-2.2-15.5-5.4c-0.7-0.6-0.6-1.4,0.8-4l0.9-1.6c1.5-2.7,2.5-3.2,3.7-2.4c3.5,2.3,6.6,3.5,9.7,3.5c4.8,0,7.8-1.8,7.8-4.2
		c0-7-23-2.7-23-19.9c0-9.4,8.1-15.2,18.6-15.2c5.9,0,11.1,1.6,14.8,4.5c0.9,0.6,0.7,1.3-1.1,4.4l-0.8,1.3c-1.6,2.8-2.2,3.2-3.2,2.6
		c-2.9-1.8-5.7-2.9-9.2-2.9c-2.6,0-4.7,0.5-5.8,1.5c-0.8,0.7-1.3,1.5-1.3,2.6C190.1,58.4,213.1,54.8,213.1,71z M254,71
		c0,4.1-1.7,8.1-4.6,10.9c-3.3,3.2-8.3,4.9-14.8,4.9c-6.9,0-11.8-2.2-15.5-5.4c-0.7-0.6-0.6-1.4,0.8-4l0.9-1.6
		c1.5-2.7,2.5-3.2,3.7-2.4c3.5,2.3,6.6,3.5,9.7,3.5c4.8,0,7.8-1.8,7.8-4.2c0-7-23-2.7-23-19.9c0-9.4,8.1-15.2,18.6-15.2
		c5.9,0,11.1,1.6,14.8,4.5c0.9,0.6,0.7,1.3-1.1,4.4l-0.8,1.3c-1.6,2.8-2.2,3.2-3.2,2.6c-2.9-1.8-5.7-2.9-9.2-2.9
		c-2.6,0-4.7,0.5-5.8,1.5c-0.8,0.7-1.3,1.5-1.3,2.6C230.9,58.4,254,54.8,254,71z M318.3,71c0,4.1-1.7,8.1-4.6,10.9
		c-3.3,3.2-8.3,4.9-14.8,4.9c-6.9,0-11.8-2.2-15.5-5.4c-0.7-0.6-0.6-1.4,0.8-4l0.9-1.6c1.5-2.7,2.5-3.2,3.7-2.4
		c3.5,2.3,6.6,3.5,9.7,3.5c4.8,0,7.8-1.8,7.8-4.2c0-7-23-2.7-23-19.9c0-9.4,8.1-15.2,18.6-15.2c5.9,0,11.1,1.6,14.8,4.5
		c0.9,0.6,0.7,1.3-1.1,4.4l-0.8,1.3c-1.6,2.8-2.2,3.2-3.2,2.6c-2.9-1.8-5.7-2.9-9.2-2.9c-2.6,0-4.7,0.5-5.8,1.5
		c-0.8,0.7-1.3,1.5-1.3,2.6C295.2,58.4,318.3,54.8,318.3,71z M274.2,39.8v44.8c0,1-0.5,1.4-5.8,1.4h-0.5c-5.8,0-6-0.4-6-1.4V39.8
		c0-1,0.2-1.4,6-1.4h0.5C273.7,38.5,274.2,38.8,274.2,39.8z M275.4,25.1c0,4-3.2,7.4-7.6,7.4c-4.3,0-7.6-3.4-7.6-7.4
		c0-4,3.2-7.4,7.6-7.4C272.2,17.7,275.4,21.1,275.4,25.1z M354.1,80.2c1,3.3,0.9,3.9-0.2,4.4c-2.9,1.4-6.8,2.2-10.3,2.2
		c-5,0-8.5-1.4-10.9-3.7c-2.5-2.5-3.7-6.3-3.7-12.1V48.1h-6.2c-0.8,0-1.2-0.2-1.2-4.5V43c0-4.3,0.4-4.5,1.2-4.5h6.2V26.9
		c0-1,0.2-1.4,6-1.4h0.5c5.3,0,5.8,0.4,5.8,1.4v11.6H352c0.8,0,1.2,0.2,1.2,4.5v0.6c0,4.3-0.4,4.5-1.2,4.5h-10.7v22.2
		c0,2.6,0.5,4,1.5,5c0.9,0.8,2.2,1.3,4,1.3c1.4,0,3.1-0.4,4.7-0.9c0.9-0.3,1.3,0.3,2.3,3.6L354.1,80.2z M374.8,25.1
		c0,4-3.2,7.4-7.6,7.4c-4.3,0-7.6-3.4-7.6-7.4c0-4,3.2-7.4,7.6-7.4C371.6,17.7,374.8,21.1,374.8,25.1z M373.6,39.8v44.8
		c0,1-0.5,1.4-5.8,1.4h-0.5c-5.8,0-6-0.4-6-1.4V39.8c0-1,0.2-1.4,6-1.4h0.5C373.1,38.5,373.6,38.8,373.6,39.8z M424.1,39.8
		c-2.8,14.4-10.6,34.2-16.6,45.1c-0.4,0.7-1.3,1.1-6,1.1h-0.8c-4.7,0-5.6-0.3-5.9-1.2l-16.1-44.7c-0.4-1.1-0.1-1.6,5.9-1.6h0.8
		c4.9,0,5.8,0.4,6.2,1.4l6.1,18.7c1.8,5.5,3.3,10.3,4.5,14.9c3.3-8.5,8-24.7,9.9-33.7c0.2-1,0.5-1.4,5.7-1.4h0.5
		C423.3,38.5,424.3,39.1,424.1,39.8z"/>
	<linearGradient id="SVGID_1_" gradientUnits="userSpaceOnUse" x1="473.2278" y1="54.1894" x2="478.6548" y2="54.1894">
		<stop  offset="0" style="stop-color:#FF5500"/>
		<stop  offset="1" style="stop-color:#A5254E"/>
	</linearGradient>
	<path class="st1" d="M556.6,21.2h-0.5c-5.3,0-6,0.3-6.3,1.5l-6,25.7c-1.8,7.8-3.7,17.7-4.5,24.1c-0.8-6.6-2.4-16.4-4.2-24.3
		l-6-25.6c-0.3-1.1-1.3-1.5-6.6-1.5h-0.8c-5.2,0-6.1,0.3-6.4,1.5l-6,26.3c-1.6,7.3-3.1,16.7-3.8,22.4c-1-6.7-2.8-15.1-4.6-22.3
		l-6.6-26.4c-0.3-1.2-1.3-1.5-6.5-1.5h-1.3c-5,0.1-4.7,0.8-4.6,1.9l0,0c0.8,7.8,3.4,53.9-29.2,53.9c-7.8,0-11.6-2.6-12.7-7
		c12.4-0.5,28.5-4.6,28.1-18.6c-0.3-8.8-7.5-13.5-17.9-13.5c-16.9,0-24.4,12.4-23.9,26c0.4,13.9,7.9,23.3,23.9,23.3
		c24.3,0,36-18.3,38.9-32.1c0.1,0.2,7.7,29.3,7.7,29.3c0.4,1.3,1.6,1.5,7.1,1.5h2.1c5.2,0,6.2-0.5,6.5-1.5l4.9-20.9
		c1.8-7.7,3.4-17,4.3-24.3c0.8,7.2,2.7,16.9,4.6,24.8l4.9,20.3c0.3,1.3,1.7,1.5,7.2,1.5h1.2c5.2,0,6.2-0.5,6.5-1.5l16.3-61.7
		C562.7,21.7,562.1,21.2,556.6,21.2z M450.6,47.2c3.2,0,5.7,1.6,5.8,4.3c0.2,6.4-10.5,9.2-17.2,9.4
		C439.3,54.5,443.5,47.2,450.6,47.2z"/>
	<path class="st2" d="M604.6,64.7v-5.5c0-7.4,0.2-16.5,0.2-19.4c0-1-0.6-1.3-5.2-1.3h-0.5c-4.9,0-5.2,0.4-5.3,1.2l-0.4,3.2
		c-2.1-3-6.5-5.3-11.3-5.3c-10.8,0-19.9,9.2-19.9,25.6c0,14.8,7.3,23.8,19.1,23.8c4.6,0,9.6-2.1,12.3-5.1c0.2,1.1,0.4,2.5,0.6,3.1
		c0.4,1,1.1,1.2,5.5,1.2h0.5c5.1,0,5.2-0.4,5.1-1.6C604.9,79.5,604.6,71.7,604.6,64.7z M592.3,68.8c0,2.2-0.3,3.8-1.3,5
		c-1.3,1.6-3.9,2.7-6.8,2.7c-7.3,0-9.4-5.8-9.4-13.8c0-9.3,3.1-14.5,9.6-14.5c3.1,0,6.1,1.7,7.8,4.3V68.8z M643.1,42.4v1.3
		c0,4.6-0.3,4.8-1.3,4.9c-5,0.5-8.2,2.6-10.5,6.1c-2.2,3.4-3.3,8.5-3.3,17v13c0,1-0.5,1.4-5.8,1.4h-0.5c-5.8,0-6-0.4-6-1.4V59.8
		c0-7-0.3-14.8-0.6-19.7c-0.1-1.3,0.3-1.6,5.4-1.6h0.5c4.4,0,5.2,0.2,5.5,1.2c0.3,0.8,0.9,5.7,1.1,9.3c2.9-7.4,6.7-11.3,12.4-11.3
		c0.9,0,1.7,0.1,2.3,0.4S643.1,38.4,643.1,42.4z M688.7,80.2c0,0-0.4-1.5-1.4-3.4c-0.9-1.7-1.9-3.2-1.9-3.2
		c-0.3-0.6-1.1-0.9-1.6-0.5c-2.8,1.6-7.6,3.9-12.5,3.9c-7.8,0-11-2.6-12.1-7c12.4-0.5,28.5-4.6,28.1-18.6
		c-0.3-8.8-7.5-13.5-17.9-13.5c-16.9,0-24.4,12.4-23.9,26c0.4,13.9,6.2,23.3,23.7,23.3c8.9,0,16.8-4,19.2-5.5
		C688.8,81.4,689,80.7,688.7,80.2z M669.7,47.2c3.2,0,5.7,1.6,5.8,4.3c0.2,6.4-10.5,9.2-17.2,9.4C658.4,54.5,662.7,47.2,669.7,47.2z
		"/>
	<linearGradient id="SVGID_2_" gradientUnits="userSpaceOnUse" x1="453.8136" y1="75.6718" x2="482.5196" y2="46.9658">
		<stop  offset="0" style="stop-color:#FF5500"/>
		<stop  offset="1" style="stop-color:#A5254E"/>
	</linearGradient>
	<path class="st3" d="M481.9,23.1c0.8,7.8,3.4,53.9-29.2,53.9l-2.5,10.2c24.3,0,36-18.3,38.9-32.1L481.9,23.1z"/>
	<path class="st4" d="M71.6,37.8c-3.4-3.1-13.1-10.5-20.8-14.1c0.7-4.4,2.7-9.1,5.4-12.7c2.4-3.2,8.2-7.9,17.1-9.9
		c8.9-2,20.8-1,21.5,1.5c0.6,2.2-6.7,7.9-8.9,8.9c-2.7,1.2-7.4,2.4-10.4,3c-6.4,1.2-11.6,1-12.2,1.1c-0.4,0.1-0.5,0.2,0,0.6
		c0.7,0.6,5.5,2.5,9.1,2.6c7.8,0.4,8.2-0.9,8.9-0.9c0.6,0,1,0.4,0.7,0.9C81.7,19,80.4,20.5,78,22c-2.7,1.7-5.8,2.2-6.2,4.8
		c-0.1,1,0.8,1.9,1.8,2.7c3.2,2.4,6.4,5.1,9.2,8c2.6,0.4,6.6,0.9,8.6,0.5c0.9-0.2,2.8-0.5,3-1.4c0.5-2.1-1.9-6.9-2.7-8.2
		c-0.5-0.8-3-3.8-2.5-5.1c0.4-1,2.3-1.8,3.1-0.6c0.8,1.2,0.6,3.4,1.6,4.8c0.3-0.1,1.3-0.5,1.6-0.6c-0.5-1.6-3.3-7,0-7.4
		c3-0.5,1.5,3.5,2.2,7c0.2,0,1.3-0.2,1.5-0.2c0-1.7-0.6-5.2,0.8-5.7c1.2-0.4,2.2,0,2.6,0.9c0.4,1-1.3,3.7-1,5.3
		c0.1,0.1,1,2.5,1.5,3.6c0.8,2.1,1.5,7.2,0.5,9c-0.9,1.6-3.7,2.2-5.4,2.6c-1.7,0.4-3.6,0.7-6.5,0.8c-2,0.1-3.1,0-4.3-0.2
		c6.4,8.8,9.1,19.6,1.7,29.3c-5.2,6.8-14.1,11.5-23,13.7c1.4,1.2,2.8,4.4,1.9,6.3c-0.8,1.8-1.9,2.3-3.9,2.9c-0.6,0.2-4,1.1-5.1,1.4
		c-0.4,1.9-1.9,6.4-3.3,8.6c-0.3,1.6-0.3,3.3-1.1,4.6c-0.5,0.7-1.4,1.2-2.6,0.7c-2.2-0.9,0.8-3.4,0.9-5.8c-0.3-0.1-1.5-0.4-1.8-0.5
		c-0.1,0.3-0.9,2.3-1.1,2.6c-0.7,1.3-1.8,4.3-3.9,3.3c-1.6-0.7-0.9-1.8-0.2-2.9c0.3-0.4,1.2-1.1,1.6-1.6c0.5-0.5,1.2-1.4,1.8-2.2
		c-0.9-0.6-1.5-1-1.6-1c-0.9,1.1-3.5,5.4-5.8,3.6c-2.6-2,3.2-4.8,4.2-5.6c0-2.6,3.3-8.3,5.7-8.1c3.4,0.3,4.9,0.5,7.4-1.2
		c0.5-0.4,1.4-1.2,1.2-2.2c-0.2-1-0.9-1.5-1.6-1.8l0.1,0c-0.6,0.1-1.3,0.1-1.9,0.1c-5.3,0.2-11.4-0.9-14.4-5.8
		c-2.5-4.1-1.9-8.8-1.9-13.4c0-10.2-4.4-19.7-14.9-21C14.6,45.4,4.3,53.5,5.4,65.2c0.5,4.5,2.5,9,6.5,11.3
		c4.6,2.7,11.3,1.9,15.3-1.7c7.5-6.9,3.3-22.1-8.2-18.8c-4.9,1.4-7.7,7.3-4.9,11.8c2.7,4.4,10,3.4,10-2.3c0-3.2-4.8-4.8-5.4-1.5
		c-0.1,0.5,0.2,1,0.6,1.5c1.6,2.3-2.8,1.4-3.1-1.2c-0.5-3.9,4.1-6,7.3-4.6c5.3,2.3,4.3,9.7,0.2,12.7c-3.9,2.8-9,1.7-11.9-1.9
		C8.5,66.2,9,60,12.4,55.9c3.3-3.9,9.1-5.3,13.9-3.8c5.5,1.7,8.5,6.8,8.9,13.1C36.1,78,23.7,86.5,11.4,81.6
		C1.8,77.8-1.9,65.7,0.9,56.3C4.2,45.2,16.9,39.2,27.8,41c12.3,2,19.9,12.4,19.8,24.6c0,3.7-0.9,10.2,2.8,12.4
		c2.7,1.6,6.4,1.4,10.1,0.6c1.1-0.8,2-1.7,2.1-2.9c0.2-1.8-3.1-2.5-4.7-2.2c-0.7,0.1-1.5,0.3-2.3,0.1c-0.8-0.2-1.2-1.1-1.4-2
		c-0.7-3.3,0.8-8.5,1.3-9.8c0-0.8-0.2-1.5-0.5-2.2c-0.3-0.7-1.8-2.2-1.7-3c0.1-0.7,1.5-1.4,2.5-1.1c1,0.3,1.7,3.7,1.9,5.6
		c0.1,0,1.5-0.3,1.6-0.3c0-1,0.1-2.4-0.1-3.3c-0.1-0.6-1.2-1.6-1.2-2.9c0-1.2,2.6-1.6,3.4-0.8c0.8,0.8,0.9,2.4,0.8,3.8
		c-0.1,1-0.6,2.6-0.7,3c0.3,0.1,0.9,0.1,1.2,0.2c0,0,0.6,0.1,0.6,0.1c1.5-3.6,0-5.6,1.3-6.1c0.6-0.3,2.1,0,2.4,0.4
		c0.8,1.1,0,2.7-0.3,3.7c-0.3,0.9-0.8,1.7-1.1,2.6c0-0.2-0.5,1.9-0.7,3.1c-0.4,1.8-1.1,3.8-1.6,5.3c2.3-0.4,6.3,0.3,6.6,2.1
		c0.2,1.1-0.4,2.5-1.1,3.7c8.7-3.5,17.9-10.3,15.1-21c-1.3-4.8-4.8-9.1-8.3-12.7c-6-0.7-10.9,4-11.7,4.8c-0.8,0.7-1.8,2.2-2.8,2.9
		c-2.1,1-5.2,1.8-5.9,1.6c-2.6-0.7-4-3.3-5.1-5.7c-0.6-1.4-1.3-2.6-1.5-4.2c-0.5-0.3-1.3-0.8-1.9-1.1c-1.2-0.4-4.7-1.1-3.4-3.2
		c1.5-2.3,5,1.5,6.3,2.3c0.2-0.2,1-1.1,1.1-1.3c-0.3-0.5-0.6-0.8-2.3-1.8c-1-0.6-4.4-2-2.8-3.9c2.1-2.5,5.7,2.7,6.7,4.4
		c0.1,0,1.5-0.7,1.8-0.9c-0.4-0.7-1-1.5-1.5-2c-0.5-0.6-1.3-0.8-1.9-1.9c-0.7-1.4,1.1-2.5,2.6-1.9c1.6,0.6,2.2,3,2.9,5
		c1,1.2,1.6,3.1,2.3,4.8c0.4,0.8,1.1,2.7,1.5,3.6c0.7-0.6,1.3-1.3,2.2-2.2C65.7,38.7,68.7,38.2,71.6,37.8z M74.6,9.5
		c-4.1,0.3-10.2-1.1-10.2-1.1s2.8-3.4,6.7-4.8c5-1.8,12.1,0.1,12.5,1.4C84.1,6.3,79.1,9.1,74.6,9.5z"/>
</g>
</svg>
