<?xml version="1.0" encoding="UTF-8" standalone="no"?>
<!-- Created with Inkscape (http://www.inkscape.org/) -->

<svg
   width="60mm"
   height="60mm"
   viewBox="0 0 60 60.000002"
   version="1.1"
   id="svg1"
   xml:space="preserve"
   sodipodi:docname="quick-core-unstroked.svg"
   inkscape:version="1.3.2 (091e20e, 2023-11-25)"
   inkscape:export-filename="quick-core-24.png"
   inkscape:export-xdpi="84.669998"
   inkscape:export-ydpi="84.669998"
   xmlns:inkscape="http://www.inkscape.org/namespaces/inkscape"
   xmlns:sodipodi="http://sodipodi.sourceforge.net/DTD/sodipodi-0.dtd"
   xmlns="http://www.w3.org/2000/svg"
   xmlns:svg="http://www.w3.org/2000/svg"><sodipodi:namedview
     id="namedview1"
     pagecolor="#ffffff"
     bordercolor="#666666"
     borderopacity="1.0"
     inkscape:showpageshadow="2"
     inkscape:pageopacity="0.0"
     inkscape:pagecheckerboard="0"
     inkscape:deskcolor="#d1d1d1"
     inkscape:document-units="mm"
     inkscape:zoom="1.1893044"
     inkscape:cx="78.617383"
     inkscape:cy="72.311176"
     inkscape:window-width="1504"
     inkscape:window-height="857"
     inkscape:window-x="0"
     inkscape:window-y="25"
     inkscape:window-maximized="0"
     inkscape:current-layer="layer1" /><defs
     id="defs1"><rect
       x="393.50732"
       y="395.189"
       width="102.47989"
       height="47.156529"
       id="rect2" /><rect
       x="126.04564"
       y="299.65567"
       width="439.97064"
       height="342.46362"
       id="rect1" /><radialGradient
       id="radialGradient3643"
       gradientUnits="userSpaceOnUse"
       cy="634.88"
       cx="760.39001"
       gradientTransform="matrix(-1.6558,0.39273,-1.6338,-1.2538,2424.6,1270.8)"
       r="6.5939999"><stop
         id="stop3639"
         stop-color="#28170b"
         offset="0"
         style="stop-color:#d59568;stop-opacity:1;" /><stop
         id="stop3641"
         stop-color="#28170b"
         stop-opacity="0"
         offset="1" /></radialGradient><radialGradient
       id="radialGradient3633"
       gradientUnits="userSpaceOnUse"
       cy="863.26001"
       cx="1562.6"
       gradientTransform="matrix(-1.9412,0.83603,-0.77233,-1.5779,3898.5,926.05)"
       r="108.52"><stop
         id="stop3629"
         stop-color="#f00"
         offset="0"
         style="stop-color:#ffa058;stop-opacity:1;" /><stop
         id="stop3631"
         stop-color="#333"
         stop-opacity="0"
         offset="1"
         style="stop-color:#fff51c;stop-opacity:1;" /></radialGradient></defs><g
     inkscape:label="Layer 1"
     inkscape:groupmode="layer"
     id="layer1"
     transform="translate(-65.307196,-83.115215)"><path
       style="font-size:80px;line-height:1.25;font-family:'STIX Two Math';-inkscape-font-specification:'STIX Two Math, Normal';text-align:center;text-anchor:middle;white-space:pre;fill:#000000;fill-opacity:1;stroke:none;stroke-width:0.529167;stroke-dasharray:none;stroke-opacity:1"
       d="m 84.082032,94.058383 c 0,-4.148666 -2.518833,-6.985 -6.730999,-6.985 -4.191,0 -6.752167,2.899834 -6.752167,7.196667 0,4.318 2.370667,6.94267 6.223,7.19667 l 0.508,0.86784 c 1.121833,1.92617 2.402811,2.08479 5.736166,0.97367 l 1.5875,-0.52917 v -1.75684 c -2.54,0 -3.894666,2.32834 -5.397499,0.21167 v -0.0423 c 2.984499,-0.71967 4.825999,-3.450174 4.825999,-7.133174 z m -3.280833,0.08467 c -0.05267,2.411164 -0.593018,4.950253 -3.429,4.868333 -2.436474,-0.07038 -3.4925,-1.784334 -3.4925,-4.868333 0,-1.872163 0.451771,-3.97442 3.407834,-4.064 2.117902,-0.06418 3.566964,1.623917 3.513666,4.064 z m 14.710823,5.60917 c -1.039392,-0.15801 -1.481667,0.656027 -1.481667,-0.86784 v -7.768166 h -0.508 l -2.963333,0.3175 v 0.592666 c 0.511998,0.105334 0.656166,0.105834 0.656166,1.227667 v 5.566833 c -0.240998,0.7935 -0.465666,1.269997 -1.545166,1.269997 -1.100667,0 -0.846667,-0.634994 -0.846667,-2.793997 v -6.180666 h -1.524 l -2.7305,0.3175 v 0.592666 c 1.143,0.02117 1.439334,0.105834 1.439334,1.248834 v 4.296833 c 0,2.87867 1.015999,3.87351 2.772833,3.87351 1.354666,0 2.3495,-0.63501 3.471333,-1.735677 h 0.105833 v 1.629837 h 0.465667 l 2.688167,-0.48683 z m 5.016498,0.860387 c 0,-0.891899 -0.994837,-0.3175 -0.994837,-1.545165 v -8.035892 h -1.0795 l -2.667,0.592667 v 0.613833 c 0,0 0.232833,-0.04233 0.529166,-0.04233 0.613834,0 0.402167,0.08467 0.402167,0.994833 v 5.876889 c 0,1.206505 0.149667,1.545175 -0.9525,1.545175 v 0.62127 h 4.762504 z M 98.157849,86.98872 c -0.740833,0 -1.2065,0.550333 -1.2065,1.185333 0,0.656167 0.486834,1.2065 1.2065,1.2065 0.740834,0 1.2065,-0.550333 1.2065,-1.2065 0,-0.635 -0.465666,-1.185333 -1.2065,-1.185333 z m 9.482701,10.054166 c -0.9525,1.227667 -1.49481,1.771995 -2.35118,1.589982 -1.57008,-0.333703 -1.8508,-1.517367 -1.7975,-3.177482 0.0409,-1.275111 1.08734,-2.116666 2.22251,-2.116666 1.82033,0 0.59267,0.8255 2.159,0.8255 0.59267,0 0.889,-0.338667 0.889,-0.9525 0,-1.227667 -1.22767,-2.243667 -3.21733,-2.243667 -3.04802,0 -4.78369,2.159 -4.78369,5.482167 0,2.942166 1.58751,4.99534 4.23335,4.99534 2.26484,0 3.13515,-0.972 4.35662,-2.686495 z m 12.74231,4.191004 v -0.61383 c -0.52033,0 -0.6985,-0.0635 -1.7145,-1.227674 l -3.47505,-4.024148 0.80805,-1.034685 c 1.61319,-1.845222 1.7145,-2.4765 3.09033,-2.4765 v -0.635 h -4.57199 v 0.635 c 0,0.80433 1.03716,0.105833 1.03716,0.381 0,0.338667 -0.29633,0.592667 -0.381,0.677333 l -1.67216,1.651 h -0.127 V 86.29022 h -1.62984 l -2.75166,0.740833 v 0.5715 c 0,0 0.42333,-0.04233 0.71966,-0.04233 0.6985,0 0.84667,0.1905 0.84667,1.0795 v 10.583333 c 0,1.164164 -0.21167,1.397004 -1.48167,1.397004 v 0.61383 h 5.334 v -0.61383 c 0,-0.56983 -0.78019,-0.26387 -1.03716,-1.312334 v -2.159003 h 0.127 l 2.26483,2.70933 c 0.096,0.114835 0.23283,0.317507 0.23283,0.508007 0,0.1905 -0.21167,0.254 -0.8255,0.254 v 0.61383 z m -34.67101,13.25034 c -1.185333,1.29117 -1.545167,2.05317 -3.4925,2.05317 -2.9845,0 -4.0005,-1.86365 -4.0005,-3.937 0,-1.9801 1.773399,-3.97934 3.704167,-3.97934 2.180166,0 2.0955,0.10583 2.561166,2.87867 h 0.719667 c 0.05888,-2.12526 0.309867,-4.18649 2.171481,-5.62741 l -1.218981,-0.27809 c -0.481319,-0.1098 -0.381,0.762 -0.719667,0.762 -0.529166,0 -1.312333,-0.762 -3.534833,-0.762 -4.064,0 -6.942667,2.6035 -6.942667,7.21783 0,4.1275 2.286,7.1755 6.646334,7.1755 2.772833,0 4.44624,-1.033 5.58924,-2.7475 -0.718803,-1.08699 -1.036267,-1.87297 -1.482907,-2.75583 z m 19.7697,-4.93183 h -0.50801 l -3.68302,0.635 v 0.59266 c 0,0 0.23284,-0.0423 0.65617,-0.0423 0.76201,0 0.8546,1.43678 0.99797,2.18517 0.28114,1.46753 0.14837,3.32847 -0.23596,4.77866 -0.30365,1.14579 0.18611,1.459 -1.2109,1.459 l -0.33428,0.59417 h 6.35003 v -0.61383 c -1.5875,0 -1.98967,-0.21167 -1.98967,-1.54517 v -3.76767 c 0.508,-0.84666 1.18533,-1.73566 1.67217,-1.73566 0.254,0 0.67733,0.71966 1.37583,0.71966 0.46567,0 0.93133,-1.397 0.93133,-2.20133 0,-0.71967 -0.40216,-1.18533 -1.22766,-1.18533 -1.016,0 -1.651,0.74083 -2.7305,2.30716 h -0.0635 z m 11.15481,6.11716 c -0.67734,0.889 -0.92407,1.57235 -2.28462,1.57235 -1.10343,0 -1.94872,-1.00272 -1.94872,-3.11751 h 5.63034 c -0.10584,-2.96334 -1.62984,-4.6355 -3.937,-4.6355 -2.4765,0 -4.46617,1.69333 -4.46617,5.22816 0,3.40784 1.9685,5.24934 4.5085,5.24934 2.18017,0 3.19617,-1.3335 3.95817,-2.94217 z m -4.17585,-2.32833 c -0.008,0 -0.0619,-1.908 1.31835,-1.94733 1.10956,0.0393 1.22165,1.12822 1.2065,1.94733 z"
       id="text1"
       aria-label="Quick&#10;Core"
       sodipodi:nodetypes="sssccsccccsscsssccccccscssccccssscccccccsccccsssccccscsssccssssssscccccccccccscccccccsssccccscccscccccssccccssssccccccsssscccscsssscccccccsssccccccc" /><g
       id="layer1-7"
       transform="matrix(0.06377057,0,0,0.06377057,84.510351,55.416121)"><path
         id="path3645"
         style="fill:#89bb89;fill-opacity:1;stroke:#000000;stroke-width:5;stroke-miterlimit:4;stroke-dasharray:none;stroke-opacity:1"
         inkscape:connector-curvature="0"
         d="m 130.04,836.74 c -0.42045,-5.3155 -0.72699,-10.612 -0.10562,-15.75 4.2247,-10.89 14.011,-17.419 19.533,-20.289 7.7487,-4.3333 19.703,-10.137 29.075,-22.136 10.783,-14.781 9.1512,-20.993 9.7795,-26.32 3.3318,8.8572 7.1604,14.785 7.1365,28.75 0.33423,12.968 -8.3512,33.706 -22.731,38.333 l -31.586,18.357 -10.837,4.994 -0.26428,-5.9389 z" /><path
         id="path3611"
         style="fill:#c67237;fill-opacity:1;stroke:#000000;stroke-width:5;stroke-miterlimit:4;stroke-dasharray:none;stroke-opacity:1"
         inkscape:connector-curvature="0"
         d="m 124.81,836.64 5.7068,1.1432 c -0.85841,-21.318 -1.8719,-39.265 7.3542,-57.607 -4.4096,1.0533 -9.7517,-0.8666 -13.836,-4.5686 -5.0446,13.871 -4.3375,40.097 0.77515,61.032 z" /><path
         id="path3605"
         sodipodi:nodetypes="cccccccscsccc"
         style="fill:#800000;stroke:#800000;stroke-width:3.4022"
         inkscape:connector-curvature="0"
         d="m 131.77,837.78 c -32.249,-3.7927 -64.015,-3.0008 -79.038,9.8069 -29.037,26.554 -24.697,51.212 -17.564,75.71 14.017,40.629 40.613,77.585 75.693,101.6 17.208,13.765 34.791,19.783 53.11,10.591 16.715,-10.905 27.083,-8.7125 38.473,-8.63 23.995,3.8061 36.963,-6.9695 48.929,-21.968 25.386,-61.765 16.241,-102.2 9.3991,-99.651 -27.38,10.212 -54.996,-12.737 -57.577,-26.82 -3.0597,-13.135 -4.257,-46.992 38.75,-52.929 3.0836,-0.42568 -11.328,-17.705 -38.664,-17.128 -29.749,2.0428 -52.905,12.744 -71.51,29.421 z" /><path
         id="path3613"
         style="fill:#502d16;stroke:#28170b;stroke-width:1.1341"
         inkscape:connector-curvature="0"
         d="m 138.46,778.57 c -0.10434,2.1836 -3.3302,3.1652 -7.2052,2.1924 -3.8749,-0.97289 -6.9316,-3.5318 -6.8272,-5.7154 0.10434,-2.1836 3.3302,-3.1652 7.2052,-2.1924 3.8749,0.97289 6.9316,3.5317 6.8272,5.7154 z" /><path
         id="path3625"
         sodipodi:nodetypes="cccccccscsccc"
         style="fill:#4aff02;stroke:#000000;stroke-width:12.447;stroke-miterlimit:4;stroke-dasharray:none;stroke-opacity:1;fill-opacity:1"
         inkscape:connector-curvature="0"
         d="m 131.77,837.78 c -32.249,-3.7927 -62.447,-2.3143 -79.038,9.8069 -29.037,26.554 -24.697,51.212 -17.564,75.71 14.017,40.629 40.613,77.585 75.693,101.6 17.208,13.765 34.791,19.783 53.11,10.591 16.715,-10.905 27.083,-8.7125 38.473,-8.63 23.995,3.8061 36.963,-6.9695 48.929,-21.968 24.184,-34.218 18.95099,-99.20803 11.743,-99.914 -16.86221,-1.65153 -33.31969,-15.13542 -35.35869,-26.26542 -3.6819,-15.806 -4.73569,-42.62463 14.42069,-51.90758 8.0892,-3.91993 -14.404,-18.958 -38.896,-18.441 -29.749,2.0428 -52.905,12.744 -71.51,29.421 z" /><path
         id="path3635"
         style="fill:#c67237;fill-opacity:1;stroke:#28170b;stroke-width:5;stroke-miterlimit:4;stroke-dasharray:none"
         inkscape:connector-curvature="0"
         d="m 138.46,778.57 c -0.10434,2.1836 -3.3302,3.1652 -7.2052,2.1924 -3.8749,-0.97289 -6.9316,-3.5318 -6.8272,-5.7154 0.10434,-2.1836 3.3302,-3.1652 7.2052,-2.1924 3.8749,0.97289 6.9316,3.5317 6.8272,5.7154 z" /><g
         style="font-style:normal;font-weight:normal;font-size:12px;line-height:125%;font-family:Sans;letter-spacing:0px;word-spacing:0px;fill:#000000;fill-opacity:1;stroke:#ffffff;stroke-width:2;stroke-miterlimit:4;stroke-opacity:0.504348"
         id="text3764" /></g><path
       style="fill:none;stroke:#000000;stroke-width:0.79375;stroke-linecap:round;stroke-linejoin:miter;stroke-dasharray:none;stroke-opacity:1"
       d="m 94.225957,107.9037 c -1.221886,0.91627 -2.234248,1.83898 -2.516951,3.22484"
       id="path1"
       sodipodi:nodetypes="cc" /><text
       xml:space="preserve"
       transform="matrix(0.52600493,0,0,0.53267853,-138.69364,-91.320833)"
       id="text2"
       style="font-style:normal;font-weight:normal;font-size:40px;line-height:1.25;font-family:sans-serif;letter-spacing:-2.99907px;white-space:pre;shape-inside:url(#rect2);display:inline;fill:#4aff02;fill-opacity:1;stroke:#000000;stroke-width:1.49953;stroke-dasharray:none;stroke-opacity:1"
       x="25.531851"
       y="0"><tspan
         x="422.22446"
         y="431.68267"
         id="tspan3"><tspan
           style="font-weight:bold;font-family:'Chalkboard SE';-inkscape-font-specification:'Chalkboard SE, Bold';text-align:center;text-anchor:middle"
           id="tspan1">24</tspan></tspan></text><ellipse
       style="fill:#4aff02;fill-opacity:1;stroke:#000000;stroke-width:0.79375;stroke-linecap:round;stroke-linejoin:round;stroke-dasharray:none;stroke-opacity:1"
       id="path2"
       cx="97.870224"
       cy="88.031128"
       rx="2.0450211"
       ry="1.9270391" /></g></svg>
