<?xml version="1.0" encoding="UTF-8" standalone="no"?>
<!-- Created with Inkscape (http://www.inkscape.org/) -->

<svg
   width="100mm"
   height="100mm"
   viewBox="0 0 100 100"
   version="1.1"
   id="svg1"
   xml:space="preserve"
   inkscape:version="1.3.2 (091e20e, 2023-11-25)"
   sodipodi:docname="sequoia-unstroked.svg"
   inkscape:export-filename="sequoia-15.png"
   inkscape:export-xdpi="101.6"
   inkscape:export-ydpi="101.6"
   xmlns:inkscape="http://www.inkscape.org/namespaces/inkscape"
   xmlns:sodipodi="http://sodipodi.sourceforge.net/DTD/sodipodi-0.dtd"
   xmlns:xlink="http://www.w3.org/1999/xlink"
   xmlns="http://www.w3.org/2000/svg"
   xmlns:svg="http://www.w3.org/2000/svg"><sodipodi:namedview
     id="namedview1"
     pagecolor="#ffffff"
     bordercolor="#666666"
     borderopacity="1.0"
     inkscape:showpageshadow="2"
     inkscape:pageopacity="0.0"
     inkscape:pagecheckerboard="0"
     inkscape:deskcolor="#d1d1d1"
     inkscape:document-units="mm"
     inkscape:zoom="0.40685668"
     inkscape:cx="294.94416"
     inkscape:cy="120.43553"
     inkscape:window-width="1472"
     inkscape:window-height="821"
     inkscape:window-x="0"
     inkscape:window-y="25"
     inkscape:window-maximized="0"
     inkscape:current-layer="layer1" /><defs
     id="defs1"><linearGradient
       id="linearGradient21"
       inkscape:collect="always"><stop
         style="stop-color:#fcff92;stop-opacity:1;"
         offset="0"
         id="stop21" /><stop
         style="stop-color:#d7e700;stop-opacity:1;"
         offset="1"
         id="stop22" /></linearGradient><rect
       x="90.372345"
       y="299.65567"
       width="551.74695"
       height="304.41211"
       id="rect1" /><rect
       x="393.50732"
       y="395.189"
       width="102.47989"
       height="47.156528"
       id="rect2" /><linearGradient
       inkscape:collect="always"
       xlink:href="#linearGradient21"
       id="linearGradient22"
       x1="53.285381"
       y1="118.78874"
       x2="100.39478"
       y2="143.70526"
       gradientUnits="userSpaceOnUse"
       gradientTransform="translate(-6.1779532,-1.3006218)" /><inkscape:path-effect
       effect="spiro"
       id="path-effect4140"
       is_visible="true" /></defs><g
     inkscape:label="Layer 1"
     inkscape:groupmode="layer"
     id="layer1"
     transform="translate(-24.448637,-78.299377)"><ellipse
       style="fill:url(#linearGradient22);stroke:#000000;stroke-width:1.05833;stroke-linecap:round;stroke-linejoin:round;stroke-dasharray:none;stroke-opacity:1"
       id="path21"
       cx="70.439659"
       cy="131.28119"
       rx="28.142324"
       ry="27.141214" /><path
       style="font-size:80px;line-height:1.25;font-family:'Academy Engraved LET';-inkscape-font-specification:'Academy Engraved LET, Normal';letter-spacing:0px;white-space:pre"
       d="m 123.84961,322.7698 2.26562,13.00782 h -3.32812 c -0.70313,-2.34375 -1.37176,-4.20366 -2.07031,-5.54688 -1.92773,-3.7068 -6.77995,-6.0509 -10.89063,-6.125 -4.12277,-0.0743 -7.98123,3.59999 -7.76562,6.32031 0.38744,4.8882 1.51274,6.97539 5.46093,9.0625 1.40625,0.67709 3.59375,1.64063 6.5625,2.89063 2.03125,0.80729 3.75,1.53646 5.15625,2.1875 1.40625,0.65104 2.53907,1.23698 3.39844,1.75781 0.85937,0.52083 1.71875,1.11979 2.57813,1.79688 3.61979,2.91667 5.42968,6.73177 5.42968,11.44531 0,3.09896 -0.84635,5.89844 -2.53906,8.39844 -1.69271,2.5 -4.03646,4.46614 -7.03125,5.89843 -2.99479,1.40625 -6.31511,2.10938 -9.96094,2.10938 -2.52604,0 -5.44271,-0.3776 -8.75,-1.13281 -1.95312,-0.46875 -4.518225,-1.30209 -7.695308,-2.5 l -1.09375,-0.39063 -1.171875,-14.80469 h 1.171875 c 1.406445,6.22111 8.901948,13.43054 17.539058,14.79688 2.34068,0.37028 5.13502,0.003 6.95794,-0.88221 2.47105,-1.88912 5.00281,-3.26121 5.22956,-7.58654 0,-1.79687 -0.40364,-3.41146 -1.21093,-4.84375 -0.80729,-1.45833 -2.1224,-2.82552 -3.94532,-4.10156 -1.82291,-1.30209 -4.32291,-2.63021 -7.5,-3.98438 -4.60937,-2.00521 -7.40885,-3.28125 -8.39843,-3.82812 -1.90104,-1.06771 -3.476566,-2.22657 -4.726566,-3.47657 -1.25,-1.25 -2.174479,-2.60417 -2.773437,-4.0625 -0.598959,-1.45833 -0.898438,-3.02083 -0.898438,-4.6875 0,-2.57812 0.677083,-4.93489 2.03125,-7.07031 1.380209,-2.13541 3.255209,-3.8151 5.625001,-5.03906 2.39583,-1.22396 5.03906,-1.83594 7.92969,-1.83594 1.82291,0 3.85416,0.29948 6.09375,0.89844 l 2.34375,0.625 c 1.74479,0.46875 3.60676,0.70312 5.58593,0.70312 z m -2.96875,48.82813 c 4.29687,-3.09896 6.44531,-6.82292 6.44531,-11.17188 0,-1.71875 -0.36458,-3.38541 -1.09375,-5 -0.70313,-1.64062 -1.71875,-3.03385 -3.04687,-4.17968 -1.92709,-1.74479 -5.32553,-3.63282 -10.19532,-5.66407 -4.03645,-1.71875 -6.66666,-2.8776 -7.89062,-3.47656 -1.19792,-0.59896 -2.42188,-1.40625 -3.67188,-2.42187 -2.604164,-2.08333 -3.906246,-4.71354 -3.906246,-7.89063 -1.613014,-2.4348 -0.642909,-2.67491 1.25,-4.76562 0.416667,-0.72917 1.106772,-1.69271 2.070316,-2.89063 -3.723961,2.68229 -5.585941,6.02865 -5.585941,10.03906 0,3.85417 1.510417,6.90104 4.53125,9.14063 1.588541,1.19791 3.411461,2.26562 5.468751,3.20312 0.26041,0.13021 2.26562,1.01563 6.01562,2.65625 4.53125,1.95313 7.65625,3.72396 9.375,5.3125 2.73438,2.52605 4.10157,5.50782 4.10157,8.94532 0,1.66667 -0.3125,3.15104 -0.9375,4.45312 -0.59896,1.27604 -1.57552,2.51302 -2.92969,3.71094 z m -26.054688,-1.52344 c 1.71875,0.98959 3.906249,1.94011 6.562498,2.85156 -1.744791,-1.5625 -3.072915,-2.85156 -3.984373,-3.86718 -0.885417,-1.01563 -1.901042,-2.44792 -3.046875,-4.29688 z m 48.821658,-11.39844 c -0.14328,5.35845 0.32322,6.79217 4.49865,10.41407 1.69271,1.27604 4.51856,1.91915 6.77833,1.7564 4.85425,-0.28503 5.85077,-4.24087 8.37011,-7.38922 l 2.78125,5.05469 c -2.68229,2.60417 -5.23438,4.46615 -7.65625,5.58594 -2.39583,1.11979 -5.07812,1.67969 -8.04687,1.67969 -3.09896,0 -5.88542,-0.67708 -8.35938,-2.03125 -2.44791,-1.35417 -4.34895,-3.26823 -5.70312,-5.74219 -1.35417,-2.47396 -2.03125,-5.26042 -2.03125,-8.35938 0,-3.25521 0.74219,-6.23698 2.22656,-8.94531 1.51041,-2.70833 3.55468,-4.83073 6.13281,-6.36719 2.60417,-1.53645 5.50781,-2.30468 8.71094,-2.30468 2.73437,0 5.23437,0.55989 7.5,1.67968 2.29167,1.11979 4.07552,2.69532 5.35156,4.72657 1.35417,2.08333 2.62962,4.74979 2.26563,10.24218 z m 0.10814,-3.41973 13.79311,0.1051 c 0.11785,-5.17087 -1.85632,-9.41569 -6.59151,-9.52226 -4.15829,-0.0936 -6.8905,2.73616 -7.2016,9.41716 z m 8.29676,19.34942 c -1.84895,-0.23437 -3.33333,-0.58594 -4.45312,-1.05469 -1.11979,-0.46875 -2.21354,-1.19791 -3.28125,-2.1875 -1.58854,-1.45833 -2.82552,-3.37239 -3.71094,-5.74218 -0.88541,-2.39583 -1.32812,-5 -1.32812,-7.8125 0,-1.95313 0.18229,-3.75 0.54687,-5.39063 0.39063,-1.64063 0.97656,-3.11198 1.75781,-4.41406 0.80729,-1.30209 1.88802,-2.53907 3.24219,-3.71094 -2.96875,1.61459 -5.24739,3.75 -6.83594,6.40625 -1.58854,2.65625 -2.38281,5.625 -2.38281,8.90625 0,2.8125 0.63802,5.3776 1.91406,7.69531 1.27605,2.29167 3.04688,4.08854 5.3125,5.39063 2.29167,1.30208 4.81771,1.95312 7.57813,1.95312 0.625,0 1.17187,-0.013 1.64062,-0.0391 z m 11.17188,-19.29687 c -0.0781,-1.92709 -0.42969,-3.67188 -1.05469,-5.23438 -0.625,-1.5625 -1.4974,-2.8776 -2.61719,-3.94531 -1.09375,-1.09375 -2.39583,-1.875 -3.90625,-2.34375 1.51042,1.19791 2.59115,2.61718 3.24219,4.25781 0.67709,1.64063 1.01563,3.69792 1.01563,6.17188 0,0.41667 -0.013,0.78125 -0.0391,1.09375 z m 33.94531,15.78125 -0.23437,0.15625 c -3.48959,2.94271 -7.13542,4.41406 -10.9375,4.41406 -2.83855,0 -5.42969,-0.66406 -7.77344,-1.99219 -2.34375,-1.35417 -4.19271,-3.21615 -5.54688,-5.58594 -1.32812,-2.39583 -1.99218,-5.01302 -1.99218,-7.85156 0,-3.15104 0.76823,-6.11979 2.30468,-8.90625 1.5625,-2.78646 3.65886,-5.01302 6.28907,-6.67969 2.63021,-1.66667 5.42968,-2.5 8.39843,-2.5 3.61979,0 7.04427,1.38021 10.27344,4.14063 l 6.05469,-4.0625 h 1.13281 v 42.88281 c 0,2.16146 0.3125,3.69792 0.9375,4.60938 0.65104,0.91145 1.86198,1.52343 3.63281,1.83593 v 3.05469 H 191.7793 v -3.05469 c 2.08333,-0.3125 3.5026,-0.92448 4.25781,-1.83593 0.75521,-0.88542 1.13281,-2.42188 1.13281,-4.60938 z m 0,-23.24219 0.25441,2.32873 c -1.5663,-2.17549 -3.53566,-2.9329 -4.94191,-3.60998 -1.40625,-0.67709 -2.74739,-1.01563 -4.02344,-1.01563 -1.84895,0 -3.48958,0.61198 -4.92187,1.83594 -1.43229,1.19792 -2.53906,2.91667 -3.32031,5.15625 -0.78125,2.21354 -1.17188,2.83073 -1.17188,5.85156 -0.18167,4.75576 0.64598,7.59597 3.1897,10.3113 1.28632,1.3731 4.2452,2.76683 5.98999,2.76683 1.40625,0 2.89062,-0.45573 4.45312,-1.36719 1.5625,-0.9375 3.0599,-2.20052 4.49219,-3.78906 z m -0.70312,45.03906 h 7.8125 l -0.9375,-0.70312 c 0.0521,0 -2e-5,-0.0391 -0.15625,-0.11719 l -0.50782,-0.39063 c -0.36458,-0.36458 -0.55989,-0.85937 -0.58593,-1.48437 v -0.78125 -0.39063 -43.90625 l -3.59375,2.34375 v 41.5625 c 0,1.06771 -0.0521,1.73178 -0.15625,1.99219 -0.10417,0.26042 -0.41667,0.61198 -0.9375,1.05469 -0.0261,0.0781 -0.0651,0.11719 -0.11719,0.11719 z m -12.53907,-18.39844 c -0.98958,-0.54687 -1.82291,-1.06771 -2.5,-1.5625 -0.65104,-0.49479 -1.22396,-0.98958 -1.71875,-1.48437 -0.46875,-0.52083 -0.96354,-1.19792 -1.48437,-2.03125 -1.79687,-2.83854 -2.69531,-6.19792 -2.69531,-10.07813 0,-2.05729 0.20833,-3.90624 0.625,-5.54687 0.44271,-1.66667 1.13281,-3.25521 2.07031,-4.76563 0.9375,-1.53645 2.1875,-3.08593 3.75,-4.64843 -6.61459,3.95833 -9.92188,9.24479 -9.92188,15.85937 0,2.42187 0.46875,4.60937 1.40625,6.5625 0.96355,1.95313 2.31771,3.58073 4.0625,4.88281 1.77083,1.27605 3.90625,2.21355 6.40625,2.8125 z m 55.46875,-6.52343 c -2.21354,2.76041 -4.33593,4.7526 -6.36718,5.97656 -2.03125,1.19791 -4.23178,1.79687 -6.60157,1.79687 -2.08333,0 -3.95833,-0.45573 -5.625,-1.36718 -1.64062,-0.9375 -2.92968,-2.21354 -3.86718,-3.82813 -0.96355,-1.66667 -1.44532,-4.0625 -1.44532,-7.1875 v -12.38281 c 0,-2.16146 -0.32552,-3.71094 -0.97656,-4.64844 -0.65104,-0.9375 -1.84896,-1.53646 -3.59375,-1.79687 v -0.85938 l 12.57813,-1.44531 v 19.36719 c 0,4.04715 0.25764,9.28457 5.35156,9.6875 3.86264,0 6.87568,-2.98425 10.54687,-7.34375 v -12.96094 c 0,-2.16146 -0.32552,-3.71094 -0.97656,-4.64844 -0.65104,-0.9375 -1.84896,-1.53646 -3.59375,-1.79687 v -0.85938 l 12.57813,-1.44531 v 25.15625 c 0,2.16146 0.3125,3.69792 0.9375,4.60937 0.65104,0.91146 1.86198,1.52344 3.63281,1.83594 v 1.05469 h -12.57813 z m 1.32813,5.19531 h 5.78125 l -0.89844,-0.70313 -0.0781,-0.0391 c -0.0261,-0.0521 -0.0521,-0.0781 -0.0781,-0.0781 l -0.50781,-0.39063 c -0.39063,-0.39063 -0.58594,-0.88542 -0.58594,-1.48437 v -0.78125 l -0.0391,-0.39063 v -25.42969 l -6.40625,0.70313 1.5625,1.09375 c 0.0261,0 0.0391,0.013 0.0391,0.0391 0.0261,0 0.0651,0.026 0.11719,0.0781 l 0.50781,0.39062 c 0.23437,0.15625 0.39062,0.39063 0.46875,0.70313 0.0781,0.3125 0.11719,0.96354 0.11719,1.95312 z m -20.3125,-29.33594 -6.40625,0.74219 1.5625,1.09375 c 0.0261,0 0.0391,0.013 0.0391,0.0391 0.0261,0 0.0651,0.026 0.11719,0.0781 l 0.50781,0.39062 c 0.23437,0.15625 0.39062,0.39063 0.46875,0.70313 0.0781,0.3125 0.11719,0.96354 0.11719,1.95312 v 14.57031 c 0,1.84896 0.16927,3.38542 0.50781,4.60938 0.33854,1.19791 0.88542,2.27864 1.64063,3.24219 0.96354,1.11979 2.00521,1.97916 3.125,2.57812 1.14583,0.59896 2.2526,0.89844 3.32031,0.89844 0.0781,0 0.45573,-0.026 1.13281,-0.0781 -1.5625,-0.23437 -2.78646,-0.72916 -3.67187,-1.48437 -0.85938,-0.78125 -1.48438,-1.91407 -1.875,-3.39844 -0.39063,-1.51041 -0.58594,-3.55468 -0.58594,-6.13281 z m 33.07812,15.03906 c 0,-3.02083 0.80729,-5.82031 2.42188,-8.39843 1.64063,-2.60417 3.84115,-4.64844 6.60156,-6.13282 2.78646,-1.51041 7.83334,-2.26562 11.14063,-2.26562 2.47395,0 6.80468,0.42969 8.99218,1.28906 2.1875,0.83333 4.11458,2.03125 5.78125,3.59375 1.66667,1.53646 2.95573,3.34636 3.86719,5.42969 0.9375,2.05729 1.40625,4.21875 1.40625,6.48437 0,2.99479 -0.80729,5.79427 -2.42187,8.39844 -1.58855,2.60417 -3.77605,4.66146 -6.5625,6.17188 -2.76042,1.48437 -7.76823,2.22656 -11.02344,2.22656 -3.30729,0 -8.35417,-0.74219 -11.14063,-2.22656 -2.78645,-1.48438 -4.99999,-3.51563 -6.64062,-6.09375 -1.61459,-2.60417 -2.42188,-5.42969 -2.42188,-8.47657 z m 10.55469,-0.23437 c 0,2.26563 0.22135,4.34896 0.66406,6.25 1.51329,3.53877 4.96973,6.81868 8.94532,7.0625 3.67799,-0.19478 7.70128,-3.5061 8.82812,-7.0625 0.46875,-1.92709 0.70313,-4.01042 0.70313,-6.25 0.18305,-4.84591 -0.76749,-8.53302 -4.57032,-11.35938 -1.43229,-1.27604 -3.09895,-1.91406 -5,-1.91406 -2.89062,0 -5.20833,1.40625 -6.95312,4.21875 -1.74479,2.8125 -2.61719,4.4974 -2.61719,9.05469 z m 3.00781,14.80469 c -1.25,-0.98959 -2.10937,-1.71875 -2.57812,-2.1875 -0.44271,-0.49479 -0.92448,-1.14584 -1.44531,-1.95313 -1.66667,-2.70833 -2.5,-6.19792 -2.5,-10.46875 0,-7.08333 2.40885,-12.05729 7.22656,-14.92187 -2.1875,0.80729 -4.11458,1.97916 -5.78125,3.51562 -1.64063,1.53646 -2.91667,3.28125 -3.82813,5.23438 -0.88541,1.95312 -1.32812,4.02343 -1.32812,6.21093 0,2.13542 0.44271,4.19271 1.32812,6.17188 0.88542,1.97917 2.1224,3.6849 3.71094,5.11719 0.85937,0.70312 1.54948,1.22395 2.07031,1.5625 0.52083,0.33854 1.5625,0.91146 3.125,1.71875 z m 10.54688,0.625 c 3.4375,-1.51042 6.05469,-3.56771 7.85156,-6.17188 1.82292,-2.63021 2.73438,-5.63802 2.73438,-9.02344 0,-3.46354 -0.88542,-6.54948 -2.65625,-9.25781 -1.74479,-2.70833 -4.07552,-4.6224 -6.99219,-5.74219 3.98437,2.91667 5.97656,7.87761 5.97656,14.88282 0,3.54167 -0.50781,6.49739 -1.52344,8.86718 -0.98958,2.36979 -2.57812,4.36198 -4.76562,5.97657 z m 18.16406,0.82031 v -1.05469 c 1.77083,-0.3125 2.98177,-0.91146 3.63281,-1.79687 0.65105,-0.91146 0.97657,-2.46094 0.97657,-4.64844 v -16.40625 c 0,-2.1875 -0.33854,-3.73698 -1.01563,-4.64844 -0.65104,-0.9375 -1.84896,-1.53646 -3.59375,-1.79687 v -0.85938 l 12.57813,-1.44531 v 25.15625 c 0,2.16146 0.3125,3.69792 0.9375,4.60937 0.65104,0.91146 1.86198,1.52344 3.63281,1.83594 v 1.05469 z m 3.55469,-43.32031 c 0,-1.30209 0.44271,-2.40886 1.32812,-3.32032 0.88542,-0.91145 1.99219,-1.36718 3.32032,-1.36718 1.32812,0 2.43489,0.45573 3.32031,1.36718 0.88541,0.91146 1.32812,2.01823 1.32812,3.32032 0,1.32812 -0.44271,2.43489 -1.32812,3.32031 -0.88542,0.88541 -1.99219,1.32812 -3.32031,1.32812 -1.32813,0 -2.4349,-0.44271 -3.32032,-1.32812 -0.88541,-0.88542 -1.32812,-1.99219 -1.32812,-3.32031 z m 0.35156,41.60156 h 7.8125 l -0.9375,-0.70313 c -0.0521,-0.0521 -0.10415,-0.0911 -0.15625,-0.11718 l -0.50781,-0.39063 c -0.36459,-0.36458 -0.5599,-0.85937 -0.58594,-1.48437 v -0.78125 -0.39063 -25.42969 l -6.40625,0.70313 1.52344,1.09375 c 0.0261,0 0.0781,0.0391 0.15625,0.11719 l 0.50781,0.39062 c 0.26042,0.18229 0.42969,0.45573 0.50781,0.82031 0.0781,0.33855 0.11719,0.95053 0.11719,1.83594 v 20.46875 c 0,1.06771 -0.0521,1.73177 -0.15625,1.99219 -0.10417,0.26041 -0.41667,0.61198 -0.9375,1.05469 l -0.0781,0.0391 c -0.0261,0.0261 -0.0391,0.0521 -0.0391,0.0781 z m 4.10156,-45.23438 c -0.91145,0.0521 -1.70572,0.44269 -2.38281,1.17188 -0.65104,0.70313 -0.97656,1.52344 -0.97656,2.46094 0,0.9375 0.33854,1.77083 1.01562,2.5 0.67709,0.72917 1.45834,1.09375 2.34375,1.09375 0.57292,0 0.85938,-0.29948 0.85938,-0.89844 0.0261,-0.46875 0.0391,-1.41927 0.0391,-2.85156 0,-1.38021 -0.013,-2.26563 -0.0391,-2.65625 -0.0261,-0.52083 -0.31253,-0.79427 -0.85938,-0.82032 z m 32.53907,43.32032 c -3.20313,2.70833 -6.64063,4.0625 -10.3125,4.0625 -2.94271,0 -5.29949,-0.75521 -7.07032,-2.26563 -1.74479,-1.53646 -2.61718,-3.54167 -2.61718,-6.01562 0,-3.51563 1.71875,-6.27604 5.15625,-8.28125 3.4375,-2.00521 8.38542,-3.13803 14.84375,-3.39844 v -1.09375 -0.54688 c 0,-2.03125 -0.0911,-3.68489 -0.27344,-4.96093 -0.18229,-1.30209 -0.44271,-2.27865 -0.78125,-2.92969 -0.39063,-0.75521 -0.95052,-1.35417 -1.67969,-1.79688 -0.70313,-0.46875 -1.47136,-0.70312 -2.30469,-0.70312 -1.22395,0 -2.18749,0.40365 -2.89062,1.21094 -0.70313,0.78125 -1.14584,2.0052 -1.32813,3.67187 -0.20833,1.64063 -0.54687,2.76042 -1.01562,3.35938 -0.46875,0.57291 -1.27605,0.85937 -2.42188,0.85937 -0.88541,0 -1.6276,-0.3125 -2.22656,-0.9375 -0.59896,-0.625 -0.89844,-1.43229 -0.89844,-2.42187 0,-1.32813 0.48177,-2.52604 1.44532,-3.59375 0.96354,-1.09375 2.29166,-1.95313 3.98437,-2.57813 1.71875,-0.625 3.59375,-0.9375 5.625,-0.9375 2.63021,0 4.93489,0.53385 6.91406,1.60156 1.97917,1.04167 3.45052,2.5 4.41407,4.375 0.52083,0.96355 0.88542,2.04428 1.09375,3.24219 0.23437,1.19792 0.35156,2.85157 0.35156,4.96094 v 11.25 c 0,2.16146 0.3125,3.69792 0.9375,4.60937 0.65104,0.91146 1.86198,1.52344 3.63281,1.83594 v 1.05469 h -12.57812 z m 0,-1.71875 v -12.92969 c -2.52605,0.39063 -4.70053,1.04167 -6.52344,1.95312 -1.79687,0.91146 -3.17708,2.07032 -4.14063,3.47657 -0.96354,1.40625 -1.44531,2.95572 -1.44531,4.64843 0,1.71875 0.50781,3.15105 1.52344,4.29688 1.04167,1.11979 2.34375,1.67969 3.90625,1.67969 1.92708,0 4.15364,-1.04167 6.67969,-3.125 z m 1.32812,3.63281 h 5.78125 l -0.89844,-0.70313 -0.0781,-0.0391 c -0.0261,-0.0521 -0.0521,-0.0781 -0.0781,-0.0781 l -0.50781,-0.39063 c -0.39063,-0.39063 -0.58594,-0.88542 -0.58594,-1.48437 v -0.78125 l -0.0391,-0.39063 v -13.28125 c 0,-3.61979 -0.41667,-6.32813 -1.25,-8.125 -1.17187,-2.39583 -3.00781,-3.93229 -5.50781,-4.60937 1.66667,1.17187 2.64323,3.03385 2.92969,5.58593 0.15625,1.5625 0.23437,3.98438 0.23437,7.26563 z m -9.92187,1.05469 c -4.42709,-0.91146 -6.64063,-3.33334 -6.64063,-7.26563 0,-2.55208 1.02865,-4.73958 3.08594,-6.5625 0.91146,-0.80729 2.66927,-1.83594 5.27344,-3.08594 -3.15105,0.59896 -5.59896,1.41927 -7.34375,2.46094 -2.96875,1.82292 -4.45313,4.23177 -4.45313,7.22656 0,2.16146 0.78125,3.91927 2.34375,5.27344 1.58854,1.32813 3.63281,1.99219 6.13281,1.99219 0.59896,0 1.13282,-0.013 1.60157,-0.0391 z m 0,-30.85938 c -1.82292,0.46875 -3.29428,1.23698 -4.41407,2.30469 -1.09375,1.04167 -1.64062,2.21354 -1.64062,3.51562 0,0.49479 0.11719,0.88542 0.35156,1.17188 0.23437,0.28646 0.54687,0.42969 0.9375,0.42969 0.36459,0 0.63802,-0.10417 0.82031,-0.3125 0.18229,-0.23438 0.33854,-0.69011 0.46875,-1.36719 0.28646,-1.45833 0.65104,-2.55208 1.09375,-3.28125 0.46875,-0.75521 1.26303,-1.57552 2.38282,-2.46094 z"
       id="text1"
       transform="matrix(0.26458333,0,0,0.26458333,3.7041668,3.7041668)"
       aria-label="Sequoia"
       sodipodi:nodetypes="cccsssccsscsscscccccscsccccsssccsccsccscccccsccsccccscccccccccscccscssccsccccccsccsccscccssccscccscccsccccsccscsscccsccccccscccssccssscccccccccccccsscccccccscccscccccsccssscccsscsscccscccccccccccsccccccccsccccccccssscccscccccsccscccsccsscsscscscssscccscccsscscccsccsccccccssccccsccccsssssssssccccccccccccccsssccccccssscscccscssccscccscccsssccscccssccccccccsscscccccccsccscccscsscccscsssccssscccc" /><text
       xml:space="preserve"
       transform="matrix(0.85867594,0,0,0.95925253,-312.78969,-270.21147)"
       id="text2"
       style="font-style:normal;font-weight:normal;font-size:40px;line-height:1.25;font-family:sans-serif;letter-spacing:-2.99907px;white-space:pre;shape-inside:url(#rect2);display:inline;fill:#02b2ff;fill-opacity:1;stroke:#000000;stroke-width:1.16611;stroke-dasharray:none;stroke-opacity:1"
       x="25.531851"
       y="0"><tspan
         x="421.71619"
         y="431.68267"
         id="tspan3"><tspan
           style="font-weight:bold;font-family:'Chalkboard SE';-inkscape-font-specification:'Chalkboard SE, Bold';text-align:center;text-anchor:middle"
           id="tspan1">15</tspan></tspan></text><path
       style="fill:#02b2ff;fill-opacity:1;stroke:#000000;stroke-width:1.18911;stroke-linecap:round;stroke-linejoin:round;stroke-dasharray:none;stroke-opacity:1"
       d=""
       id="path2"
       transform="matrix(0.26458333,0,0,0.26458333,24.448637,78.299377)" /><path
       style="fill:#02b2ff;fill-opacity:1;stroke:#000000;stroke-width:1.18911;stroke-linecap:round;stroke-linejoin:round;stroke-dasharray:none;stroke-opacity:1"
       d="m 58.101906,82.494495 c -0.510205,-1.501375 -0.653803,-2.59527 -0.6439,-4.905078 0.01491,-3.478354 0.653582,-5.87082 2.301385,-8.621046 0.997208,-1.664367 2.029171,-5.729148 8.289343,-6.79694 -3.128111,1.430465 -13.698613,23.861152 6.925472,29.613316 -6.043296,2.399939 -13.825024,-1.431951 -16.8723,-9.290252 z"
       id="path3"
       transform="matrix(0.26458333,0,0,0.26458333,24.448637,78.299377)"
       sodipodi:nodetypes="sssccs" /><path
       style="fill:#02b2ff;fill-opacity:1;stroke:#000000;stroke-width:1.18911;stroke-linecap:round;stroke-linejoin:round;stroke-dasharray:none;stroke-opacity:1"
       d="m 43.282418,89.369036 c 3.440183,-5.977533 3.254237,-12.384885 -0.08967,-15.959534 -2.291886,-2.450034 -3.92942,-3.424849 -11.734479,-6.98547 -7.409421,-3.380134 -9.151393,-4.363265 -11.151648,-6.293744 -2.065835,-1.993772 -3.001998,-4.181138 -3.151495,-7.363539 -0.09653,-2.054813 -5.01e-4,-2.840342 0.51403,-4.204937 0.618104,-1.639283 2.186562,-6.766218 7.356251,-7.208734 -4.196934,4.436507 -3.262459,10.08793 -2.180765,13.437971 0.894086,2.769012 3.307616,3.819581 10.261697,6.870346 7.529575,3.303236 10.62168,4.61677 12.812644,6.686393 3.806419,3.595611 3.852571,10.741242 1.507908,15.506083 -0.869599,1.767207 -4.900059,6.828047 -4.14447,5.515165 z"
       id="path4"
       transform="matrix(0.26458333,0,0,0.26458333,24.448637,78.299377)"
       sodipodi:nodetypes="sssssscssssss" /><path
       style="fill:#02b2ff;fill-opacity:1;stroke:#000000;stroke-width:1.18911;stroke-linecap:round;stroke-linejoin:round;stroke-dasharray:none;stroke-opacity:1"
       d=""
       id="path5"
       transform="matrix(0.26458333,0,0,0.26458333,24.448637,78.299377)" /><path
       style="fill:#02b2ff;fill-opacity:1;stroke:#000000;stroke-width:1.18911;stroke-linecap:round;stroke-linejoin:round;stroke-dasharray:none;stroke-opacity:1"
       d="M 100.67048,90.493758 C 93.722778,86.094626 91.657237,76.710732 96.535623,69.172266 97.613046,67.507347 99.89284,63.497933 105.15761,61.851 c -3.70449,4.172681 -6.378871,9.542203 -6.455885,15.327381 -0.196649,6.749038 3.763225,11.047539 10.788785,14.583697 -5.17719,1.351293 -6.86312,-0.02925 -8.82003,-1.26832 z"
       id="path6"
       transform="matrix(0.26458333,0,0,0.26458333,24.448637,78.299377)"
       sodipodi:nodetypes="sscscs" /><path
       style="fill:#02b2ff;fill-opacity:1;stroke:#000000;stroke-width:1.18911;stroke-linecap:round;stroke-linejoin:round;stroke-dasharray:none;stroke-opacity:1"
       d="m 119.44992,109.90207 0.79881,-0.83378 V 87.351076 65.633857 l 1.63503,-1.085596 2.60117,-1.82879 0.14864,23.539466 v 22.721953 l 0.76962,0.91464 0.76962,0.91464 -4.31824,-0.0743 h -3.20346 z"
       id="path7"
       transform="matrix(0.26458333,0,0,0.26458333,24.448637,78.299377)"
       sodipodi:nodetypes="ccccccccccccc" /><path
       style="fill:#02b2ff;fill-opacity:1;stroke:#000000;stroke-width:1.18911;stroke-linecap:round;stroke-linejoin:round;stroke-dasharray:none;stroke-opacity:1"
       d="m 143.42026,91.451465 c -1.82758,-1.179803 -3.10145,-2.597628 -3.90758,-4.349169 -0.66118,-1.436573 -0.68982,-1.840068 -0.85466,-12.039737 -0.0938,-5.804343 -0.19414,-10.575221 -0.22296,-10.601952 -0.0288,-0.02673 -0.59006,-0.444002 -1.2472,-0.927269 l -1.19481,-0.878667 2.45823,-0.203272 c 1.35203,-0.111799 2.98962,-0.346405 3.79598,-0.579151 0.48997,-0.141422 0.92152,0.770827 0.7432,11.817897 -0.22869,14.167699 1.25992,16.4237 8.63328,17.577988 -3.92081,2.223462 -6.54883,1.251503 -8.20348,0.18333 z"
       id="path8"
       transform="matrix(0.26458333,0,0,0.26458333,24.448637,78.299377)"
       sodipodi:nodetypes="ssssscssscss" /><path
       style="fill:#02b2ff;fill-opacity:1;stroke:#000000;stroke-width:1.18911;stroke-linecap:round;stroke-linejoin:round;stroke-dasharray:none;stroke-opacity:1"
       d="M 162.46213,77.911349 V 64.707157 l -1.22148,-1.014628 -1.22147,-1.014627 2.8565,-0.276573 4.41721,-0.350891 -0.0743,13.855886 -0.15526,13.484289 0.92327,0.862464 0.92328,0.862464 h -2.5583 -3.88943 z"
       id="path9"
       transform="matrix(0.26458333,0,0,0.26458333,24.448637,78.299377)"
       sodipodi:nodetypes="ccccccccccccc" /><path
       style="fill:#02b2ff;fill-opacity:1;stroke:#000000;stroke-width:1.18911;stroke-linecap:round;stroke-linejoin:round;stroke-dasharray:none;stroke-opacity:1"
       d="m 189.49887,62.154945 c -0.75748,2.441985 -6.04272,5.194038 -5.3962,15.733459 -0.282,6.402835 2.38325,8.351138 5.91329,13.527509 -15.35643,-1.904654 -18.16093,-25.006358 -0.51709,-29.260968 z"
       id="path10"
       transform="matrix(0.26458333,0,0,0.26458333,24.448637,78.299377)"
       sodipodi:nodetypes="cccc" /><path
       style="fill:#02b2ff;fill-opacity:1;stroke:#000000;stroke-width:1.18911;stroke-linecap:round;stroke-linejoin:round;stroke-dasharray:none;stroke-opacity:1"
       d="m 199.37244,91.902706 c 5.18138,-4.360998 6.77267,-9.311621 6.72102,-16.365111 -0.10439,-3.685458 -0.59612,-7.325475 -2.9388,-10.744254 -0.62619,-0.893062 -5.5958,-5.201301 -0.86505,-1.621881 0.4101,0.310293 6.6053,2.549061 8.28759,5.263111 4.14662,6.689792 3.51169,13.95798 -3.79497,20.650272 -1.81735,1.664535 -5.05914,2.88198 -7.40979,2.817863 z"
       id="path11"
       transform="matrix(0.26458333,0,0,0.26458333,24.448637,78.299377)"
       sodipodi:nodetypes="csssssc" /><path
       style="fill:#02b2ff;fill-opacity:1;stroke:#000000;stroke-width:1.18911;stroke-linecap:round;stroke-linejoin:round;stroke-dasharray:none;stroke-opacity:1"
       d="m 222.6052,90.281762 0.79881,-0.83378 V 77.066923 64.685865 l -1.22299,-0.980161 -1.22298,-0.98016 2.78369,-0.297277 4.78369,-0.297278 0.14864,13.777482 0.14864,13.777481 0.89183,0.713318 0.89184,0.713318 -5.39999,0.0015 -3.39999,0.0015 z"
       id="path12"
       transform="matrix(0.26458333,0,0,0.26458333,24.448637,78.299377)"
       sodipodi:nodetypes="ccccccccccccccc" /><path
       style="fill:#02b2ff;fill-opacity:1;stroke:#000000;stroke-width:1.18911;stroke-linecap:round;stroke-linejoin:round;stroke-dasharray:none;stroke-opacity:1"
       d=""
       id="path13"
       transform="matrix(0.26458333,0,0,0.26458333,24.448637,78.299377)" /><path
       style="fill:#02b2ff;fill-opacity:1;stroke:#000000;stroke-width:1.18911;stroke-linecap:round;stroke-linejoin:round;stroke-dasharray:none;stroke-opacity:1"
       d=""
       id="path14"
       transform="matrix(0.26458333,0,0,0.26458333,24.448637,78.299377)" /><path
       style="fill:#02b2ff;fill-opacity:1;stroke:#000000;stroke-width:1.18911;stroke-linecap:round;stroke-linejoin:round;stroke-dasharray:none;stroke-opacity:1"
       d="m 223.92798,52.604641 c -0.94307,-0.518626 -1.71308,-1.848788 -1.71308,-2.959305 0,-1.698187 1.6947,-3.557717 3.06468,-3.362744 0.62511,0.08897 0.65129,0.224123 0.65129,3.362744 0,3.049071 -0.0402,3.274673 -0.59456,3.338438 -0.327,0.03761 -0.96075,-0.132998 -1.40833,-0.379133 z"
       id="path15"
       transform="matrix(0.26458333,0,0,0.26458333,24.448637,78.299377)" /><path
       style="fill:#02b2ff;fill-opacity:1;stroke:#000000;stroke-width:1.18911;stroke-linecap:round;stroke-linejoin:round;stroke-dasharray:none;stroke-opacity:1"
       d="m 243.94158,91.496917 c -1.62742,-0.57481 -3.69076,-2.592799 -4.18629,-4.094263 -0.47008,-1.424349 -0.24771,-4.460628 0.42145,-5.75464 1.1295,-2.184218 3.72337,-5.367815 10.49437,-6.544557 -3.39479,2.111147 -7.45354,5.498893 -6.52872,11.717317 0.42271,2.58539 2.88935,4.155609 5.66239,5.212875 l -3.5104,-0.06288 c -0.5722,-0.01025 -1.63102,-0.218914 -2.3528,-0.473849 z"
       id="path16"
       transform="matrix(0.26458333,0,0,0.26458333,24.448637,78.299377)"
       sodipodi:nodetypes="ssscscsss" /><path
       style="fill:#02b2ff;fill-opacity:1;stroke:#000000;stroke-width:1.18911;stroke-linecap:round;stroke-linejoin:round;stroke-dasharray:none;stroke-opacity:1"
       d="m 259.36861,79.893317 c -0.006,-11.843566 -0.17647,-14.230832 -1.1554,-16.209415 -0.33285,-0.672756 -2.43182,-2.1818 -2.3521,-2.261524 0.24825,-0.248247 4.3544,1.895258 5.35721,3.201888 1.82573,2.378845 2.47208,3.244981 2.66098,14.703159 l 0.17078,10.359054 0.89184,0.713054 0.89183,0.713055 -2.60118,0.0015 -3.85799,0.0015 z"
       id="path17"
       transform="matrix(0.26458333,0,0,0.26458333,24.448637,78.299377)"
       sodipodi:nodetypes="csssscccccc" /><path
       style="fill:#02b2ff;fill-opacity:1;stroke:#000000;stroke-width:1.18911;stroke-linecap:round;stroke-linejoin:round;stroke-dasharray:none;stroke-opacity:1"
       d="m 243.60955,67.910464 c -0.48953,-0.914685 -0.72807,-2.506137 0.46387,-3.825508 0.99813,-1.104809 1.99712,-2.466416 5.42215,-2.572469 -2.54528,2.572512 -0.77245,5.567088 -3.1023,7.232926 -1.40571,1.005082 -2.38335,-0.08685 -2.78372,-0.834944 z"
       id="path18"
       transform="matrix(0.26458333,0,0,0.26458333,24.448637,78.299377)"
       sodipodi:nodetypes="sscsss" /><path
       style="fill:#02b2ff;fill-opacity:1;stroke:#000000;stroke-width:1.18911;stroke-linecap:round;stroke-linejoin:round;stroke-dasharray:none;stroke-opacity:1"
       d="m 81.521919,70.677716 c -0.168018,-2.589889 -2.106086,-6.777122 -4.079721,-8.860833 4.336238,1.349816 8.635129,6.527366 9.028223,9.871993 l 0.186875,1.590018 h -3.483313 -1.483314 z"
       id="path19"
       transform="matrix(0.26458333,0,0,0.26458333,24.448637,78.299377)"
       sodipodi:nodetypes="scscccs" /><path
       style="fill:#02b2ff;fill-opacity:1;stroke:#000000;stroke-width:1.18911;stroke-linecap:round;stroke-linejoin:round;stroke-dasharray:none;stroke-opacity:1"
       d="M 15.978663,88.997079 C 15.637417,85.90226 15.682232,82.192917 15.490182,79.832842 15.994014,84.590533 25.70177,89.129104 33.575778,92.186984 27.879451,93.260375 18.919106,90.416666 15.978663,88.997079 Z"
       id="path20"
       transform="matrix(0.26458333,0,0,0.26458333,24.448637,78.299377)"
       sodipodi:nodetypes="cccc" /><g
       id="g22"
       transform="matrix(0.25245103,-0.0247907,0.02225115,0.28126351,81.564777,82.155336)"><g
         inkscape:label="Layer 1"
         id="layer1-6"
         transform="translate(-216.57752,-220.24027)"><path
           style="color:#000000;clip-rule:nonzero;display:inline;overflow:visible;visibility:visible;opacity:1;isolation:auto;mix-blend-mode:normal;color-interpolation:sRGB;color-interpolation-filters:linearRGB;solid-color:#000000;solid-opacity:1;fill:#54802a;fill-opacity:1;fill-rule:evenodd;stroke:#000000;stroke-width:2.5;stroke-linecap:butt;stroke-linejoin:miter;stroke-miterlimit:4;stroke-dasharray:none;stroke-dashoffset:0;stroke-opacity:1;color-rendering:auto;image-rendering:auto;shape-rendering:auto;text-rendering:auto;enable-background:accumulate"
           d="m 334.36049,394.24782 19.1929,11.11168 12.67603,-14.05245 -9.64557,-10.19121 -12.12183,-7.57615 -15.15229,11.11168 z"
           id="path4796"
           inkscape:connector-curvature="0"
           sodipodi:nodetypes="ccccccc" /><path
           style="color:#000000;clip-rule:nonzero;display:inline;overflow:visible;visibility:visible;opacity:1;isolation:auto;mix-blend-mode:normal;color-interpolation:sRGB;color-interpolation-filters:linearRGB;solid-color:#000000;solid-opacity:1;fill:#54802a;fill-opacity:1;fill-rule:evenodd;stroke:#000000;stroke-width:2.5;stroke-linecap:butt;stroke-linejoin:miter;stroke-miterlimit:4;stroke-dasharray:none;stroke-dashoffset:0;stroke-opacity:1;color-rendering:auto;image-rendering:auto;shape-rendering:auto;text-rendering:auto;enable-background:accumulate"
           d="m 289.4087,353.84172 12.12183,5.05076 12.62691,-14.14213 21.71828,3.53553 14.14214,26.76904 -14.14214,11.11168 -38.3858,1.01015 -14.64721,-10.6066 z"
           id="path4775"
           inkscape:connector-curvature="0" /><path
           style="color:#000000;clip-rule:nonzero;display:inline;overflow:visible;visibility:visible;opacity:1;isolation:auto;mix-blend-mode:normal;color-interpolation:sRGB;color-interpolation-filters:linearRGB;solid-color:#000000;solid-opacity:1;fill:#619531;fill-opacity:1;fill-rule:evenodd;stroke:#000000;stroke-width:2.5;stroke-linecap:butt;stroke-linejoin:miter;stroke-miterlimit:4;stroke-dasharray:none;stroke-dashoffset:0;stroke-opacity:1;color-rendering:auto;image-rendering:auto;shape-rendering:auto;text-rendering:auto;enable-background:accumulate"
           d="m 284.86302,425.05747 4.54568,-17.17259 23.23351,11.11168 20.20305,-12.12183 10.10153,18.18274 12.4123,1.80281 2.99384,9.18394 -9.8503,23.86352 -18.68782,9.59644 -31.81981,-14.14213 z"
           id="path4724"
           inkscape:connector-curvature="0"
           sodipodi:nodetypes="ccccccccccc" /><path
           style="color:#000000;clip-rule:nonzero;display:inline;overflow:visible;visibility:visible;opacity:1;isolation:auto;mix-blend-mode:normal;color-interpolation:sRGB;color-interpolation-filters:linearRGB;solid-color:#000000;solid-opacity:1;fill:#54802a;fill-opacity:1;fill-rule:evenodd;stroke:#000000;stroke-width:2.5;stroke-linecap:butt;stroke-linejoin:miter;stroke-miterlimit:4;stroke-dasharray:none;stroke-dashoffset:0;stroke-opacity:1;color-rendering:auto;image-rendering:auto;shape-rendering:auto;text-rendering:auto;enable-background:accumulate"
           d="m 334.36049,265.95845 -40.91118,18.18274 -0.50507,24.24367 28.28427,14.14213 25.25381,-25.25381 1.01016,-18.68783 z"
           id="path4810"
           inkscape:connector-curvature="0"
           sodipodi:nodetypes="ccccccc" /><path
           style="fill:#f09c73;fill-opacity:1;fill-rule:evenodd;stroke:#000000;stroke-width:2.5;stroke-linecap:butt;stroke-linejoin:miter;stroke-miterlimit:4;stroke-dasharray:none;stroke-opacity:1"
           d="m 278.56112,550.24434 7.4278,-13.73913 6.2382,-10.98203 6.20205,-19.80349 -0.21154,-46.67044 -23.43032,7.78332 -20.73147,-6.66207 -1.87802,-7.72927 24.69567,7.08197 23.92597,-11.23438 6.63058,-56.43742 -6.43796,-4.31061 -24.39278,22.58547 20.14811,-30.00315 -16.05381,-18.69729 -1.87254,-8.60108 27.12329,21.60984 -0.0872,-22.9136 -0.0664,-20.15983 -6.04943,-33.03714 12.23281,7.35439 6.94231,-30.73189 4.73957,-31.74874 2.10459,44.98494 14.03709,-5.11186 -15.43686,14.35128 -1.01984,49.22249 2.42634,43.72019 22.51542,-8.54269 -2.8292,-28.66576 8.74733,26.5374 10.72315,-18.99899 -7.70463,25.03995 -31.53501,13.03704 -4.72078,45.93891 20.76689,-1.56585 17.70488,2.34266 -3.31927,9.70456 -13.34152,-4.263 -20.89803,8.36154 -1.01024,49.98511 1.34192,31.83213 3.78652,11.10704 -8.23063,-3.70421 -5.87276,2.42385 11.34192,18.2248 -20.08663,-15.71429 -25.39742,10.07178 15.39744,-15.09281 z"
           id="path3336-3"
           inkscape:connector-curvature="0"
           sodipodi:nodetypes="cccccccccccccccccccccccccccccccccccccccccccccccccc" /><path
           style="fill:#6ca536;fill-opacity:1;fill-rule:evenodd;stroke:#000000;stroke-width:2.5;stroke-linecap:butt;stroke-linejoin:miter;stroke-miterlimit:4;stroke-dasharray:none;stroke-opacity:1"
           d="m 251.02291,468.49403 c -2.02031,-0.50507 -24.24366,-6.56599 -24.24366,-6.56599 l -8.5863,-21.2132 19.69797,-8.5863 8.08122,-12.12183 13.13199,16.66752 19.69797,-6.56599 16.16244,-6.06092 13.13199,15.15229 -13.63706,23.23351 -13.68095,-0.51896 -11.06779,-13.1181 -10.10153,7.57614 c 0,0 10.10153,13.63706 7.57615,13.63706 -2.52538,0 -16.16244,-1.51523 -16.16244,-1.51523 z"
           id="path4722"
           inkscape:connector-curvature="0"
           sodipodi:nodetypes="cccccccccccccsc" /><path
           style="color:#000000;clip-rule:nonzero;display:inline;overflow:visible;visibility:visible;opacity:1;isolation:auto;mix-blend-mode:normal;color-interpolation:sRGB;color-interpolation-filters:linearRGB;solid-color:#000000;solid-opacity:1;fill:#54802a;fill-opacity:1;fill-rule:evenodd;stroke:#000000;stroke-width:2.5;stroke-linecap:butt;stroke-linejoin:miter;stroke-miterlimit:4;stroke-dasharray:none;stroke-dashoffset:0;stroke-opacity:1;color-rendering:auto;image-rendering:auto;shape-rendering:auto;text-rendering:auto;enable-background:accumulate"
           d="m 314.66252,440.20976 14.14213,-8.58629 17.1726,12.12183 -20.20305,18.68782 -23.23351,-2.52538 z"
           id="path4740"
           inkscape:connector-curvature="0"
           sodipodi:nodetypes="cccccc" /><path
           style="color:#000000;clip-rule:nonzero;display:inline;overflow:visible;visibility:visible;opacity:1;isolation:auto;mix-blend-mode:normal;color-interpolation:sRGB;color-interpolation-filters:linearRGB;solid-color:#000000;solid-opacity:1;fill:#54802a;fill-opacity:1;fill-rule:evenodd;stroke:#000000;stroke-width:2.5;stroke-linecap:butt;stroke-linejoin:miter;stroke-miterlimit:4;stroke-dasharray:none;stroke-dashoffset:0;stroke-opacity:1;color-rendering:auto;image-rendering:auto;shape-rendering:auto;text-rendering:auto;enable-background:accumulate"
           d="m 336.79443,461.60999 -4.54569,-26.26397 27.27412,-13.13198 2.43251,37.44634 -8.49342,12.05114 z"
           id="path4747"
           inkscape:connector-curvature="0"
           sodipodi:nodetypes="cccccc" /><path
           style="color:#000000;clip-rule:nonzero;display:inline;overflow:visible;visibility:visible;opacity:1;isolation:auto;mix-blend-mode:normal;color-interpolation:sRGB;color-interpolation-filters:linearRGB;solid-color:#000000;solid-opacity:1;fill:#72ae3a;fill-opacity:1;fill-rule:evenodd;stroke:#000000;stroke-width:2.5;stroke-linecap:butt;stroke-linejoin:miter;stroke-miterlimit:4;stroke-dasharray:none;stroke-dashoffset:0;stroke-opacity:1;color-rendering:auto;image-rendering:auto;shape-rendering:auto;text-rendering:auto;enable-background:accumulate"
           d="m 287.89348,375.56 -6.566,-21.2132 10.60661,10.6066 3.53553,-15.15229 -13.63706,-19.1929 -21.2132,7.57614 -11.11168,23.73859 16.16244,13.13198 -8.08122,14.14214 -12.12183,6.56599 9.59645,17.17259 22.72843,1.51523 11.61675,-10.6066 11.61676,-2.52538 -17.17259,-4.04061 z"
           id="path4754"
           inkscape:connector-curvature="0" /><path
           style="color:#000000;clip-rule:nonzero;display:inline;overflow:visible;visibility:visible;opacity:1;isolation:auto;mix-blend-mode:normal;color-interpolation:sRGB;color-interpolation-filters:linearRGB;solid-color:#000000;solid-opacity:1;fill:#6fa938;fill-opacity:1;fill-rule:evenodd;stroke:#000000;stroke-width:2.5;stroke-linecap:butt;stroke-linejoin:miter;stroke-miterlimit:4;stroke-dasharray:none;stroke-dashoffset:0;stroke-opacity:1;color-rendering:auto;image-rendering:auto;shape-rendering:auto;text-rendering:auto;enable-background:accumulate"
           d="m 344.46202,374.04477 -15.15229,-1.01015 -4.04061,-22.72843 26.76904,-11.61676 19.40574,6.91176 c -1.44996,7.64377 -2.23526,16.29346 -2.8943,24.33082 l -7.92514,-5.98877 -6.06092,5.55584 -8.08122,-9.09137 z"
           id="path4761"
           inkscape:connector-curvature="0"
           sodipodi:nodetypes="cccccccccc" /><path
           style="color:#000000;clip-rule:nonzero;display:inline;overflow:visible;visibility:visible;opacity:1;isolation:auto;mix-blend-mode:normal;color-interpolation:sRGB;color-interpolation-filters:linearRGB;solid-color:#000000;solid-opacity:1;fill:#69a034;fill-opacity:1;fill-rule:evenodd;stroke:#000000;stroke-width:2.5;stroke-linecap:butt;stroke-linejoin:miter;stroke-miterlimit:4;stroke-dasharray:none;stroke-dashoffset:0;stroke-opacity:1;color-rendering:auto;image-rendering:auto;shape-rendering:auto;text-rendering:auto;enable-background:accumulate"
           d="m 306.5813,394.24782 -4.54569,-20.70813 16.66752,-15.15228 8.58629,23.73858 13.13199,-3.53553 7.07107,18.68782 -26.26397,14.14214 z"
           id="path4768"
           inkscape:connector-curvature="0"
           sodipodi:nodetypes="cccccccc" /><path
           style="color:#000000;clip-rule:nonzero;display:inline;overflow:visible;visibility:visible;opacity:1;isolation:auto;mix-blend-mode:normal;color-interpolation:sRGB;color-interpolation-filters:linearRGB;solid-color:#000000;solid-opacity:1;fill:#80c13e;fill-opacity:1;fill-rule:evenodd;stroke:#000000;stroke-width:2.5;stroke-linecap:butt;stroke-linejoin:miter;stroke-miterlimit:4;stroke-dasharray:none;stroke-dashoffset:0;stroke-opacity:1;color-rendering:auto;image-rendering:auto;shape-rendering:auto;text-rendering:auto;enable-background:accumulate"
           d="m 310.11683,306.86963 -13.63706,-3.53554 6.56599,22.22336 -28.78934,-8.5863 -2.52539,-33.84011 29.79951,-15.65737 12.12183,3.03047 16.16244,32.82996 z"
           id="path4782"
           inkscape:connector-curvature="0"
           sodipodi:nodetypes="ccccccccc" /><path
           style="color:#000000;clip-rule:nonzero;display:inline;overflow:visible;visibility:visible;opacity:1;isolation:auto;mix-blend-mode:normal;color-interpolation:sRGB;color-interpolation-filters:linearRGB;solid-color:#000000;solid-opacity:1;fill:#70ac39;fill-opacity:1;fill-rule:evenodd;stroke:#000000;stroke-width:2.5;stroke-linecap:butt;stroke-linejoin:miter;stroke-miterlimit:4;stroke-dasharray:none;stroke-dashoffset:0;stroke-opacity:1;color-rendering:auto;image-rendering:auto;shape-rendering:auto;text-rendering:auto;enable-background:accumulate"
           d="m 330.31988,272.01936 -15.15229,-17.67767 -3.53553,-20.20305 27.27412,-12.12183 7.07107,35.35534 22.72843,15.65737 2.87804,27.14808 -24.09124,4.67172 -14.14214,-11.11168 6.56599,-12.12183 z"
           id="path4789"
           inkscape:connector-curvature="0"
           sodipodi:nodetypes="ccccccccccc" /><path
           style="color:#000000;clip-rule:nonzero;display:inline;overflow:visible;visibility:visible;opacity:1;isolation:auto;mix-blend-mode:normal;color-interpolation:sRGB;color-interpolation-filters:linearRGB;solid-color:#000000;solid-opacity:1;fill:#54802a;fill-opacity:1;fill-rule:evenodd;stroke:#000000;stroke-width:2.5;stroke-linecap:butt;stroke-linejoin:miter;stroke-miterlimit:4;stroke-dasharray:none;stroke-dashoffset:0;stroke-opacity:1;color-rendering:auto;image-rendering:auto;shape-rendering:auto;text-rendering:auto;enable-background:accumulate"
           d="m 309.61176,341.21481 24.74873,-2.0203 29.29443,-22.72843 -25.75889,-11.11168 -33.33504,19.1929 z"
           id="path4803"
           inkscape:connector-curvature="0"
           sodipodi:nodetypes="cccccc" /></g><g
         id="layer2"
         inkscape:label="shading"><path
           style="color:#000000;clip-rule:nonzero;display:inline;overflow:visible;visibility:visible;opacity:1;isolation:auto;mix-blend-mode:normal;color-interpolation:sRGB;color-interpolation-filters:linearRGB;solid-color:#000000;solid-opacity:1;fill:#c56b43;fill-opacity:1;fill-rule:evenodd;stroke:none;stroke-width:1px;stroke-linecap:butt;stroke-linejoin:miter;stroke-miterlimit:4;stroke-dasharray:none;stroke-dashoffset:0;stroke-opacity:1;color-rendering:auto;image-rendering:auto;shape-rendering:auto;text-rendering:auto;enable-background:accumulate"
           d="m 64.043742,328.73303 9.06605,-5.85104 5.050761,-4.79822 0.505074,9.09137 z"
           id="path4851"
           inkscape:connector-curvature="0"
           sodipodi:nodetypes="ccccc" /><path
           style="color:#000000;clip-rule:nonzero;display:inline;overflow:visible;visibility:visible;opacity:1;isolation:auto;mix-blend-mode:normal;color-interpolation:sRGB;color-interpolation-filters:linearRGB;solid-color:#000000;solid-opacity:1;fill:#c56b43;fill-opacity:1;fill-rule:evenodd;stroke:none;stroke-width:1px;stroke-linecap:butt;stroke-linejoin:miter;stroke-miterlimit:4;stroke-dasharray:none;stroke-dashoffset:0;stroke-opacity:1;color-rendering:auto;image-rendering:auto;shape-rendering:auto;text-rendering:auto;enable-background:accumulate"
           d="m 70.71067,338.79186 c 1.262691,0.50507 13.131983,-10.85914 13.131983,-10.85914 l 4.545687,-1.26269 1.767767,9.09137 -5.303301,-2.27284 z"
           id="path4883"
           inkscape:connector-curvature="0" /><path
           style="color:#000000;clip-rule:nonzero;display:inline;overflow:visible;visibility:visible;opacity:1;isolation:auto;mix-blend-mode:normal;color-interpolation:sRGB;color-interpolation-filters:linearRGB;solid-color:#000000;solid-opacity:1;fill:#c56b43;fill-opacity:1;fill-rule:evenodd;stroke:none;stroke-width:1px;stroke-linecap:butt;stroke-linejoin:miter;stroke-miterlimit:4;stroke-dasharray:none;stroke-dashoffset:0;stroke-opacity:1;color-rendering:auto;image-rendering:auto;shape-rendering:auto;text-rendering:auto;enable-background:accumulate"
           d="m 95.711946,333.23602 -3.535534,-8.33376 -1.767767,-9.34391 -3.030458,-12.87945 0,-17.67767 5.555839,-11.61675 -4.293148,-10.35407 -1.010153,-16.16244 -4.324953,-6.35315 0.926612,-7.17 7.070515,-14.64453 -1.767969,-3.02642 8.897994,-16.2183 -3.630066,-20.2359 9.170152,12.01765 3.95559,0.0631 -2.35612,23.52184 -7.394326,5.02352 -11.599308,19.37838 18.729544,2.84554 -1.26269,54.04316 1.76777,24.24366 2.1178,9.84094 -6.91603,-2.01226 -5.050756,1.76777 z"
           id="path4890"
           inkscape:connector-curvature="0"
           sodipodi:nodetypes="cccccccccccccccccccccccccc" /><path
           style="color:#000000;clip-rule:nonzero;display:inline;overflow:visible;visibility:visible;opacity:1;isolation:auto;mix-blend-mode:normal;color-interpolation:sRGB;color-interpolation-filters:linearRGB;solid-color:#000000;solid-opacity:1;fill:#000000;fill-opacity:0.235669;fill-rule:evenodd;stroke:none;stroke-width:1px;stroke-linecap:butt;stroke-linejoin:miter;stroke-miterlimit:4;stroke-dasharray:none;stroke-dashoffset:0;stroke-opacity:1;color-rendering:auto;image-rendering:auto;shape-rendering:auto;text-rendering:auto;enable-background:accumulate"
           d="m 120.20814,231.96822 9.09138,-8.83883 8.83883,1.51523 1.76777,9.59645 -13.63706,-3.53554 z"
           id="path4897"
           inkscape:connector-curvature="0" /><path
           style="color:#000000;clip-rule:nonzero;display:inline;overflow:visible;visibility:visible;opacity:1;isolation:auto;mix-blend-mode:normal;color-interpolation:sRGB;color-interpolation-filters:linearRGB;solid-color:#000000;solid-opacity:1;fill:#000000;fill-opacity:0.235669;fill-rule:evenodd;stroke:none;stroke-width:1px;stroke-linecap:butt;stroke-linejoin:miter;stroke-miterlimit:4;stroke-dasharray:none;stroke-dashoffset:0;stroke-opacity:1;color-rendering:auto;image-rendering:auto;shape-rendering:auto;text-rendering:auto;enable-background:accumulate"
           d="m 45.709395,234.99868 8.586296,6.31346 8.333759,-2.02031 5.808377,3.78807 -10.606602,3.53554 -10.354063,-3.53554 -4.293149,-7.3236 z"
           id="path4904"
           inkscape:connector-curvature="0" /><path
           style="color:#000000;clip-rule:nonzero;display:inline;overflow:visible;visibility:visible;opacity:1;isolation:auto;mix-blend-mode:normal;color-interpolation:sRGB;color-interpolation-filters:linearRGB;solid-color:#000000;solid-opacity:1;fill:#000000;fill-opacity:0.235669;fill-rule:evenodd;stroke:none;stroke-width:1px;stroke-linecap:butt;stroke-linejoin:miter;stroke-miterlimit:4;stroke-dasharray:none;stroke-dashoffset:0;stroke-opacity:1;color-rendering:auto;image-rendering:auto;shape-rendering:auto;text-rendering:auto;enable-background:accumulate"
           d="m 126.77413,163.27785 5.30331,-1.76777 -2.27285,-20.70812 3.53554,5.3033 4.04061,13.63706 8.08122,-2.77792 -4.54569,8.58629 -12.87944,4.79823 z"
           id="path4911"
           inkscape:connector-curvature="0" /><path
           style="color:#000000;clip-rule:nonzero;display:inline;overflow:visible;visibility:visible;opacity:1;isolation:auto;mix-blend-mode:normal;color-interpolation:sRGB;color-interpolation-filters:linearRGB;solid-color:#000000;solid-opacity:1;fill:#000000;fill-opacity:0.235669;fill-rule:evenodd;stroke:none;stroke-width:1px;stroke-linecap:butt;stroke-linejoin:miter;stroke-miterlimit:4;stroke-dasharray:none;stroke-dashoffset:0;stroke-opacity:1;color-rendering:auto;image-rendering:auto;shape-rendering:auto;text-rendering:auto;enable-background:accumulate"
           d="m 68.185289,176.66237 13.131983,-12.12183 -1.010153,-4.79822 -12.374368,-13.8896 -2.525382,-9.59645 20.455589,18.43528 3.535534,14.64722 -5.555839,-2.02031 -11.364216,10.85914 z"
           id="path4918"
           inkscape:connector-curvature="0" /><path
           style="color:#000000;clip-rule:nonzero;display:inline;overflow:visible;visibility:visible;opacity:1;isolation:auto;mix-blend-mode:normal;color-interpolation:sRGB;color-interpolation-filters:linearRGB;solid-color:#000000;solid-opacity:1;fill:#c56b43;fill-opacity:1;fill-rule:evenodd;stroke:none;stroke-width:1px;stroke-linecap:butt;stroke-linejoin:miter;stroke-miterlimit:4;stroke-dasharray:none;stroke-dashoffset:0;stroke-opacity:1;color-rendering:auto;image-rendering:auto;shape-rendering:auto;text-rendering:auto;enable-background:accumulate"
           d="m 96.722098,142.06465 1.010153,-11.61676 -4.382517,-8.32997 12.542296,-0.82094 0.47954,25.77775 -4.34617,-8.54562 z"
           id="path4925"
           inkscape:connector-curvature="0"
           sodipodi:nodetypes="ccccccc" /><path
           style="color:#000000;clip-rule:nonzero;display:inline;overflow:visible;visibility:visible;opacity:1;isolation:auto;mix-blend-mode:normal;color-interpolation:sRGB;color-interpolation-filters:linearRGB;solid-color:#000000;solid-opacity:1;fill:#c56b43;fill-opacity:1;fill-rule:evenodd;stroke:none;stroke-width:1px;stroke-linecap:butt;stroke-linejoin:miter;stroke-miterlimit:4;stroke-dasharray:none;stroke-dashoffset:0;stroke-opacity:1;color-rendering:auto;image-rendering:auto;shape-rendering:auto;text-rendering:auto;enable-background:accumulate"
           d="m 96.415529,87.17808 c 1.010153,0 10.660631,-3.197204 10.660631,-3.197204 l 0.0894,8.58251 -12.365636,6.496328 z"
           id="path4939"
           inkscape:connector-curvature="0"
           sodipodi:nodetypes="ccccc" /><path
           style="color:#000000;clip-rule:nonzero;display:inline;overflow:visible;visibility:visible;opacity:1;isolation:auto;mix-blend-mode:normal;color-interpolation:sRGB;color-interpolation-filters:linearRGB;solid-color:#000000;solid-opacity:1;fill:#000000;fill-opacity:0.235669;fill-rule:evenodd;stroke:none;stroke-width:1px;stroke-linecap:butt;stroke-linejoin:miter;stroke-miterlimit:4;stroke-dasharray:none;stroke-dashoffset:0;stroke-opacity:1;color-rendering:auto;image-rendering:auto;shape-rendering:auto;text-rendering:auto;enable-background:accumulate"
           d="m 109.85408,75.394579 10.35406,-10.859139 -10.85914,3.030457 -0.75761,-22.223356 -4.29315,-4.04061 2.02031,15.909903 -1.2627,8.333758 z"
           id="path4946"
           inkscape:connector-curvature="0" /><path
           style="color:#000000;clip-rule:nonzero;display:inline;overflow:visible;visibility:visible;opacity:1;isolation:auto;mix-blend-mode:normal;color-interpolation:sRGB;color-interpolation-filters:linearRGB;solid-color:#000000;solid-opacity:1;fill:#000000;fill-opacity:0.235669;fill-rule:evenodd;stroke:none;stroke-width:1px;stroke-linecap:butt;stroke-linejoin:miter;stroke-miterlimit:4;stroke-dasharray:none;stroke-dashoffset:0;stroke-opacity:1;color-rendering:auto;image-rendering:auto;shape-rendering:auto;text-rendering:auto;enable-background:accumulate"
           d="m 6.565984,231.71569 13.637059,2.0203 1.515229,-9.34391 12.374368,5.55584 -2.777919,-14.14214 8.08122,-3.03045 3.788072,3.78807 9.091373,3.53553 10.606602,10.35407 6.313453,-12.87945 11.869293,-1.76777 -2.272843,-11.36421 12.12183,14.64721 -12.879445,22.72843 -13.637059,-0.75761 -11.364216,-12.87945 -10.354064,7.82868 8.586297,13.38453 -16.920055,-1.01016 -23.991123,-7.07106 z"
           id="path4953"
           inkscape:connector-curvature="0" /><path
           style="color:#000000;clip-rule:nonzero;display:inline;overflow:visible;visibility:visible;opacity:1;isolation:auto;mix-blend-mode:normal;color-interpolation:sRGB;color-interpolation-filters:linearRGB;solid-color:#000000;solid-opacity:1;fill:#000000;fill-opacity:0.235669;fill-rule:evenodd;stroke:none;stroke-width:1px;stroke-linecap:butt;stroke-linejoin:miter;stroke-miterlimit:4;stroke-dasharray:none;stroke-dashoffset:0;stroke-opacity:1;color-rendering:auto;image-rendering:auto;shape-rendering:auto;text-rendering:auto;enable-background:accumulate"
           d="m 94.196717,227.42254 2.272843,8.08122 10.6066,0.75761 2.27284,-23.23351 3.283,-1.26269 16.16244,11.61676 -19.1929,18.68782 -23.233505,-2.27284 z"
           id="path4960"
           inkscape:connector-curvature="0" /><path
           style="color:#000000;clip-rule:nonzero;display:inline;overflow:visible;visibility:visible;opacity:1;isolation:auto;mix-blend-mode:normal;color-interpolation:sRGB;color-interpolation-filters:linearRGB;solid-color:#000000;solid-opacity:1;fill:#000000;fill-opacity:0.235669;fill-rule:evenodd;stroke:none;stroke-width:1px;stroke-linecap:butt;stroke-linejoin:miter;stroke-miterlimit:4;stroke-dasharray:none;stroke-dashoffset:0;stroke-opacity:1;color-rendering:auto;image-rendering:auto;shape-rendering:auto;text-rendering:auto;enable-background:accumulate"
           d="m 122.38954,219.78088 6.81853,16.16245 4.54568,-23.23352 z m 20.70813,-17.42513 1.5558,36.27316 -7.86925,12.97178 -16.92006,-10.85914 -3.78807,-26.01143 z"
           id="path4967"
           inkscape:connector-curvature="0"
           sodipodi:nodetypes="cccccccccc" /><path
           style="color:#000000;clip-rule:nonzero;display:inline;overflow:visible;visibility:visible;opacity:1;isolation:auto;mix-blend-mode:normal;color-interpolation:sRGB;color-interpolation-filters:linearRGB;solid-color:#000000;solid-opacity:1;fill:#000000;fill-opacity:0.235669;fill-rule:evenodd;stroke:none;stroke-width:1px;stroke-linecap:butt;stroke-linejoin:miter;stroke-miterlimit:4;stroke-dasharray:none;stroke-dashoffset:0;stroke-opacity:1;color-rendering:auto;image-rendering:auto;shape-rendering:auto;text-rendering:auto;enable-background:accumulate"
           d="m 117.9353,234.24107 c 1.01015,0 8.5863,-3.03046 8.5863,-3.03046 l 9.84898,3.78807 -4.29314,5.05076 -19.69798,9.09138 -7.07107,-4.29315 0.25254,-3.53553 4.29315,1.01015 z"
           id="path4974"
           inkscape:connector-curvature="0" /><path
           style="color:#000000;clip-rule:nonzero;display:inline;overflow:visible;visibility:visible;opacity:1;isolation:auto;mix-blend-mode:normal;color-interpolation:sRGB;color-interpolation-filters:linearRGB;solid-color:#000000;solid-opacity:1;fill:#000000;fill-opacity:0.235669;fill-rule:evenodd;stroke:none;stroke-width:1px;stroke-linecap:butt;stroke-linejoin:miter;stroke-miterlimit:4;stroke-dasharray:none;stroke-dashoffset:0;stroke-opacity:1;color-rendering:auto;image-rendering:auto;shape-rendering:auto;text-rendering:auto;enable-background:accumulate"
           d="m 80.812196,204.94664 8.586296,-3.78807 -1.767767,11.36422 z"
           id="path4981"
           inkscape:connector-curvature="0" /><path
           style="color:#000000;clip-rule:nonzero;display:inline;overflow:visible;visibility:visible;opacity:1;isolation:auto;mix-blend-mode:normal;color-interpolation:sRGB;color-interpolation-filters:linearRGB;solid-color:#000000;solid-opacity:1;fill:#000000;fill-opacity:0.235669;fill-rule:evenodd;stroke:none;stroke-width:1px;stroke-linecap:butt;stroke-linejoin:miter;stroke-miterlimit:4;stroke-dasharray:none;stroke-dashoffset:0;stroke-opacity:1;color-rendering:auto;image-rendering:auto;shape-rendering:auto;text-rendering:auto;enable-background:accumulate"
           d="m 107.07616,204.44157 5.80838,-4.79823 11.36421,1.51523 3.03046,4.04061 -3.53553,6.81853 9.59645,1.01015 3.03045,3.78808 1.26269,6.31345 -8.33375,-0.25254 -17.42514,-11.61675 -5.80837,3.53553 z"
           id="path4988"
           inkscape:connector-curvature="0"
           sodipodi:nodetypes="cccccccccccc" /><path
           style="color:#000000;clip-rule:nonzero;display:inline;overflow:visible;visibility:visible;opacity:1;isolation:auto;mix-blend-mode:normal;color-interpolation:sRGB;color-interpolation-filters:linearRGB;solid-color:#000000;solid-opacity:1;fill:#000000;fill-opacity:0.235669;fill-rule:evenodd;stroke:none;stroke-width:1px;stroke-linecap:butt;stroke-linejoin:miter;stroke-miterlimit:4;stroke-dasharray:none;stroke-dashoffset:0;stroke-opacity:1;color-rendering:auto;image-rendering:auto;shape-rendering:auto;text-rendering:auto;enable-background:accumulate"
           d="m 32.82995,181.20806 12.12183,4.79822 10.101526,-2.52537 -11.869293,-16.92006 6.060916,-11.61676 -6.060916,-6.06091 h 14.394674 l -1.010152,-14.89975 10.354063,-6.31346 11.364216,1.26269 -2.777919,15.40483 -10.354064,-8.83883 6.313454,19.95051 -4.293149,21.2132 13.889599,4.54569 -10.101527,3.78807 -9.848987,9.09137 -23.233509,-1.76776 z"
           id="path4995"
           inkscape:connector-curvature="0"
           sodipodi:nodetypes="ccccccccccccccccccc" /><path
           style="color:#000000;clip-rule:nonzero;display:inline;overflow:visible;visibility:visible;opacity:1;isolation:auto;mix-blend-mode:normal;color-interpolation:sRGB;color-interpolation-filters:linearRGB;solid-color:#000000;solid-opacity:1;fill:#000000;fill-opacity:0.235669;fill-rule:evenodd;stroke:none;stroke-width:1px;stroke-linecap:butt;stroke-linejoin:miter;stroke-miterlimit:4;stroke-dasharray:none;stroke-dashoffset:0;stroke-opacity:1;color-rendering:auto;image-rendering:auto;shape-rendering:auto;text-rendering:auto;enable-background:accumulate"
           d="m 86.115497,153.42886 9.848987,18.18275 7.828676,-14.14214 -0.50507,-15.65736 7.07107,19.95051 2.52538,10.85914 11.36421,-12.6269 6.56599,17.17259 -26.26396,14.14213 -15.152288,-17.67767 z"
           id="path5002"
           inkscape:connector-curvature="0" /><path
           style="color:#000000;clip-rule:nonzero;display:inline;overflow:visible;visibility:visible;opacity:1;isolation:auto;mix-blend-mode:normal;color-interpolation:sRGB;color-interpolation-filters:linearRGB;solid-color:#000000;solid-opacity:1;fill:#000000;fill-opacity:0.235669;fill-rule:evenodd;stroke:none;stroke-width:1px;stroke-linecap:butt;stroke-linejoin:miter;stroke-miterlimit:4;stroke-dasharray:none;stroke-dashoffset:0;stroke-opacity:1;color-rendering:auto;image-rendering:auto;shape-rendering:auto;text-rendering:auto;enable-background:accumulate"
           d="m 70.458132,150.14587 9.091373,9.84899 -3.030458,4.54568 -5.555839,-4.54568 z"
           id="path5009"
           inkscape:connector-curvature="0" /><path
           style="color:#000000;clip-rule:nonzero;display:inline;overflow:visible;visibility:visible;opacity:1;isolation:auto;mix-blend-mode:normal;color-interpolation:sRGB;color-interpolation-filters:linearRGB;solid-color:#000000;solid-opacity:1;fill:#000000;fill-opacity:0.235669;fill-rule:evenodd;stroke:none;stroke-width:1px;stroke-linecap:butt;stroke-linejoin:miter;stroke-miterlimit:4;stroke-dasharray:none;stroke-dashoffset:0;stroke-opacity:1;color-rendering:auto;image-rendering:auto;shape-rendering:auto;text-rendering:auto;enable-background:accumulate"
           d="m 76.266509,144.08495 9.091373,4.54569 7.071068,-9.34391 0.757614,7.57614 -7.323606,6.06092 z"
           id="path5016"
           inkscape:connector-curvature="0" /><path
           style="color:#000000;clip-rule:nonzero;display:inline;overflow:visible;visibility:visible;opacity:1;isolation:auto;mix-blend-mode:normal;color-interpolation:sRGB;color-interpolation-filters:linearRGB;solid-color:#000000;solid-opacity:1;fill:#000000;fill-opacity:0.235669;fill-rule:evenodd;stroke:none;stroke-width:1px;stroke-linecap:butt;stroke-linejoin:miter;stroke-miterlimit:4;stroke-dasharray:none;stroke-dashoffset:0;stroke-opacity:1;color-rendering:auto;image-rendering:auto;shape-rendering:auto;text-rendering:auto;enable-background:accumulate"
           d="m 105.30839,140.04434 5.3033,0.50508 2.52539,12.12183 14.89975,1.26269 2.27284,-6.31345 1.26269,14.39467 -5.80838,1.51523 -2.52538,-5.05076 -12.37437,3.28299 -5.05076,-14.14213 z"
           id="path5023"
           inkscape:connector-curvature="0" /><path
           style="color:#000000;clip-rule:nonzero;display:inline;overflow:visible;visibility:visible;opacity:1;isolation:auto;mix-blend-mode:normal;color-interpolation:sRGB;color-interpolation-filters:linearRGB;solid-color:#000000;solid-opacity:1;fill:#000000;fill-opacity:0.235669;fill-rule:evenodd;stroke:none;stroke-width:1px;stroke-linecap:butt;stroke-linejoin:miter;stroke-miterlimit:4;stroke-dasharray:none;stroke-dashoffset:0;stroke-opacity:1;color-rendering:auto;image-rendering:auto;shape-rendering:auto;text-rendering:auto;enable-background:accumulate"
           d="m 113.38961,128.42759 8.08122,4.79822 12.37437,-2.52538 5.05077,-6.06091 17.67766,1.01015 -6.16152,21.5396 -12.5263,1.94645 -8.08122,-9.59645 -2.0203,13.88959 -14.89975,-0.75761 -3.78807,-22.72843 z"
           id="path5030"
           inkscape:connector-curvature="0"
           sodipodi:nodetypes="cccccccccccc" /><path
           style="color:#000000;clip-rule:nonzero;display:inline;overflow:visible;visibility:visible;opacity:1;isolation:auto;mix-blend-mode:normal;color-interpolation:sRGB;color-interpolation-filters:linearRGB;solid-color:#000000;solid-opacity:1;fill:#000000;fill-opacity:0.235669;fill-rule:evenodd;stroke:none;stroke-width:1px;stroke-linecap:butt;stroke-linejoin:miter;stroke-miterlimit:4;stroke-dasharray:none;stroke-dashoffset:0;stroke-opacity:1;color-rendering:auto;image-rendering:auto;shape-rendering:auto;text-rendering:auto;enable-background:accumulate"
           d="m 88.893416,105.95169 15.657364,5.80838 16.16244,-8.08122 4.79822,-16.414978 21.46575,9.091373 -29.54697,22.475895 -23.991117,1.76777 z"
           id="path5037"
           inkscape:connector-curvature="0" /><path
           style="color:#000000;clip-rule:nonzero;display:inline;overflow:visible;visibility:visible;opacity:1;isolation:auto;mix-blend-mode:normal;color-interpolation:sRGB;color-interpolation-filters:linearRGB;solid-color:#000000;solid-opacity:1;fill:#000000;fill-opacity:0.235669;fill-rule:evenodd;stroke:none;stroke-width:1px;stroke-linecap:butt;stroke-linejoin:miter;stroke-miterlimit:4;stroke-dasharray:none;stroke-dashoffset:0;stroke-opacity:1;color-rendering:auto;image-rendering:auto;shape-rendering:auto;text-rendering:auto;enable-background:accumulate"
           d="m 58.083763,89.789253 10.606602,-5.555839 6.81853,-14.89975 14.394674,2.020305 9.091373,-16.920055 14.394668,29.041886 -16.667511,2.525382 -5.184252,0.480717 -4.664736,0.276897 v 6.060915 l -4.798225,-1.767767 4.040611,13.384526 -28.284272,-8.333763 z"
           id="path5044"
           inkscape:connector-curvature="0"
           sodipodi:nodetypes="cccccccccccccc" /><path
           style="color:#000000;clip-rule:nonzero;display:inline;overflow:visible;visibility:visible;opacity:1;isolation:auto;mix-blend-mode:normal;color-interpolation:sRGB;color-interpolation-filters:linearRGB;solid-color:#000000;solid-opacity:1;fill:#000000;fill-opacity:0.235669;fill-rule:evenodd;stroke:none;stroke-width:1px;stroke-linecap:butt;stroke-linejoin:miter;stroke-miterlimit:4;stroke-dasharray:none;stroke-dashoffset:0;stroke-opacity:1;color-rendering:auto;image-rendering:auto;shape-rendering:auto;text-rendering:auto;enable-background:accumulate"
           d="m 110.35916,74.889503 8.58629,-9.848987 -9.59645,2.272843 V 56.706757 l 6.56599,-2.777919 7.57615,7.576144 -6.06092,11.869292 8.33376,7.071068 -3.78807,4.798225 -15.65736,8.333758 1.26269,-9.343911 6.06091,-1.515229 z"
           id="path5051"
           inkscape:connector-curvature="0" /><path
           style="color:#000000;clip-rule:nonzero;display:inline;overflow:visible;visibility:visible;opacity:1;isolation:auto;mix-blend-mode:normal;color-interpolation:sRGB;color-interpolation-filters:linearRGB;solid-color:#000000;solid-opacity:1;fill:#000000;fill-opacity:0.235669;fill-rule:evenodd;stroke:none;stroke-width:1px;stroke-linecap:butt;stroke-linejoin:miter;stroke-miterlimit:4;stroke-dasharray:none;stroke-dashoffset:0;stroke-opacity:1;color-rendering:auto;image-rendering:auto;shape-rendering:auto;text-rendering:auto;enable-background:accumulate"
           d="m 106.06601,41.554469 2.0203,-14.394674 12.37437,-6.060915 3.283,-11.3642161 6.31345,27.7791951 8.08122,7.071068 2.02031,15.909902 12.87944,-4.798224 1.81303,23.196458 -24.03639,5.592889 -13.88959,-11.111678 14.89975,-6.565991 -9.34391,-6.060915 z"
           id="path5058"
           inkscape:connector-curvature="0"
           sodipodi:nodetypes="cccccccccccccc" /></g></g></g></svg>
