<?xml version="1.0" encoding="UTF-8" standalone="no"?>
<svg
   sodipodi:docname="vocal-flair.svg"
   inkscape:version="1.1.1 (c3084ef, 2021-09-22)"
   id="svg2159"
   version="1.1"
   viewBox="0 0 135 135"
   height="135mm"
   width="135mm"
   xmlns:inkscape="http://www.inkscape.org/namespaces/inkscape"
   xmlns:sodipodi="http://sodipodi.sourceforge.net/DTD/sodipodi-0.dtd"
   xmlns="http://www.w3.org/2000/svg"
   xmlns:svg="http://www.w3.org/2000/svg"
   xmlns:rdf="http://www.w3.org/1999/02/22-rdf-syntax-ns#"
   xmlns:cc="http://creativecommons.org/ns#"
   xmlns:dc="http://purl.org/dc/elements/1.1/">
  <defs
     id="defs2153">
    <rect
       x="153.28542"
       y="392.53495"
       width="206.10674"
       height="151.21399"
       id="rect34727" />
    <rect
       id="rect2898"
       height="48.31025"
       width="50.803287"
       y="157.10223"
       x="96.357849" />
  </defs>
  <sodipodi:namedview
     inkscape:window-maximized="0"
     inkscape:window-y="25"
     inkscape:window-x="89"
     inkscape:window-height="936"
     inkscape:window-width="1252"
     fit-margin-bottom="0"
     fit-margin-right="0"
     fit-margin-left="0"
     fit-margin-top="0"
     showgrid="false"
     inkscape:document-rotation="0"
     inkscape:current-layer="layer1"
     inkscape:document-units="mm"
     inkscape:cy="207.17568"
     inkscape:cx="232.80186"
     inkscape:zoom="0.91588992"
     inkscape:pageshadow="2"
     inkscape:pageopacity="0.0"
     borderopacity="1.0"
     bordercolor="#666666"
     pagecolor="#ffffff"
     id="base"
     inkscape:pagecheckerboard="0"
     inkscape:rotation="-1" />
  <metadata
     id="metadata2156">
    <rdf:RDF>
      <cc:Work
         rdf:about="">
        <dc:format>image/svg+xml</dc:format>
        <dc:type
           rdf:resource="http://purl.org/dc/dcmitype/StillImage" />
      </cc:Work>
    </rdf:RDF>
  </metadata>
  <g
     transform="translate(-28.302847,-118.12669)"
     id="layer1"
     inkscape:groupmode="layer"
     inkscape:label="Layer 1">
    <g
       id="g3880"
       transform="matrix(0.25122614,0.08300464,-0.08300464,0.25122614,41.385896,156.77046)">
      <ellipse
         ry="32.875"
         rx="31.4375"
         cy="90.639999"
         cx="125.1875"
         transform="translate(-50.17092,-17.417624)"
         id="path3857"
         style="fill:#ffffff;fill-opacity:1;fill-rule:nonzero;stroke:none" />
      <path
         sodipodi:nodetypes="cccccc"
         inkscape:connector-curvature="0"
         id="path3859"
         d="m 6.5570402,115.44498 -5.524271,6.01041 1.104854,8.3527 9.0598058,8.44109 9.722718,-2.60746 C 15.590203,129.03396 10.865852,121.38462 6.5570402,115.44498 Z"
         style="fill:#ffffff;fill-opacity:1;fill-rule:nonzero;stroke:none" />
      <g
         transform="translate(-31.67092,-17.667624)"
         style="fill:#000000;fill-opacity:1"
         id="g3794">
        <g
           style="fill:#000000;fill-opacity:1"
           transform="rotate(1.6641298,102.44125,103.40041)"
           id="g3804">
          <g
             style="fill:#000000;fill-opacity:1"
             transform="rotate(-3.7031712,101.11524,103.97432)"
             id="g3814">
            <g
               style="fill:#000000;fill-opacity:1"
               id="g3775"
               transform="matrix(0.46504972,-0.2127359,0.2127359,0.46504972,132.65498,174.89825)">
              <g
                 style="fill:#000000;fill-opacity:1"
                 id="layer1-8"
                 inkscape:label="Ebene 1"
                 transform="translate(-272.0137,-922.08928)">
                <path
                   inkscape:connector-curvature="0"
                   id="path2888"
                   style="fill:#4a4a4a;fill-opacity:1"
                   d="m 228.10227,901.15438 c -13.47,-3.3288 -18.736,-10.682 -23.831,-33.279 -4.9056,-21.757 -7.6136,-29.233 -13.484,-37.231 -4.7146,-6.4225 -10.83,-9.2966 -19.78,-9.2966 -11.122,0 -16.917,-4.2111 -20.715,-15.054 -4.069,-11.616 -4.8278,-32.526 -1.5178,-41.821 2.1337,-5.992 7.6482,-12.822 13.595,-16.839 2.9749,-2.0094 13.545,-6.694 25.174,-11.157 22.236,-8.534 23.44773,-10.53538 38.33273,-19.71938 19.287,-11.9 41.292,-28.601 54.969,-41.718 8.7283,-8.3708 9.0989,-8.9126 10.945,-16.001 1.7877,-6.8635 4.2372,-11.389 8.2524,-15.246 2.9642,-2.8474 4.0376,-3.2632 9.2849,-3.5974 9.8038,-0.62426 15.943,3.4574 24.465,16.265 12.188,18.318 24.481,53.523 30.071,86.12 8.3529,48.712 2.1163,96.605 -13.425,103.1 -5.972,2.4953 -9.1324,1.5794 -20.986,-6.0816 -3.1072,-2.0083 -8.5055,-4.7428 -11.996,-6.0767 -19.961,-7.6275 -53.03073,-20.52862 -79.27873,-20.55362 -9.7335,-0.009 -10.534,0.12957 -11.888,2.0622 -2.2909,3.2708 -1.7919,10.571 1.3273,19.417 1.5283,4.3342 2.787,8.8452 2.7971,10.025 0.0235,2.7439 2.054,6.6676 4.6803,9.0444 3.339,3.0218 4.8956,6.8532 4.2286,10.409 -0.52332,2.7895 -0.0662,3.897 3.647,8.8367 4.5637,6.0711 5.1181,8.6811 2.9678,13.973 -1.4042,3.4559 -1.1642,4.839 1.4167,8.1648 2.4232,3.1227 2.1778,5.5758 -0.66612,6.6571 -3.2179,1.2234 -12.854,1.0154 -18.587,-0.40137 z m 78.17901,-202.97115 c -6.68575,24.18528 -0.28346,83.67388 18.39657,106.27624 31.58198,-32.59879 13.32487,-97.03274 -18.39657,-106.27624 z M 142.62707,818.52918 c -18.84,-3.1793 -26.042,-10.782 -26.042,-27.492 0,-9.5952 1.0865,-13.872 5.0009,-19.683 2.6192,-3.8884 4.6791,-5.3761 15.605,-11.27 12.837,-6.9249 16.532,-8.311 13.776,-5.1685 -4.829,5.5075 -7.2276,14.713 -7.2276,27.738 0,15.023 2.8712,24.047 10.357,32.551 l 3.7651,4.2774 -5.4404,-0.10967 c -2.9922,-0.0603 -7.3994,-0.44025 -9.7938,-0.84429 z m -0.2748,-9.0691 c -4.0554,-10.47 -5.4732,-17.974 -5.5489,-29.369 -0.0775,-11.652 -0.92331,-14.376 -2.6597,-8.5642 -0.44967,1.505 -0.85912,6.9321 -0.90989,12.06 -0.0807,8.1433 0.2876,10.475 2.9084,18.414 2.5041,7.5863 3.3185,9.0906 4.9214,9.0906 1.4484,0 1.7653,-0.4012 1.2887,-1.6316 z m -12.814,-8.8576 c -2.5354,-7.8297 -2.7556,-9.4969 -2.3893,-18.092 0.33548,-7.8715 0.18217,-9.3824 -0.90951,-8.9635 -2.1448,0.82304 -3.0362,4.5702 -3.0128,12.664 0.017,5.8589 0.5354,8.8795 2.232,13.005 5.1212,12.453 7.9778,13.424 4.0796,1.3859 z"
                   sodipodi:nodetypes="cscscccssscsccccccccssscscccccccccscscsccscccscscscccscsscc" />
              </g>
            </g>
            <g
               style="fill:#000000;fill-opacity:1"
               transform="matrix(0.28213505,-0.05262116,0.22926558,0.50849215,154.51475,164.79177)"
               id="g3784">
              <g
                 style="fill:#000000;fill-opacity:1"
                 transform="translate(-272.0137,-922.08928)"
                 inkscape:label="Ebene 1"
                 id="g3790" />
            </g>
          </g>
        </g>
      </g>
    </g>
    <path
       sodipodi:nodetypes="cc"
       id="path2784"
       d="m 65.011902,173.75566 c 2.751256,2.31928 3.48362,6.33011 2.267858,9.26041"
       style="fill:none;stroke:#440303;stroke-width:0.79375;stroke-linecap:round;stroke-linejoin:miter;stroke-miterlimit:4;stroke-dasharray:none;stroke-opacity:1" />
    <g
       transform="matrix(0.08083549,0,0,0.08470875,27.177216,153.73552)"
       id="g2869">
      <circle
         fill="none"
         cx="1036.0046"
         cy="-274.1636"
         r="8.5939999"
         id="circle2843" />
      <path
         fill="none"
         d="m 1058.7504,9.9777 c -1.4231,-2.1658 -3.006,-4.2056 -4.6417,-6.2027 1.6354,1.997 3.2186,4.0369 4.6417,6.2027 z"
         id="path2845" />
      <path
         fill="none"
         d="m 892.6965,74.5347 c -7.528,4.2694 -12.7463,13.1383 -11.6737,21.8627 1.5675,9.0339 8.7657,18.8309 18.9957,17.5521 9.6938,-1.1137 21.9863,-8.0851 20.7698,-19.3671 C 918.973,82.1247 906.1854,67.522 892.6965,74.5347 Z"
         id="path2847" />
      <path
         fill="none"
         d="m 467.3496,-87.9855 c 5.2087,0 9.4455,-4.2368 9.4455,-9.4455 0,-5.2087 -4.2368,-9.4455 -9.4455,-9.4455 -5.2087,0 -9.4455,4.2368 -9.4455,9.4455 0,5.2087 4.2368,9.4455 9.4455,9.4455 z m 0,-15.9845 c 3.6054,0 6.5391,2.9337 6.5391,6.539 0,3.6053 -2.9337,6.539 -6.5391,6.539 -3.6054,0 -6.539,-2.9337 -6.539,-6.539 0,-3.6053 2.9336,-6.539 6.539,-6.539 z"
         id="path2849" />
      <path
         style="fill:#c40202;fill-opacity:1"
         sodipodi:nodetypes="ccccccccccccccccccccccccccccccccccccccccccccccccccccccccccccccccsscccsscscsccsscccccccccccccccccccccsccssscccccssscccccsssscccccccccccccsscccccccccccccccccccccccccccccccccccccccccccccccccccccccccccccccccccccccccccccccccccssssscccsssssccccc"
         d="m 1414.8455,113.7846 c -10.6221,-7.2395 -18.9341,-17.1807 -28.7311,-25.4103 -32.2163,-27.5966 -67.135,-52.5737 -105.8486,-70.2083 -3.3619,-1.485 -6.7032,-2.9081 -10.0651,-4.2901 -7.0743,-2.8668 -14.3757,-5.3832 -20.646,-9.8382 5.3834,-1.4644 10.4985,-3.7332 15.4896,-6.1876 5.4451,-2.8256 10.8695,-5.7339 16.1704,-8.8483 8.5179,-5.177 16.7887,-10.8076 24.8739,-16.6858 2.1038,-1.5675 4.2074,-3.1969 6.3112,-4.8057 9.9828,-7.425 19.3468,-15.6133 28.2155,-24.3378 12.045,-11.3645 22.5228,-24.1935 32.8975,-37.0636 -15.1392,-2.2069 -30.5049,-1.4643 -45.6646,-3.2382 -6.7445,-0.5568 -13.4478,-1.2375 -20.1304,-2.083 -5.7129,-0.7838 -11.3645,-1.7326 -16.9951,-2.7638 -0.8455,-0.165 -2.5162,-0.4743 -3.3617,-0.6394 -33.2068,-6.4144 -66.3722,-16.6859 -94.5256,-35.9498 -27.1427,-18.0058 -48.5313,-45.2932 -57.2764,-76.8703 -3.2174,-10.7253 -4.5787,-21.8627 -6.3525,-32.8768 -3.4445,-20.5014 -14.5406,-41.0027 -33.3923,-51.0062 -32.5054,-17.0158 -78.6439,-1.8767 -93.1641,32.2581 -1.4437,2.5575 -2.475,5.7956 -5.5275,6.8268 -7.6728,3.4858 -15.7786,5.8781 -23.3479,9.5701 9.302,5.177 20.8108,6.9917 28.3804,14.8707 0.3298,0.928 0.9693,2.764 1.2994,3.692 2.0006,4.9911 4.7024,9.6731 7.4457,14.2932 -15.2627,9.4465 -27.2665,23.4715 -34.8978,39.6417 -17.181,36.3419 -18.1503,79.9023 -2.8465,117.069 5.2182,11.5707 11.8182,22.6258 19.8828,32.4641 3.8156,4.5169 7.6934,9.0132 12.0864,13.0145 14.7264,11.4263 29.9066,22.9766 47.562,29.5354 2.1886,0.7509 4.3995,1.5244 6.6327,2.32 0.1752,1.648 0.2024,1.9042 0.3776,3.5522 -10.5875,6.308 -21.8903,11.2852 -32.173,18.0944 -24.4205,14.1902 -46.3452,32.0516 -68.6409,49.2737 -6.7032,-4.5169 -14.2108,-7.6314 -21.9043,-10.0033 7.0746,-10.1269 13.7778,-21.4295 12.8908,-34.2997 -2.0625,-7.3014 -7.2599,-14.7677 -15.3244,-15.7577 -12.4164,-2.0419 -24.2553,4.9913 -31.6391,14.5201 -1.7531,3.2175 -3.4858,6.4144 -5.1769,9.632 -8.0645,-6.9713 -16.9542,-15.6545 -28.5453,-14.3139 -7.3014,-0.3093 -12.3545,5.3213 -17.3459,9.7145 -0.6805,6.6414 -2.1245,13.5302 -0.2475,20.1096 2.2894,6.827 7.9613,11.6533 12.8702,16.6033 -10.0445,4.3314 -21.3884,10.2095 -24.2141,21.7803 -3.7746,12.0246 4.9911,25.2866 17.1191,27.576 10.6011,1.9801 20.1713,-4.4344 27.947,-10.8283 -1.0106,10.2095 -0.103,20.5634 3.238,30.2985 -13.86,15.3865 -29.0402,29.4941 -42.818,44.963 -54.5128,56.9257 -107.0039,115.8521 -163.8679,170.4883 -7.033,6.8682 -14.1076,13.6745 -21.2854,20.3777 -14.7056,14.0045 -29.4526,28.0916 -45.6228,40.4048 11.7357,-16.7477 22.9147,-34.011 30.8966,-52.945 7.879,-20.0065 12.9734,-41.1886 13.9221,-62.7008 1.8767,-29.2259 -3.8365,-58.5138 -13.8188,-85.9041 -2.5988,-7.0951 -5.569,-14.0251 -8.5391,-20.9553 -6.4761,-12.3957 -12.7256,-24.9771 -20.8518,-36.4035 -5.4867,-8.147 -12.3339,-15.3039 -17.4698,-23.6572 -5.4864,-8.9513 -9.6938,-18.5627 -13.7571,-28.174 -8.6212,-19.4289 -14.912,-39.848 -19.202,-60.6588 -4.9708,-28.1948 -5.6719,-58.7201 7.2601,-85.0173 11.7769,-24.7503 35.5372,-42.1374 61.2982,-50.1813 36.9399,-11.2201 79.139,7.7139 98.0936,40.7555 10.189,17.3459 14.3553,39.4355 7.2188,58.6788 -1.3405,3.2175 -2.8667,6.3526 -4.5994,9.3638 -5.4645,9.2192 -14.9204,14.4879 -24.9135,17.4556 -4.442,1.3191 -9.1335,1.5843 -13.7075,0.8428 -8.5742,-1.39 -17.0414,-4.1238 -23.1309,-10.6051 -10.9934,-10.6014 -13.097,-29.3498 -3.197,-41.3949 7.879,-10.3539 24.0698,-14.7265 35.3313,-7.2808 6.0869,3.9092 8.5114,10.9598 10.8367,17.5132 0.4534,1.2778 1.6334,2.1536 2.9871,2.229 0.0203,0.0011 0.0405,0.0023 0.0608,0.0034 1.7712,0.0985 3.3305,-1.1889 3.5396,-2.9505 0.0806,-0.6793 0.0901,-1.4311 0.0489,-2.2084 -0.2642,-4.9735 -2.4902,-9.7188 -6.1361,-13.1119 -8.8853,-8.2691 -23.1087,-9.948 -34.5816,-6.7341 -17.5108,5.3213 -28.9579,24.7296 -24.2966,42.6323 2.3715,5.5716 5.7325,10.5715 9.6749,15.1093 8.0254,9.2375 19.9161,14.214 32.1291,13.4514 4.3621,-0.2724 8.7057,-0.7215 12.9972,-1.6035 11.7359,-3.0938 22.4816,-10.2507 28.8754,-20.6871 8.7657,-12.9939 9.3846,-29.4529 7.8787,-44.53 -3.2585,-20.914 -13.6949,-40.8173 -29.9066,-54.5538 -19.0577,-16.3145 -44.3443,-25.2659 -69.4451,-24.2347 -20.9757,0.5363 -41.0646,8.807 -58.3076,20.4397 -9.3433,6.992 -17.779,15.2421 -24.7297,24.6472 -16.4176,24.709 -20.4395,55.2343 -18.4388,84.2747 3.0319,28.2566 11.7975,55.3787 21.9244,81.779 -17.7374,-12.8908 -36.8157,-24.1727 -57.7094,-31.1234 -9.8176,-3.3413 -19.8002,-6.2082 -30.0302,-7.9202 -9.6114,-1.5881 -19.3465,-2.1243 -29.0403,-2.805 18.1707,-8.7657 35.8051,-19.6353 48.6136,-35.5373 19.9034,-23.4097 30.4223,-54.7188 27.4108,-85.4297 -0.99,-17.0778 -7.6725,-33.0623 -15.0356,-48.2838 3.6507,-3.3619 10.395,-12.4782 10.2714,-13.2207 -5.177,0.66 -10.395,1.1962 -15.5926,1.485 5.1976,-5.7337 11.1787,-10.7045 17.0984,-15.6958 -7.6522,-0.0413 -15.366,0 -22.853,1.7737 -4.1457,0.66 -8.7244,2.4544 -12.5609,-0.165 -9.013,-5.0326 -18.4802,-9.7765 -28.9164,-10.7252 -3.7706,-0.4391 -7.2591,-0.2256 -9.9982,0.1551 -0.1324,0.0184 -0.2477,0.0398 -0.3759,0.0589 l 0.0984,-18.606 c 1.8483,-0.959 3.006,-3.0649 2.4456,-5.3957 -0.3946,-1.6413 -1.7144,-3.0005 -3.3481,-3.4256 -3.1854,-0.8289 -6.0492,1.5528 -6.0492,4.6031 0,1.9402 1.1632,3.6024 2.8259,4.3476 l -0.1022,19.3034 c -0.8512,0.2211 -1.3366,0.3824 -1.3366,0.3824 -0.4565,0.1667 -0.9109,0.3417 -1.3669,0.5108 l -4.7223,-25.0386 c 1.4554,-1.1262 2.263,-3.0508 1.67,-5.1395 -0.4412,-1.5542 -1.7254,-2.8135 -3.2885,-3.222 -3.1875,-0.8329 -6.0545,1.5498 -6.0545,4.6018 0,2.2418 1.5519,4.1084 3.6364,4.6193 l 4.8426,25.6771 c -0.8299,0.3268 -1.6592,0.6536 -2.4835,0.9935 0.0775,-0.4401 0.0453,-0.9036 -0.1826,-1.3279 l -8.1121,-15.0973 c 0.7738,-1.0924 1.1124,-2.5136 0.7117,-4.0257 -0.4267,-1.6103 -1.7457,-2.9283 -3.3611,-3.3352 -3.1691,-0.7983 -6.0086,1.5762 -6.0086,4.6135 0,2.634 2.1355,4.7696 4.7696,4.7696 0.0952,0 0.1838,-0.0224 0.2777,-0.028 l 8.0892,15.0548 c 0.1629,0.3031 0.3986,0.5373 0.6649,0.7181 -6.112,2.7008 -11.9919,5.8812 -17.2973,9.9901 -20.8317,15.6753 -37.5175,35.9498 -54.2445,55.7295 -10.8076,13.6539 -22.2547,26.8128 -34.0729,39.5798 -13.7362,14.3964 -28.0503,29.0197 -46.3242,37.5586 -7.3427,3.3824 -15.2008,5.4244 -23.0385,7.2188 6.6826,6.8681 13.3447,13.8188 20.8521,19.8002 4.62,3.5888 9.4878,6.8682 14.3757,10.0858 13.1798,8.8275 27.8854,14.9327 42.5914,20.7077 19.14,5.4244 38.8166,9.0545 58.782,8.807 31.78346,1.904261 -15.8867,1.651855 63.3609,5.5273 14.8196,0.866 29.1321,4.9619 43.5108,8.3815 1.3865,0.3298 2.7313,0.7998 4.0161,1.4168 5.4026,2.5946 20.7319,10.0461 28.9308,14.952 2.0419,1.2375 4.1044,2.5162 6.1465,3.8156 6.0844,3.8569 11.8799,8.1676 17.3869,12.829 19.1816,15.9226 34.9184,35.7641 46.4481,57.8331 12.21,23.3478 21.1409,48.5724 24.7709,74.7459 1.6912,10.127 1.918,20.3984 1.7325,30.6285 v 1.7118 c -0.062,4.4963 -0.2888,9.0339 -0.7631,13.5302 -1.5469,11.9008 -3.8983,23.7397 -7.5076,35.2073 -4.4551,13.7159 -10.189,27.0192 -17.4078,39.4974 -10.8696,18.3152 -23.884,35.3517 -38.5278,50.8 -1.0726,1.0724 -2.1245,2.145 -3.1764,3.2175 -8.6625,8.7038 -17.6346,17.1189 -26.9777,25.0802 -15.18272,43.95466 14.95341,31.68865 42.53565,22.5909 70.1052,-40.8998 87.11515,-54.4154 146.72215,-109.2167 63.8557,-58.555 123.5659,-121.3589 186.6379,-180.7184 33.9286,-31.4328 68.6613,-62.2263 106.8799,-88.3998 2.2897,-1.5469 4.5994,-3.0525 6.9303,-4.5582 1.2372,-0.7836 3.7124,-2.3512 4.9498,-3.135 38.1567,-25.6372 81.4491,-44.0143 127.093,-50.5938 0.7629,-0.0206 2.2686,-0.0618 3.0112,-0.0618 35.1659,-2.7225 70.9507,2.0832 103.6418,15.4689 29.5559,11.4263 57.1112,27.679 82.1915,46.9842 8.6215,6.5176 16.9333,13.4477 24.9565,20.7283 1.5469,1.382 3.1558,2.7845 4.7439,4.1663 11.8389,10.2302 22.5846,21.6565 33.021,33.2892 18.2738,20.9758 34.7739,43.5605 48.3248,67.8776 73.3786,138.02609 81.9822,323.4621 46.242,458.82743 -2.2688,12.8908 -5.4657,25.5959 -8.9926,38.198 -9.5289,32.5879 -24.0284,63.7733 -43.0245,91.9268 -14.0663,20.9758 -30.1125,40.8586 -49.0879,57.5856 -8.9926,9.0957 -18.8722,17.284 -29.0815,24.9565 -4.7233,3.6507 -9.6735,7.0126 -14.6029,10.3539 -11.8801,7.8376 -24.3379,14.7883 -37.1667,20.9346 -7.3837,3.5476 -14.912,6.8064 -22.5845,9.6321 -10.2507,3.8569 -20.8108,6.7444 -31.4948,9.0132 -42.6323,10.3333 -89.2455,6.0432 -128.124,-14.8708 -10.1064,-5.2387 -19.5321,-11.6945 -28.4628,-18.7484 -13.6748,-10.5395 -25.8641,-23.0178 -36.1147,-36.8985 -29.2261,-38.6105 -42.4263,-89.7198 -32.2375,-137.4054 7.3633,-38.9405 31.4331,-74.2921 64.8254,-95.5981 27.3489,-16.8919 60.8032,-23.6158 92.5247,-17.9232 6.1875,1.1137 12.2721,2.7637 18.2948,4.6819 36.8158,11.7977 68.4344,40.4667 81.7789,76.9734 8.6831,22.8322 10.1683,48.49 3.3826,72.0028 -2.743,11.0757 -7.9613,21.3677 -13.9427,30.9997 -11.6946,15.6958 -27.1635,29.1641 -45.9735,35.3517 -33.2894,11.7564 -75.1172,5.012 -98.4855,-22.8115 -0.4537,-0.5569 -1.4027,-1.6706 -1.877,-2.2275 -16.5829,-18.0471 -15.9436,-44.3443 -13.2209,-67.0939 -0.062,-3.0526 -0.1031,-6.0638 -0.2268,-9.0751 -0.4744,-6.0638 -1.7118,-12.0245 -3.5271,-17.7996 -0.5566,-1.2994 -1.6499,-3.9188 -2.2068,-5.2388 -3.9395,0.1444 -9.3843,-0.66 -11.2614,3.795 -4.9294,10.0858 -3.1967,21.7596 -4.0013,32.6085 3.2383,30.9791 18.6453,60.4732 42.3436,80.686 8.0646,6.1051 17.0365,10.9726 26.4418,14.7058 7.1362,1.8356 14.3344,3.3826 21.6152,4.5995 38.7343,4.0013 79.077,-14.4583 100.1356,-47.4587 7.2599,-11.1377 12.3132,-23.5335 16.0669,-36.218 4.8469,-26.751 3.1144,-55.1107 -8.2295,-80.0672 -21.0995,-48.8612 -70.1877,-82.7278 -122.6172,-88.8949 -24.9976,-1.8769 -50.3254,1.7119 -73.5288,11.2614 -5.899,2.4751 -11.5917,5.4451 -17.0365,8.7451 -6.8477,4.3932 -13.4684,9.1163 -19.6559,14.3759 -11.777,10.3538 -22.0483,22.3371 -30.8966,35.2485 -2.7845,4.0839 -5.4038,8.312 -7.7964,12.6433 -4.7645,9.3845 -9.4053,18.8928 -12.9114,28.834 -5.177,16.9334 -8.7658,34.3618 -9.859,52.0582 -0.1855,6.8682 0.1033,13.757 0.495,20.6458 0.1033,2.0831 0.2477,4.1663 0.4127,6.2908 1.877,16.2321 6.2289,32.0516 11.4675,47.4999 5.899,11.674 11.3232,23.6366 18.5627,34.5886 24.3793,34.1966 57.9984,62.2881 97.1864,77.8809 35.7642,14.4583 75.3851,17.7378 113.4388,12.8083 7.8169,-1.1137 15.5719,-2.7019 23.3477,-4.125 108.2961,-32.00426 179.0347,-82.55123 220.3807,-174.799 9.6321,-18.7689 18.109,-38.1772 24.3173,-58.3488 37.5797,-146.28466 52.7651,-327.98098 -4.1456,-455.40353 -7.0746,-21.6565 -15.9227,-42.6943 -26.0291,-63.072 -2.2482,-4.4963 -4.5581,-8.9721 -6.9921,-13.3446 -4.0631,-6.8475 -8.3533,-13.592 -11.7356,-20.8108 0,0 -20.0264,-34.59519 -62.289,-80.9947 z m -378.8409,-379.3541 c -4.746,0 -8.5935,-3.8476 -8.5935,-8.594 0,-4.7464 3.8475,-8.594 8.5935,-8.594 4.7465,0 8.594,3.8476 8.594,8.594 0,4.7464 -3.8475,8.594 -8.594,8.594 z m 18.104,269.3445 c 1.6357,1.9971 3.2186,4.0369 4.6417,6.2027 -1.423,-2.1658 -3.0062,-4.2057 -4.6417,-6.2027 z m -586.759,-110.6515 c 5.2087,0 9.4455,4.2368 9.4455,9.4455 0,5.2087 -4.2368,9.4455 -9.4455,9.4455 -5.2087,0 -9.4455,-4.2368 -9.4455,-9.4455 0,-5.2087 4.2368,-9.4455 9.4455,-9.4455 z m 432.6689,220.826 c -10.23,1.2788 -17.4282,-8.5182 -18.9957,-17.5521 -1.0726,-8.7244 4.1457,-17.5933 11.6737,-21.8627 13.489,-7.0126 26.2765,7.5901 28.0918,20.0477 1.2165,11.282 -11.076,18.2534 -20.7698,19.3671 z"
         id="path2853" />
      <path
         style="fill:#1464cb;fill-opacity:1"
         d="m 760.7766,193.4438 c -7.5876,-5.8088 -20.5628,-1.6037 -28.9805,9.3922 -1.0084,1.3173 -1.899,2.6739 -2.6841,4.0487 -0.9051,-1.2992 -1.9135,-2.5705 -3.0357,-3.7925 -9.3671,-10.1993 -22.666,-13.2275 -29.7041,-6.7637 -7.0381,6.4638 -5.15,19.9718 4.2171,30.1711 0.0873,0.0951 0.1804,0.179 0.2686,0.2727 -0.1193,0.0482 -0.2393,0.085 -0.3583,0.1344 -12.788,5.3139 -20.1821,16.7752 -16.5153,25.5996 3.6668,8.8244 17.0061,11.6702 29.7938,6.3566 0.1194,-0.0497 0.2299,-0.1085 0.3482,-0.1591 0.004,0.1286 -0.002,0.2536 0.004,0.3826 0.6197,13.8341 8.8607,24.7024 18.4071,24.2747 9.5464,-0.4276 16.7828,-11.9889 16.1633,-25.8231 -0.006,-0.1289 -0.0232,-0.253 -0.0303,-0.3814 0.1223,0.0399 0.2377,0.0886 0.361,0.1272 13.2118,4.1493 26.2432,0.1222 29.1063,-8.9945 2.8632,-9.1168 -5.5259,-19.8713 -18.7377,-24.0205 -0.1231,-0.0388 -0.2455,-0.0648 -0.3689,-0.1019 0.0794,-0.1015 0.1646,-0.193 0.243,-0.2955 8.4175,-10.996 9.0904,-24.6188 1.5027,-30.4276 z m -23.7445,51.0959 c -5.5445,5.0921 -14.1667,4.7252 -19.2587,-0.8191 -5.092,-5.5444 -4.7254,-14.1666 0.8192,-19.2587 5.5442,-5.0918 14.1666,-4.7251 19.2586,0.8193 5.0919,5.5443 4.7252,14.1666 -0.8191,19.2585 z"
         id="path2855" />
      <path
         sodipodi:nodetypes="sscsssccssccssccssccsssssss"
         style="fill:#9e990a;fill-opacity:1"
         d="m 1448.8042,711.08403 c 11.2376,0 5.8605,-22.9901 -4.947,-34.6925 -1.2948,-1.4019 -2.6572,-2.6779 -4.061,-3.8382 1.6504,-0.7703 3.2897,-1.6632 4.8953,-2.6949 13.4012,-8.6111 19.4481,-23.0884 13.506,-32.3361 -5.9421,-9.2476 -21.623,-9.7635 -35.0244,-1.1524 -0.1249,0.0803 -0.2383,0.1693 -0.3619,0.2508 -0.031,-0.1447 -0.049,-0.2879 -0.082,-0.4326 -3.5083,-15.5384 -15.0446,-26.1722 -25.7668,-23.7512 -10.7223,2.421 -16.5703,16.9799 -13.0621,32.5179 0.033,0.1451 0.078,0.2819 0.1118,0.4259 -0.1467,-0.0203 -0.287,-0.052 -0.4344,-0.0709 -15.801,-2.0176 -29.7391,5.1858 -31.1315,16.0895 -1.3922,10.9038 10.2883,21.3785 26.0895,23.3962 0.1473,0.0187 0.2913,0.0234 0.4384,0.0406 -0.069,0.1308 -0.1472,0.252 -0.2152,0.384 -7.3003,14.1582 -5.2982,29.7194 4.4717,34.7569 9.7698,5.0375 23.608,-2.3561 30.9083,-16.5142 0.068,-0.1319 0.1217,-0.2656 0.188,-0.3981 0.099,0.11 0.1864,0.2245 0.2871,0.3336 10.8072,11.7025 22.9523,7.6857 34.1901,7.6857 z m -53.2426,-36.9574 c -4.6812,-7.2852 -2.5702,-16.9853 4.7147,-21.6663 7.285,-4.681 16.9852,-2.5704 21.6664,4.7148 4.6809,7.2848 2.5701,16.9852 -4.715,21.6662 -7.2848,4.681 -16.9851,2.5701 -21.6661,-4.7147 z"
         id="path2859" />
      <path
         style="fill:#8814cb;fill-opacity:1"
         d="m 1630.5366,345.568 c 6.468,-5.9732 4.694,-18.414 -3.9623,-27.787 -1.037,-1.1228 -2.1283,-2.1449 -3.2527,-3.0742 1.3219,-0.617 2.6349,-1.3322 3.9209,-2.1585 10.7338,-6.8971 15.577,-18.4927 10.8176,-25.8996 -4.7594,-7.4069 -17.3191,-7.8201 -28.0529,-0.923 -0.1,0.0643 -0.1908,0.1356 -0.2898,0.2009 -0.025,-0.1159 -0.04,-0.2306 -0.066,-0.3465 -2.8101,-12.4455 -12.0499,-20.9626 -20.6379,-19.0235 -8.588,1.9391 -13.272,13.6001 -10.4622,26.0452 0.026,0.1162 0.062,0.2258 0.09,0.3412 -0.1176,-0.0163 -0.2299,-0.0417 -0.348,-0.0568 -12.6558,-1.616 -23.8196,4.1536 -24.9347,12.887 -1.1151,8.7334 8.2405,17.123 20.8964,18.7392 0.118,0.015 0.2333,0.0188 0.3511,0.0325 -0.055,0.1048 -0.1179,0.2018 -0.1724,0.3076 -5.8472,11.34 -4.2437,23.8038 3.5815,27.8385 7.8252,4.0348 18.9089,-1.8871 24.7561,-13.2271 0.055,-0.1056 0.097,-0.2127 0.1505,-0.3188 0.08,0.0881 0.1493,0.1797 0.23,0.2672 8.6564,9.3728 20.9169,12.1289 27.3849,6.1557 z m -42.6445,-29.6011 c -3.7494,-5.8351 -2.0586,-13.6044 3.7762,-17.3536 5.835,-3.7493 13.6042,-2.0587 17.3536,3.7763 3.7493,5.8348 2.0585,13.6042 -3.7764,17.3535 -5.8347,3.7493 -13.6043,2.0586 -17.3534,-3.7762 z"
         id="path2863" />
      <path
         style="fill:#56cb14;fill-opacity:1"
         sodipodi:nodetypes="ssccssccssccssccssccssssss"
         d="m 836.30039,547.32802 c -10.84,-19.4166 -42.4382,-22.422 -70.5759,-6.7128 -3.3706,1.882 -6.5261,3.9568 -9.4734,6.1678 -0.7328,-3.611 -1.712,-7.2581 -2.9802,-10.9049 -10.5844,-30.4381 -36.1917,-49.1922 -57.1957,-41.8883 -21.004,7.3039 -29.4504,37.8997 -18.8661,68.3377 0.099,0.2838 0.2201,0.549 0.3217,0.8307 -0.2994,-0.007 -0.5895,-0.0395 -0.8895,-0.0439 -32.2228,-0.4642 -58.6041,17.1848 -58.9246,39.4201 -0.3203,22.2354 25.5417,40.637 57.7635,41.1016 0.301,0.004 0.5913,-0.0193 0.8907,-0.0181 -0.1095,0.2788 -0.2383,0.5398 -0.3455,0.8208 -11.4568,30.1204 -3.8955,60.9471 16.8895,68.8531 20.785,7.906 46.9219,-10.1023 58.3793,-40.2228 0.1066,-0.2808 0.1841,-0.5617 0.2875,-0.8427 0.2245,0.1982 0.4258,0.4089 0.6534,0.6052 24.3855,21.0679 55.9392,24.5055 70.4771,7.6783 14.5378,-16.8272 6.5552,-47.5477 -17.8303,-68.6156 -0.2272,-0.1965 -0.4647,-0.3653 -0.6937,-0.5584 0.2633,-0.1435 0.5297,-0.2602 0.792,-0.4067 28.1377,-15.7093 42.1603,-44.1843 31.3202,-63.6011 z m -97.9197,87.1985 c -16.5468,5.7539 -34.6239,-2.9953 -40.3776,-19.5413 -5.7538,-16.5463 2.9948,-34.6237 19.5415,-40.3776 16.5459,-5.7536 34.6234,2.9954 40.3772,19.5417 5.7537,16.5461 -2.9953,34.6237 -19.5411,40.3772 z"
         id="path2867" />
    </g>
    <path
       id="path2853-0"
       d="m 128.18558,154.07755 c 0.43517,-0.12405 0.84865,-0.31624 1.25211,-0.52415 0.44016,-0.23935 0.87864,-0.48571 1.30714,-0.74952 0.68855,-0.43854 1.35712,-0.9155 2.01069,-1.41344 0.17007,-0.13278 0.34011,-0.2708 0.51017,-0.40708 0.80697,-0.62896 1.56391,-1.32259 2.28082,-2.06163 0.97366,-0.96267 1.82064,-2.0494 2.65928,-3.13961 -1.22378,-0.18694 -2.46587,-0.12404 -3.69132,-0.2743 -0.54519,-0.0472 -1.08706,-0.10483 -1.62725,-0.17645 -0.4618,-0.0664 -0.91865,-0.14677 -1.37381,-0.23412 -0.0684,-0.014 -0.20339,-0.0402 -0.27174,-0.0542 -2.68429,-0.54336 -5.36523,-1.41344 -7.64102,-3.04526 -2.1941,-1.52525 -3.92305,-3.83673 -4.62997,-6.51159 -0.26008,-0.90853 -0.37012,-1.85196 -0.51351,-2.78495 -0.27843,-1.73665 -1.17539,-3.47329 -2.69928,-4.32068 -2.62759,-1.44138 -6.08868,-0.7533 -7.26243,2.13822 -0.1167,0.21664 -0.20006,0.49094 -0.44681,0.57829 -0.62024,0.29528 -3.43359,1.09225 -4.04546,1.405 0.75193,0.43854 3.87295,1.3169 4.48484,1.98432 0.2204,0.46923 0.31964,0.64045 0.40579,0.79886 -1.23377,0.8002 -2.20411,1.98824 -2.82098,3.358 -1.38884,3.07848 -1.46719,6.76842 -0.2301,9.91677 0.42181,0.98014 0.95533,1.9166 1.60723,2.74999 0.30844,0.38262 0.6219,0.7635 0.97701,1.10244 1.19042,0.96791 2.41752,1.94633 3.8447,2.50191 4.68571,1.83513 12.8083,0.0624 15.91389,-0.83686 z m -17.26243,-22.83809 c -0.38364,0 -0.69466,-0.32593 -0.69466,-0.72799 0,-0.40206 0.31102,-0.72799 0.69466,-0.72799 0.38369,0 0.6947,0.32593 0.6947,0.72799 0,0.40206 -0.31101,0.72799 -0.6947,0.72799 z m 1.46345,22.81584 c 0.13222,0.16917 0.26018,0.34196 0.37521,0.52542 -0.11503,-0.18346 -0.24301,-0.35626 -0.37521,-0.52542 z"
       sodipodi:nodetypes="cccccccccccccccccccccccccccssscscsc"
       style="fill:#0290c4;fill-opacity:1;stroke-width:0.0827495" />
    <path
       id="path2853-3"
       d="m 63.886298,160.44892 c 1.468837,-0.74254 2.894323,-1.66329 3.929704,-3.01032 1.608901,-1.98301 2.459201,-4.63517 2.215765,-7.23665 -0.08003,-1.44664 -0.09098,-1.74192 -0.686183,-3.03132 0.295106,-0.28478 1.578079,-2.39219 1.568088,-2.45509 -0.418485,0.0559 -2.107306,0.37777 -2.527457,0.40224 0.420151,-0.4857 1.894216,-1.29839 2.372738,-1.7212 -0.618569,-0.004 -2.232698,0.39162 -2.837913,0.54187 -0.33512,0.0559 -0.705242,0.20791 -1.015367,-0.014 -0.72857,-0.4263 -1.493856,-0.82815 -2.337471,-0.90852 -0.304799,-0.0372 -0.586793,-0.0191 -0.80821,0.0131 -0.0107,0.002 -0.02002,0.003 -0.03039,0.005 l 0.008,-1.57609 c 0.149408,-0.0812 0.242991,-0.25962 0.197691,-0.45706 -0.0319,-0.13903 -0.138585,-0.25417 -0.270646,-0.29018 -0.257493,-0.0702 -0.48899,0.13154 -0.48899,0.38992 0,0.16436 0.09403,0.30516 0.228433,0.36828 l -0.0083,1.63517 c -0.06881,0.0187 -0.108045,0.0324 -0.108045,0.0324 -0.0369,0.0141 -0.07363,0.029 -0.110494,0.0433 l -0.381729,-2.12099 c 0.117648,-0.0954 0.182931,-0.25843 0.134995,-0.43536 -0.03566,-0.13165 -0.139474,-0.23833 -0.265827,-0.27293 -0.257664,-0.0705 -0.489419,0.13128 -0.489419,0.38981 0,0.1899 0.125449,0.34802 0.29395,0.3913 l 0.391454,2.17507 c -0.06709,0.0277 -0.134122,0.0554 -0.200755,0.0842 0.0063,-0.0373 0.0037,-0.0765 -0.01476,-0.11248 l -0.655745,-1.27888 c 0.06255,-0.0925 0.08992,-0.21292 0.05753,-0.34101 -0.03449,-0.1364 -0.141114,-0.24805 -0.271696,-0.28252 -0.256176,-0.0676 -0.485708,0.13352 -0.485708,0.3908 0,0.22313 0.172624,0.40403 0.385553,0.40403 0.0077,0 0.01486,-0.002 0.02245,-0.002 l 0.653895,1.27528 c 0.01317,0.0257 0.03222,0.0455 0.05375,0.0608 -0.494066,0.22878 -0.969371,0.49818 -1.398236,0.84624 -1.683942,1.32787 -3.032747,3.0453 -4.384882,4.72081 -0.873584,1.15662 -1.798916,2.27129 -2.754246,3.35277 -1.110372,1.2195 -2.267459,2.45822 -3.744639,3.18154 -0.593551,0.28652 -1.228764,0.4595 -1.862328,0.6115 0.540191,0.58179 1.078725,1.17057 1.685589,1.67725 0.37346,0.304 0.766951,0.58179 1.162067,0.85435 1.065396,0.74777 2.25413,1.26493 3.442897,1.75412 1.547191,0.4595 3.137759,0.767 4.751672,0.74603 1.839429,-0.0471 3.057114,-0.29446 4.583215,-0.80058 z m 1.069352,-15.76713 c 0.421048,0 0.763532,0.3589 0.763532,0.80012 0,0.44122 -0.342484,0.80011 -0.763532,0.80011 -0.421048,0 -0.763532,-0.35889 -0.763532,-0.80011 0,-0.44122 0.342484,-0.80012 0.763532,-0.80012 z"
       sodipodi:nodetypes="ccccccccccsccssscccccssscccccssssccccccccccccccsssc"
       style="fill:#02c44a;fill-opacity:1;stroke-width:0.0827495" />
    <path
       id="path2853-6"
       d="m 70.869376,172.50082 c 1.074051,1.45743 1.958604,3.07197 2.528296,4.80459 1.066794,3.21688 0.977634,5.98439 0.0075,8.28993 -0.455066,1.08144 -1.59041,2.47173 -2.542047,3.32827 -2.406547,2.16605 -4.637496,4.27113 -5.637339,8.56756 -0.222721,1.77334 -0.303809,3.5823 -0.09533,5.36682 0.103487,0.88582 0.639555,2.27033 1.466198,3.06605 2.257106,2.17268 6.711848,1.60332 7.85304,-0.62129 0.768836,-1.49875 0.207559,-3.53026 -0.791142,-4.94182 -0.178441,-0.23278 -0.369426,-0.45476 -0.573619,-0.66209 -0.63757,-0.63126 -1.494551,-0.85272 -2.340272,-0.8748 -0.375923,-0.01 -0.746968,0.0718 -1.085668,0.23284 -0.634901,0.3019 -1.230499,0.71101 -1.554764,1.37326 -0.610735,1.10598 -0.342177,2.68046 0.705549,3.4445 0.851546,0.67065 2.211742,0.67091 2.916075,-0.18373 0.383354,-0.45255 0.409413,-1.08059 0.439219,-1.66592 0.0058,-0.11413 0.07741,-0.21148 0.180967,-0.2474 0.0015,-5.3e-4 0.0032,-0.001 0.0046,-0.001 0.135592,-0.0466 0.286462,0.0237 0.343339,0.16264 0.02189,0.0536 0.04002,0.11467 0.05466,0.17894 0.0941,0.41122 0.03034,0.84699 -0.175045,1.20376 -0.500519,0.86949 -1.568184,1.31923 -2.534688,1.30963 -1.484739,-0.0486 -2.822544,-1.37875 -2.872657,-2.94057 0.05603,-0.50632 0.202206,-0.9878 0.404261,-1.44441 0.411315,-0.9295 1.221512,-1.59672 2.189077,-1.80322 0.345591,-0.0737 0.693798,-0.13271 1.047948,-0.1552 0.984192,-0.006 1.985029,0.34098 2.722943,1.05104 0.981371,0.86634 1.377241,2.20053 1.63934,3.45642 0.571572,2.73879 -0.820878,4.01296 -2.289589,4.56891 -1.38899,0.52577 -3.383598,0.84667 -5.771695,-0.38244 -3.534278,-1.81903 -3.405321,-5.07607 -3.084805,-9.45176 1.161917,-3.53172 1.722673,-5.20232 6.011735,-9.96414 4.37742,-4.85991 2.389524,-8.71263 0.588098,-12.43517 -0.662717,-1.01999 -1.369321,-2.34682 -2.218478,-3.20514 -1.48171,-1.62971 -1.138799,-1.98906 -3.770584,-3.75664 -0.627721,-1.4059 0.732227,-1.93534 1.520926,-1.43192 2.519697,2.99366 3.420347,3.30426 4.713983,5.7635 z"
       sodipodi:nodetypes="ccsscsssccsscccsscscsccssccssscscccccc"
       style="fill:#c40202;fill-opacity:1;stroke-width:0.0827495" />
  </g>
</svg>
