<?xml version="1.0" encoding="UTF-8" standalone="no"?>
<!-- Created with Inkscape (http://www.inkscape.org/) -->

<svg
   width="65mm"
   height="65mm"
   viewBox="0 0 65 65.000001"
   version="1.1"
   id="svg1"
   xml:space="preserve"
   sodipodi:docname="vocal-flair-unstroked.svg"
   inkscape:version="1.3.2 (091e20e, 2023-11-25)"
   xmlns:inkscape="http://www.inkscape.org/namespaces/inkscape"
   xmlns:sodipodi="http://sodipodi.sourceforge.net/DTD/sodipodi-0.dtd"
   xmlns="http://www.w3.org/2000/svg"
   xmlns:svg="http://www.w3.org/2000/svg"><sodipodi:namedview
     id="namedview1"
     pagecolor="#ffffff"
     bordercolor="#666666"
     borderopacity="1.0"
     inkscape:showpageshadow="2"
     inkscape:pageopacity="0.0"
     inkscape:pagecheckerboard="0"
     inkscape:deskcolor="#d1d1d1"
     inkscape:document-units="mm"
     inkscape:zoom="0.84096521"
     inkscape:cx="171.82637"
     inkscape:cy="96.912452"
     inkscape:window-width="1576"
     inkscape:window-height="964"
     inkscape:window-x="0"
     inkscape:window-y="25"
     inkscape:window-maximized="0"
     inkscape:current-layer="layer1" /><defs
     id="defs1"><rect
       x="133.1803"
       y="285.38635"
       width="532.72119"
       height="551.74695"
       id="rect1" /><rect
       x="153.28542"
       y="392.53494"
       width="206.10674"
       height="151.21399"
       id="rect34727" /><rect
       id="rect2898"
       height="48.310249"
       width="50.803288"
       y="157.10223"
       x="96.357849" /></defs><g
     inkscape:label="Layer 1"
     inkscape:groupmode="layer"
     id="layer1"
     transform="translate(-36.782293,-79.212735)"><path
       style="font-size:80px;line-height:1.25;font-family:'Heiti SC';-inkscape-font-specification:'Heiti SC, Normal';white-space:pre;stroke-width:0.264583"
       d="m 58.07596,82.768737 -6.752166,15.875 h -2.6035 l -6.646333,-15.875 h 3.534833 l 4.423833,10.8585 4.5085,-10.8585 z m 20.957889,14.088356 c -0.552199,0.809037 -3.509163,1.786644 -5.252214,1.786644 -1.778,0 -3.266723,-0.58561 -4.466167,-1.756834 -1.185333,-1.171223 -1.778,-2.603499 -1.778,-4.296833 0,-1.693333 0.599724,-3.139723 1.799167,-4.339166 1.199444,-1.213557 2.751667,-1.820334 4.656667,-1.820334 1.773659,0 3.638476,0.468948 5.197857,1.831984 -0.762996,1.024241 -1.139027,1.855 -1.49031,2.673386 -1.030111,-1.340557 -2.105937,-1.77487 -3.771047,-1.77487 -4.357405,0 -4.181592,6.322573 0,6.322573 1.608666,0 2.770201,0.03056 3.870867,-1.324109 0.319236,0.822666 0.340334,1.396884 1.23318,2.697559 z m 13.162771,1.405644 h -2.772834 v -1.693334 c -1.255889,1.38289 -2.702277,2.074334 -4.339166,2.074334 -1.63689,0 -3.040944,-0.599723 -4.212167,-1.799167 -1.15711,-1.213556 -1.735667,-2.65289 -1.735667,-4.318 0,-1.679223 0.585611,-3.1115 1.756834,-4.296833 1.171223,-1.199444 2.596443,-1.799167 4.275666,-1.799167 1.693334,0 3.1115,0.68439 4.2545,2.053167 v -1.756833 h 2.772834 z m -6.985,-2.307167 c 1.744559,0 3.2385,-1.636289 3.2385,-3.3655 0,-1.769657 -1.237898,-3.407833 -3.259667,-3.407833 -1.937975,0 -3.2385,1.702998 -3.2385,3.386667 0,1.831736 1.463355,3.386666 3.259667,3.386666 z m 11.472346,2.307167 h -2.794 v -15.875 h 2.794 z M 57.546794,110.92042 h -5.566833 v 7.45066 h -3.407834 v -15.85631 h 9.503834 v 3.21982 h -6.096 v 2.8575 h 5.566833 z m 3.64068,7.45066 h -2.794 v -15.875 h 2.794 z M 79.539,101.96691 c 1.083929,0 1.858936,0.85379 1.883833,1.88384 0.02646,1.0941 -0.806103,1.86267 -1.883833,1.86267 -1.058709,0 -1.862667,-0.72744 -1.862667,-1.86267 0,-1.01183 0.680313,-1.88384 1.862667,-1.88384 z m 1.418167,16.40417 H 78.142 v -11.53583 h 2.815167 z m 7.556515,-11.36649 -0.910166,1.48166 c -0.23989,-0.127 -0.472723,-0.1905 -0.6985,-0.1905 -0.437444,0 -0.832557,0.21872 -1.185334,0.65617 -0.352776,0.42333 -0.620889,0.98778 -0.804333,1.69333 -0.169333,0.69145 -0.254,1.94733 -0.254,3.76767 v 3.95816 h -2.836333 v -11.53583 h 2.836333 v 1.24884 c 0.352777,-0.52212 0.705557,-0.91017 1.058333,-1.16417 0.36689,-0.254 0.776111,-0.381 1.227667,-0.381 0.465667,0 0.987777,0.15522 1.566333,0.46567 z"
       id="text1"
       aria-label="Vocal&#10;Flair"
       sodipodi:nodetypes="cccccccccscscsccsscccccscscsccccssssscccccccccccccccccccccssssscccccccsccsccccccsc" /><g
       transform="translate(32.048512,-8.6344999)"
       id="layer1-2"
       inkscape:label="Layer 1"><g
         id="g3880"
         transform="matrix(0.25122614,0.08300464,-0.08300464,0.25122614,41.385896,156.77046)"><g
           transform="translate(-31.67092,-17.667624)"
           style="fill:#000000;fill-opacity:1"
           id="g3794"><g
             style="fill:#000000;fill-opacity:1"
             transform="rotate(1.6641298,102.44125,103.40041)"
             id="g3804"><g
               style="fill:#000000;fill-opacity:1"
               transform="rotate(-3.7031712,101.11524,103.97432)"
               id="g3814"><g
                 style="fill:#000000;fill-opacity:1"
                 id="g3775"
                 transform="matrix(0.46504972,-0.2127359,0.2127359,0.46504972,132.65498,174.89825)"><g
                   style="fill:#000000;fill-opacity:1"
                   id="layer1-8"
                   inkscape:label="Ebene 1"
                   transform="translate(-272.0137,-922.08928)" /></g><g
                 style="fill:#000000;fill-opacity:1"
                 transform="matrix(0.28213505,-0.05262116,0.22926558,0.50849215,154.51475,164.79177)"
                 id="g3784"><g
                   style="fill:#000000;fill-opacity:1"
                   transform="translate(-272.0137,-922.08928)"
                   inkscape:label="Ebene 1"
                   id="g3790" /></g></g></g></g></g><g
         transform="matrix(0.08083549,0,0,0.08470875,27.177216,153.73552)"
         id="g2869"><circle
           fill="none"
           cx="1036.0046"
           cy="-274.1636"
           r="8.5939999"
           id="circle2843" /><path
           fill="none"
           d="m 1058.7504,9.9777 c -1.4231,-2.1658 -3.006,-4.2056 -4.6417,-6.2027 1.6354,1.997 3.2186,4.0369 4.6417,6.2027 z"
           id="path2845" /><path
           fill="none"
           d="m 892.6965,74.5347 c -7.528,4.2694 -12.7463,13.1383 -11.6737,21.8627 1.5675,9.0339 8.7657,18.8309 18.9957,17.5521 9.6938,-1.1137 21.9863,-8.0851 20.7698,-19.3671 C 918.973,82.1247 906.1854,67.522 892.6965,74.5347 Z"
           id="path2847" /><path
           fill="none"
           d="m 467.3496,-87.9855 c 5.2087,0 9.4455,-4.2368 9.4455,-9.4455 0,-5.2087 -4.2368,-9.4455 -9.4455,-9.4455 -5.2087,0 -9.4455,4.2368 -9.4455,9.4455 0,5.2087 4.2368,9.4455 9.4455,9.4455 z m 0,-15.9845 c 3.6054,0 6.5391,2.9337 6.5391,6.539 0,3.6053 -2.9337,6.539 -6.5391,6.539 -3.6054,0 -6.539,-2.9337 -6.539,-6.539 0,-3.6053 2.9336,-6.539 6.539,-6.539 z"
           id="path2849" /><path
           style="fill:#1464cb;fill-opacity:1"
           d="m 287.41195,-767.77503 c -7.5876,-5.8088 -20.5628,-1.6037 -28.9805,9.3922 -1.0084,1.3173 -1.899,2.6739 -2.6841,4.0487 -0.9051,-1.2992 -1.9135,-2.5705 -3.0357,-3.7925 -9.3671,-10.1993 -22.666,-13.2275 -29.7041,-6.7637 -7.0381,6.4638 -5.15,19.9718 4.2171,30.1711 0.0873,0.0951 0.1804,0.179 0.2686,0.2727 -0.1193,0.0482 -0.2393,0.085 -0.3583,0.1344 -12.788,5.3139 -20.1821,16.7752 -16.5153,25.5996 3.6668,8.8244 17.0061,11.6702 29.7938,6.3566 0.1194,-0.0497 0.2299,-0.1085 0.3482,-0.1591 0.004,0.1286 -0.002,0.2536 0.004,0.3826 0.6197,13.8341 8.8607,24.7024 18.4071,24.2747 9.5464,-0.4276 16.7828,-11.9889 16.1633,-25.8231 -0.006,-0.1289 -0.0232,-0.253 -0.0303,-0.3814 0.1223,0.0399 0.2377,0.0886 0.361,0.1272 13.2118,4.1493 26.2432,0.1222 29.1063,-8.9945 2.8632,-9.1168 -5.5259,-19.8713 -18.7377,-24.0205 -0.1231,-0.0388 -0.2455,-0.0648 -0.3689,-0.1019 0.0794,-0.1015 0.1646,-0.193 0.243,-0.2955 8.4175,-10.996 9.0904,-24.6188 1.5027,-30.4276 z m -23.7445,51.0959 c -5.5445,5.0921 -14.1667,4.7252 -19.2587,-0.8191 -5.092,-5.5444 -4.7254,-14.1666 0.8192,-19.2587 5.5442,-5.0918 14.1666,-4.7251 19.2586,0.8193 5.0919,5.5443 4.7252,14.1666 -0.8191,19.2585 z"
           id="path2855" /><path
           sodipodi:nodetypes="sscsssccssccssccssccsssssss"
           style="fill:#9e990a;fill-opacity:1"
           d="m -157.60682,-440.70742 c 11.2376,0 5.8605,-22.9901 -4.947,-34.6925 -1.2948,-1.4019 -2.6572,-2.6779 -4.061,-3.8382 1.6504,-0.7703 3.2897,-1.6632 4.8953,-2.6949 13.4012,-8.6111 19.4481,-23.0884 13.506,-32.3361 -5.9421,-9.2476 -21.623,-9.7635 -35.0244,-1.1524 -0.1249,0.0803 -0.2383,0.1693 -0.3619,0.2508 -0.031,-0.1447 -0.049,-0.2879 -0.082,-0.4326 -3.5083,-15.5384 -15.0446,-26.1722 -25.7668,-23.7512 -10.7223,2.421 -16.5703,16.9799 -13.0621,32.5179 0.033,0.1451 0.078,0.2819 0.1118,0.4259 -0.1467,-0.0203 -0.287,-0.052 -0.4344,-0.0709 -15.801,-2.0176 -29.7391,5.1858 -31.1315,16.0895 -1.3922,10.9038 10.2883,21.3785 26.0895,23.3962 0.1473,0.0187 0.2913,0.0234 0.4384,0.0406 -0.069,0.1308 -0.1472,0.252 -0.2152,0.384 -7.3003,14.1582 -5.2982,29.7194 4.4717,34.7569 9.7698,5.0375 23.608,-2.3561 30.9083,-16.5142 0.068,-0.1319 0.1217,-0.2656 0.188,-0.3981 0.099,0.11 0.1864,0.2245 0.2871,0.3336 10.8072,11.7025 22.9523,7.6857 34.1901,7.6857 z m -53.2426,-36.9574 c -4.6812,-7.2852 -2.5702,-16.9853 4.7147,-21.6663 7.285,-4.681 16.9852,-2.5704 21.6664,4.7148 4.6809,7.2848 2.5701,16.9852 -4.715,21.6662 -7.2848,4.681 -16.9851,2.5701 -21.6661,-4.7147 z"
           id="path2859" /><path
           style="fill:#8814cb;fill-opacity:1"
           d="m 434.27095,-328.18674 c 6.468,-5.9732 4.694,-18.414 -3.9623,-27.787 -1.037,-1.1228 -2.1283,-2.1449 -3.2527,-3.0742 1.3219,-0.617 2.6349,-1.3322 3.9209,-2.1585 10.7338,-6.8971 15.577,-18.4927 10.8176,-25.8996 -4.7594,-7.4069 -17.3191,-7.8201 -28.0529,-0.923 -0.1,0.0643 -0.1908,0.1356 -0.2898,0.2009 -0.025,-0.1159 -0.04,-0.2306 -0.066,-0.3465 -2.8101,-12.4455 -12.0499,-20.9626 -20.6379,-19.0235 -8.588,1.9391 -13.272,13.6001 -10.4622,26.0452 0.026,0.1162 0.062,0.2258 0.09,0.3412 -0.1176,-0.0163 -0.2299,-0.0417 -0.348,-0.0568 -12.6558,-1.616 -23.8196,4.1536 -24.9347,12.887 -1.1151,8.7334 8.2405,17.123 20.8964,18.7392 0.118,0.015 0.2333,0.0188 0.3511,0.0325 -0.055,0.1048 -0.1179,0.2018 -0.1724,0.3076 -5.8472,11.34 -4.2437,23.8038 3.5815,27.8385 7.8252,4.0348 18.9089,-1.8871 24.7561,-13.2271 0.055,-0.1056 0.097,-0.2127 0.1505,-0.3188 0.08,0.0881 0.1493,0.1797 0.23,0.2672 8.6564,9.3728 20.9169,12.1289 27.3849,6.1557 z m -42.6445,-29.6011 c -3.7494,-5.8351 -2.0586,-13.6044 3.7762,-17.3536 5.835,-3.7493 13.6042,-2.0587 17.3536,3.7763 3.7493,5.8348 2.0585,13.6042 -3.7764,17.3535 -5.8347,3.7493 -13.6043,2.0586 -17.3534,-3.7762 z"
           id="path2863" /></g><path
         id="path2853-0"
         d="m 42.381801,127.42205 c 0.219009,-0.0624 0.427101,-0.15915 0.630151,-0.26379 0.22152,-0.12046 0.442195,-0.24444 0.657847,-0.37721 0.346527,-0.22071 0.682999,-0.46075 1.011923,-0.71135 0.08559,-0.0668 0.171167,-0.13628 0.256754,-0.20487 0.406125,-0.31654 0.787071,-0.66562 1.147871,-1.03756 0.490016,-0.48448 0.916276,-1.0314 1.33834,-1.58007 -0.615894,-0.0941 -1.241002,-0.0624 -1.857736,-0.13805 -0.274379,-0.0238 -0.547086,-0.0528 -0.818949,-0.0888 -0.23241,-0.0334 -0.46233,-0.0739 -0.691399,-0.11783 -0.03442,-0.007 -0.10236,-0.0202 -0.136759,-0.0273 -1.350927,-0.27345 -2.700167,-0.71134 -3.845507,-1.53259 -1.104228,-0.76761 -1.97436,-1.93092 -2.330132,-3.2771 -0.130891,-0.45723 -0.186271,-0.93204 -0.258435,-1.40158 -0.140126,-0.87401 -0.59154,-1.74801 -1.358471,-2.17448 -1.322391,-0.7254 -3.064259,-0.37911 -3.654974,1.07611 -0.05873,0.10903 -1.644062,-0.031 -1.768244,0.013 0.455715,0.43581 0.864918,0.62538 1.330266,0.95335 -0.533466,0.41486 -0.94586,0.76653 -1.461341,1.25541 0.712129,-0.11299 1.587633,-0.56082 1.89558,-0.22493 0.110921,0.23615 0.160866,0.32232 0.204223,0.40205 -0.620921,0.40271 -1.109266,1.00062 -1.419719,1.68998 -0.698964,1.54931 -0.738395,3.40635 -0.115803,4.99083 0.212285,0.49328 0.480791,0.96457 0.808873,1.38399 0.155229,0.19256 0.312985,0.38425 0.491701,0.55483 0.599105,0.48712 1.216669,0.97953 1.934928,1.25914 2.358184,0.92357 6.446052,0.0314 8.009007,-0.42117 z m -8.687689,-11.49376 c -0.193075,0 -0.349602,-0.16403 -0.349602,-0.36638 0,-0.20234 0.156527,-0.36637 0.349602,-0.36637 0.193101,0 0.349623,0.16403 0.349623,0.36637 0,0.20235 -0.156522,0.36638 -0.349623,0.36638 z m 0.736513,11.48256 c 0.06654,0.0851 0.130941,0.1721 0.188833,0.26443 -0.05789,-0.0923 -0.1223,-0.17929 -0.188833,-0.26443 z"
         sodipodi:nodetypes="ccccccccccccccccccccccccccccssscscsc"
         style="fill:#0290c4;fill-opacity:1;stroke-width:0.0416455" /><path
         id="path2853-3"
         d="m 31.312836,107.14452 c 1.091433,-0.55175 2.150654,-1.23593 2.920003,-2.23685 1.195509,-1.47349 1.827333,-3.44421 1.646445,-5.377259 -0.05947,-1.07494 -0.0676,-1.29435 -0.509874,-2.25245 0.219281,-0.21161 1.506309,-0.83205 1.498885,-0.87879 -0.507596,-0.0765 -1.899556,-0.46814 -2.211754,-0.6466 0.312198,-0.3609 1.407515,-0.96478 1.763086,-1.27895 -0.459634,-0.003 -1.659027,0.29099 -2.108738,0.40264 -0.249014,0.0415 -0.524037,0.15449 -0.754478,-0.0104 -0.541371,-0.31677 -1.110024,-0.61537 -1.73688,-0.67509 -0.226483,-0.0276 -0.436022,-0.0142 -0.600547,0.01 -0.008,10e-4 -0.01488,0.002 -0.02258,0.004 l 0.0059,-1.17112 c 0.111019,-0.0603 0.180557,-0.19292 0.146897,-0.339626 -0.0237,-0.103307 -0.102977,-0.188863 -0.201106,-0.215621 -0.191333,-0.05216 -0.363349,0.09774 -0.363349,0.289737 0,0.12213 0.06987,0.22675 0.169739,0.27365 l -0.0062,1.21503 c -0.05113,0.0139 -0.08028,0.0241 -0.08028,0.0241 -0.02742,0.0105 -0.05471,0.0216 -0.0821,0.0322 l -0.283647,-1.576022 c 0.08742,-0.07089 0.135929,-0.192029 0.100309,-0.323498 -0.0265,-0.09782 -0.103637,-0.177093 -0.197525,-0.202803 -0.191459,-0.05239 -0.363667,0.09755 -0.363667,0.289652 0,0.141107 0.09322,0.258599 0.218422,0.290761 l 0.290874,1.6162 c -0.04985,0.0206 -0.09966,0.0412 -0.149173,0.0626 0.0047,-0.0277 0.0027,-0.0568 -0.01097,-0.0836 l -0.487188,-0.95023 c 0.04648,-0.0687 0.06682,-0.15821 0.04275,-0.25339 -0.02563,-0.10135 -0.104856,-0.18432 -0.201886,-0.20993 -0.190354,-0.0502 -0.36091,0.0992 -0.36091,0.29039 0,0.1658 0.12827,0.30022 0.286489,0.30022 0.0057,0 0.01104,-0.002 0.01668,-0.002 l 0.485883,0.94761 c 0.0098,0.0191 0.02394,0.0338 0.03994,0.0452 -0.367121,0.16999 -0.720301,0.37017 -1.038973,0.6288 -1.251268,0.98669 -2.253511,2.26284 -3.258227,3.50785 -0.649125,0.85943 -1.336701,1.687699 -2.046568,2.491299 -0.825072,0.90616 -1.684857,1.82661 -2.782489,2.36408 -0.441043,0.2129 -0.913044,0.34143 -1.38382,0.45438 0.401394,0.4323 0.801557,0.8698 1.252493,1.24629 0.277503,0.22589 0.56989,0.43231 0.863484,0.63484 0.791653,0.55563 1.674953,0.93991 2.558277,1.30341 1.149654,0.34144 2.331541,0.56993 3.530774,0.55435 1.366805,-0.035 2.271617,-0.21881 3.4056,-0.59488 z m 0.794592,-11.715919 c 0.312864,0 0.56735,0.26669 0.56735,0.59454 0,0.32785 -0.254486,0.59453 -0.56735,0.59453 -0.312863,0 -0.567349,-0.26668 -0.567349,-0.59453 0,-0.32785 0.254486,-0.59454 0.567349,-0.59454 z"
         sodipodi:nodetypes="ccccccccccsccssscccccssscccccssssccccccccccccccssscs"
         style="fill:#02c44a;fill-opacity:1;stroke-width:0.0614878" /></g></g></svg>
