<?xml version="1.0" encoding="UTF-8" standalone="no"?>
<!-- Created with Inkscape (http://www.inkscape.org/) -->

<svg
   xmlns:dc="http://purl.org/dc/elements/1.1/"
   xmlns:cc="http://creativecommons.org/ns#"
   xmlns:rdf="http://www.w3.org/1999/02/22-rdf-syntax-ns#"
   xmlns:svg="http://www.w3.org/2000/svg"
   xmlns="http://www.w3.org/2000/svg"
   xmlns:xlink="http://www.w3.org/1999/xlink"
   xmlns:sodipodi="http://sodipodi.sourceforge.net/DTD/sodipodi-0.dtd"
   xmlns:inkscape="http://www.inkscape.org/namespaces/inkscape"
   width="216mm"
   height="216mm"
   viewBox="0 0 216 216"
   version="1.1"
   id="svg5184"
   inkscape:version="0.92.2 5c3e80d, 2017-08-06"
   sodipodi:docname="openaac2.svg">
  <defs
     id="defs5178">
    <linearGradient
       inkscape:collect="always"
       id="linearGradient5792">
      <stop
         style="stop-color:#da0000;stop-opacity:1;"
         offset="0"
         id="stop5788" />
      <stop
         style="stop-color:#ae0000;stop-opacity:1"
         offset="1"
         id="stop5790" />
    </linearGradient>
    <linearGradient
       id="linearGradient5779"
       inkscape:collect="always">
      <stop
         id="stop5783"
         offset="0"
         style="stop-color:#eeeeee;stop-opacity:1" />
      <stop
         id="stop5785"
         offset="1"
         style="stop-color:#bdbdbd;stop-opacity:1" />
    </linearGradient>
    <linearGradient
       inkscape:collect="always"
       xlink:href="#linearGradient5779"
       id="linearGradient5781"
       x1="375.75"
       y1="254.14258"
       x2="388.88782"
       y2="344.45004"
       gradientUnits="userSpaceOnUse"
       gradientTransform="matrix(0.26025165,-0.0476804,0.0476804,0.26025165,-26.938291,20.468355)" />
    <radialGradient
       inkscape:collect="always"
       xlink:href="#linearGradient5792"
       id="radialGradient5794"
       cx="98.273811"
       cy="185.49702"
       fx="98.273811"
       fy="185.49702"
       r="83.154762"
       gradientTransform="matrix(1,0,0,0.66818182,-30.185855,76.830006)"
       gradientUnits="userSpaceOnUse" />
  </defs>
  <sodipodi:namedview
     id="base"
     pagecolor="#ffffff"
     bordercolor="#666666"
     borderopacity="1.0"
     inkscape:pageopacity="0.0"
     inkscape:pageshadow="2"
     inkscape:zoom="0.35"
     inkscape:cx="427.22746"
     inkscape:cy="252.08814"
     inkscape:document-units="mm"
     inkscape:current-layer="layer1"
     showgrid="false"
     fit-margin-top="10"
     fit-margin-left="10"
     fit-margin-right="10"
     fit-margin-bottom="10"
     inkscape:window-width="1680"
     inkscape:window-height="925"
     inkscape:window-x="2"
     inkscape:window-y="16"
     inkscape:window-maximized="0" />
  <metadata
     id="metadata5181">
    <rdf:RDF>
      <cc:Work
         rdf:about="">
        <dc:format>image/svg+xml</dc:format>
        <dc:type
           rdf:resource="http://purl.org/dc/dcmitype/StillImage" />
        <dc:title></dc:title>
      </cc:Work>
    </rdf:RDF>
  </metadata>
  <g
     inkscape:label="Layer 1"
     inkscape:groupmode="layer"
     id="layer1"
     transform="translate(5.143288,-54.193557)">
    <path
       style="opacity:1;fill:url(#linearGradient5781);fill-opacity:1;stroke:#474747;stroke-width:0.71116859;stroke-miterlimit:4;stroke-dasharray:none;stroke-opacity:1"
       d="m 82.968883,68.693471 a 12.534797,11.933441 79.618044 0 0 -9.471358,14.483754 12.534797,11.933441 79.618044 0 0 13.998319,10.173921 12.534797,11.933441 79.618044 0 0 9.476767,-14.480018 l -0.0015,-0.0096 A 12.534797,11.933441 79.618044 0 0 82.968883,68.693471 Z m 1.132987,6.164059 a 6.2673989,5.9667205 79.618044 0 1 7.001026,5.084254 l 8.38e-4,0.0046 a 6.2673989,5.9667205 79.618044 0 1 -4.738431,7.239756 6.2673989,5.9667205 79.618044 0 1 -6.999366,-5.086662 6.2673989,5.9667205 79.618044 0 1 4.735933,-7.241922 z"
       id="path5754"
       inkscape:connector-curvature="0" />
    <path
       style="fill:none;stroke:#7b6212;stroke-width:1.05833328;stroke-linecap:round;stroke-linejoin:miter;stroke-miterlimit:4;stroke-dasharray:none;stroke-opacity:1"
       d="M 79.477775,81.165232 18.239492,141.21442 166.95473,113.96848 90.475958,79.080193"
       id="path5748"
       inkscape:connector-curvature="0"
       sodipodi:nodetypes="cccc" />
    <rect
       ry="12.096519"
       y="139.01443"
       x="-21.870378"
       height="122.84225"
       width="179.91667"
       id="rect5742"
       style="opacity:1;fill:#ffffff;fill-opacity:1;stroke:#a4a4a4;stroke-width:1.32291663;stroke-miterlimit:4;stroke-dasharray:none;stroke-opacity:1"
       transform="rotate(-10.381955)" />
    <rect
       style="opacity:1;fill:url(#radialGradient5794);fill-opacity:1;stroke:none;stroke-width:10;stroke-miterlimit:4;stroke-dasharray:none;stroke-opacity:0.8142857"
       id="rect5197"
       width="166.30952"
       height="111.125"
       x="-15.066807"
       y="145.21324"
       ry="7.1815476"
       transform="rotate(-10.381955)" />
    <g
       aria-label="OPEN"
       transform="matrix(0.26025165,-0.0476804,0.0476804,0.26025165,-26.938291,20.468355)"
       style="font-style:normal;font-variant:normal;font-weight:normal;font-stretch:normal;font-size:133.33332825px;line-height:1.25;font-family:Corbel;-inkscape-font-specification:Corbel;text-align:center;letter-spacing:0px;word-spacing:0px;text-anchor:middle;fill:#ffffff;fill-opacity:1;stroke:none"
       id="flowRoot5796">
      <path
         d="m 145.62207,546.85352 q -17.1875,0 -26.66016,12.69531 -9.47265,12.69531 -9.47265,35.74219 0,22.94921 9.47265,35.64453 9.47266,12.69531 26.66016,12.69531 17.28516,0 26.75781,-12.69531 9.47266,-12.69532 9.47266,-35.64453 0,-23.04688 -9.47266,-35.74219 -9.47265,-12.69531 -26.75781,-12.69531 z m 0,-27.2461 q 35.15625,0 55.07813,20.11719 19.92187,20.11719 19.92187,55.56641 0,35.35156 -19.92187,55.46875 -19.92188,20.11718 -55.07813,20.11718 -35.05859,0 -55.078125,-20.11718 -19.921875,-20.11719 -19.921875,-55.46875 0,-35.44922 19.921875,-55.56641 20.019535,-20.11719 55.078125,-20.11719 z"
         style="font-style:normal;font-variant:normal;font-weight:bold;font-stretch:normal;font-size:200px;font-family:'.Muna PUA';-inkscape-font-specification:'.Muna PUA, Bold';font-variant-ligatures:normal;font-variant-caps:normal;font-variant-numeric:normal;font-feature-settings:normal;text-align:center;writing-mode:lr-tb;text-anchor:middle;opacity:1"
         id="path5953"
         inkscape:connector-curvature="0" />
      <path
         d="m 248.94238,522.24414 h 62.40235 q 27.83203,0 42.67578,12.40234 14.9414,12.30469 14.9414,35.15625 0,22.94922 -14.9414,35.35157 -14.84375,12.30468 -42.67578,12.30468 h -24.80469 v 50.58594 h -37.59766 z m 37.59766,27.24609 v 40.72266 h 20.80078 q 10.9375,0 16.89453,-5.27344 5.95703,-5.37109 5.95703,-15.13672 0,-9.76562 -5.95703,-15.03906 -5.95703,-5.27344 -16.89453,-5.27344 z"
         style="font-style:normal;font-variant:normal;font-weight:bold;font-stretch:normal;font-size:200px;font-family:'.Muna PUA';-inkscape-font-specification:'.Muna PUA, Bold';font-variant-ligatures:normal;font-variant-caps:normal;font-variant-numeric:normal;font-feature-settings:normal;text-align:center;writing-mode:lr-tb;text-anchor:middle;opacity:1;fill:#ffffff;fill-opacity:1;stroke:#7b6212;stroke-opacity:1"
         id="path5955"
         inkscape:connector-curvature="0" />
      <path
         d="M 395.42676,522.24414 H 496.8916 v 28.41797 h -63.86719 v 27.14844 h 60.0586 v 28.41797 h -60.0586 v 33.39843 h 66.01563 v 28.41797 H 395.42676 Z"
         style="font-style:normal;font-variant:normal;font-weight:bold;font-stretch:normal;font-size:200px;font-family:'.Muna PUA';-inkscape-font-specification:'.Muna PUA, Bold';font-variant-ligatures:normal;font-variant-caps:normal;font-variant-numeric:normal;font-feature-settings:normal;text-align:center;writing-mode:lr-tb;text-anchor:middle;opacity:1"
         id="path5957"
         inkscape:connector-curvature="0" />
      <path
         d="m 532.14551,522.24414 h 41.99219 l 53.02734,100 v -100 h 35.64453 v 145.80078 h -41.99219 l -53.02734,-100 v 100 h -35.64453 z"
         style="font-style:normal;font-variant:normal;font-weight:bold;font-stretch:normal;font-size:200px;font-family:'.Muna PUA';-inkscape-font-specification:'.Muna PUA, Bold';font-variant-ligatures:normal;font-variant-caps:normal;font-variant-numeric:normal;font-feature-settings:normal;text-align:center;writing-mode:lr-tb;text-anchor:middle;opacity:1"
         id="path5959"
         inkscape:connector-curvature="0" />
    </g>
    <g
       aria-label="AAC"
       transform="matrix(0.25232555,-0.09094301,0.0476804,0.26025165,-24.554272,33.480936)"
       style="font-style:normal;font-variant:normal;font-weight:normal;font-stretch:normal;font-size:133.33332825px;line-height:1.25;font-family:'Trebuchet MS';-inkscape-font-specification:'Trebuchet MS, Normal';font-variant-ligatures:normal;font-variant-caps:normal;font-variant-numeric:normal;font-feature-settings:normal;text-align:center;letter-spacing:0px;word-spacing:0px;writing-mode:lr-tb;text-anchor:middle;fill:#000000;fill-opacity:1;stroke:none"
       id="flowRoot5808">
      <path
         d="m 296.59823,838.49597 -2.34733,-19.63849 -33.1466,2.74977 -10.10669,17.19869 -28.77796,4.19216 66.95312,-116.01562 13.45133,-4.8796 22.65625,116.01562 z m -7.0847,-78.65423 -20.79568,42.65176 25.33409,-2.74977 z"
         style="font-style:italic;font-variant:normal;font-weight:normal;font-stretch:normal;font-size:160px;font-family:'Trebuchet MS';-inkscape-font-specification:'Trebuchet MS, Normal';font-variant-ligatures:normal;font-variant-caps:normal;font-variant-numeric:normal;font-feature-settings:normal;text-align:center;writing-mode:lr-tb;text-anchor:middle;fill:#ffffff;fill-opacity:1"
         id="path5910"
         inkscape:connector-curvature="0"
         sodipodi:nodetypes="ccccccccccccc" />
      <path
         d="m 400.3125,840.5583 -4.31459,-20.32593 -30.09809,-2.28482 -8.86027,21.70082 -30.02437,-0.30997 64.62544,-114.79572 8.79598,-2.4398 22.29583,117.92296 z m -12.46089,-72.39975 -17.02633,33.80249 24.25284,2.97226 z"
         style="font-style:italic;font-variant:normal;font-weight:normal;font-stretch:normal;font-size:160px;font-family:'Trebuchet MS';-inkscape-font-specification:'Trebuchet MS, Normal';font-variant-ligatures:normal;font-variant-caps:normal;font-variant-numeric:normal;font-feature-settings:normal;text-align:center;writing-mode:lr-tb;text-anchor:middle;fill:#ffffff;fill-opacity:1"
         id="path5912"
         inkscape:connector-curvature="0"
         sodipodi:nodetypes="ccccccccccccc" />
      <path
         d="m 519.0625,727.82393 -5.73856,22.86374 c -7.91481,-2.96409 -14.38025,-3.86761 -18.87604,-3.09265 -11.8021,2.03437 -17.49943,6.20502 -24.11071,14.77779 -8.38542,12.23959 -10.84122,20.27676 -9.52963,34.65292 1.44543,15.84303 6.61752,23.90453 20.00912,23.79382 9.20613,-0.0761 19.78391,-1.18125 28.48183,-8.73334 l -5.37977,27.31912 c -6.59396,2.91513 -15.24687,3.1061 -28.68437,3.1061 -12.5,0 -22.16146,-3.85417 -28.98437,-11.5625 -6.82292,-7.70833 -10.23438,-18.33333 -10.23438,-31.875 0,-20.9375 5.67708,-38.64583 17.03125,-53.125 11.40625,-14.53125 26.1198,-21.79688 44.14063,-21.79688 9.0625,0 16.35417,1.22396 21.875,3.67188 z"
         style="font-style:italic;font-variant:normal;font-weight:normal;font-stretch:normal;font-size:160px;font-family:'Trebuchet MS';-inkscape-font-specification:'Trebuchet MS, Normal';font-variant-ligatures:normal;font-variant-caps:normal;font-variant-numeric:normal;font-feature-settings:normal;text-align:center;writing-mode:lr-tb;text-anchor:middle;fill:#ffffff;fill-opacity:1"
         id="path5914"
         inkscape:connector-curvature="0"
         sodipodi:nodetypes="ccscssccssscsc" />
    </g>
    <path
       style="fill:none;stroke:#fdfdfd;stroke-width:3.17499995;stroke-linecap:butt;stroke-linejoin:miter;stroke-miterlimit:4;stroke-dasharray:none;stroke-opacity:1"
       d="M 69.698078,239.61215 C 86.718266,229.3253 122.09489,216.02159 148.09139,210.26338"
       id="path5816"
       inkscape:connector-curvature="0"
       sodipodi:nodetypes="cc" />
  </g>
</svg>
