<?xml version="1.0" encoding="UTF-8" standalone="no"?>
<!-- Created with Inkscape (http://www.inkscape.org/) -->

<svg
   width="153.53183mm"
   height="35.637127mm"
   viewBox="-3 -3 174.01677 40.392"
   version="1.1"
   id="svg1"
   inkscape:version="1.3.2 (091e20e, 2023-11-25)"
   sodipodi:docname="cpp.svg"
   xml:space="preserve"
   inkscape:export-filename="cpp.png"
   inkscape:export-xdpi="171.044"
   inkscape:export-ydpi="171.044"
   xmlns:inkscape="http://www.inkscape.org/namespaces/inkscape"
   xmlns:sodipodi="http://sodipodi.sourceforge.net/DTD/sodipodi-0.dtd"
   xmlns:xlink="http://www.w3.org/1999/xlink"
   xmlns="http://www.w3.org/2000/svg"
   xmlns:svg="http://www.w3.org/2000/svg"><sodipodi:namedview
     id="namedview1"
     pagecolor="#ffffff"
     bordercolor="#666666"
     borderopacity="1.0"
     inkscape:showpageshadow="2"
     inkscape:pageopacity="0.0"
     inkscape:pagecheckerboard="0"
     inkscape:deskcolor="#d1d1d1"
     inkscape:document-units="mm"
     inkscape:zoom="1.1893044"
     inkscape:cx="55.915037"
     inkscape:cy="24.384001"
     inkscape:window-width="1536"
     inkscape:window-height="877"
     inkscape:window-x="0"
     inkscape:window-y="25"
     inkscape:window-maximized="0"
     inkscape:current-layer="layer1"
     inkscape:export-bgcolor="#ffffffff" /><defs
     id="defs1"><rect
       x="312.7359"
       y="5.945549"
       width="344.84186"
       height="98.696121"
       id="rect26" /><rect
       x="136.21408"
       y="398.55231"
       width="400.23395"
       height="227.02345"
       id="rect1" /><linearGradient
       inkscape:collect="always"
       id="linearGradient5792"><stop
         style="stop-color:#da0000;stop-opacity:1;"
         offset="0"
         id="stop5788" /><stop
         style="stop-color:#ae0000;stop-opacity:1"
         offset="1"
         id="stop5790" /></linearGradient><linearGradient
       id="linearGradient5779"
       inkscape:collect="always"><stop
         id="stop5783"
         offset="0"
         style="stop-color:#eeeeee;stop-opacity:1" /><stop
         id="stop5785"
         offset="1"
         style="stop-color:#bdbdbd;stop-opacity:1" /></linearGradient><linearGradient
       inkscape:collect="always"
       xlink:href="#linearGradient5779"
       id="linearGradient5781"
       x1="375.75"
       y1="254.14258"
       x2="388.88782"
       y2="344.45004"
       gradientUnits="userSpaceOnUse"
       gradientTransform="matrix(0.26025165,-0.0476804,0.0476804,0.26025165,-26.938291,20.468355)" /><radialGradient
       inkscape:collect="always"
       xlink:href="#linearGradient5792"
       id="radialGradient5794"
       cx="98.273811"
       cy="185.49702"
       fx="98.273811"
       fy="185.49702"
       r="83.154762"
       gradientTransform="matrix(1,0,0,0.66818182,-30.185855,76.830006)"
       gradientUnits="userSpaceOnUse" /></defs><g
     inkscape:label="Layer 1"
     inkscape:groupmode="layer"
     id="layer1"
     transform="translate(-39.952899,-108.68719)"><path
       d="m 98.478379,109.33406 c 3.433931,-0.30361 7.654411,-1.06242 11.796241,-1.17983 3.85564,-0.10928 6.06571,1.2861 7.77251,3.65351 1.55663,2.15913 1.83616,4.72326 1.83616,8.11006 0,3.48088 -1.27301,6.42377 -3.37408,8.38372 -2.90719,2.65021 -3.58133,3.77579 -7.32949,3.77579 v 11.73625 H 98.478379 Z"
       style="font-size:80px;line-height:1.25;font-family:'Arial Black';-inkscape-font-specification:'Arial Black, Normal';white-space:pre;fill:#30ff09;fill-opacity:1;stroke:#000000;stroke-width:1.05833;stroke-dasharray:none;stroke-opacity:1"
       id="path1-2" /><path
       style="font-size:80px;line-height:1.25;font-family:'Arial Black';-inkscape-font-specification:'Arial Black, Normal';white-space:pre;fill:#a5ff09;fill-opacity:1;stroke:#000000;stroke-width:1.05833;stroke-dasharray:none;stroke-opacity:1"
       d="m 72.666569,108.92765 c 4.088954,-0.39137 7.784738,-1.4297 12.41847,-1.02251 3.539516,0.31104 6.425136,1.9793 7.932132,3.94114 1.635358,2.12892 2.933956,4.29287 2.948515,7.72073 0.01475,3.48085 -0.72551,6.24323 -2.778579,8.2534 -3.130746,3.06533 -6.764171,3.8505 -9.819196,3.8505 v 12.28682 l -10.200789,0.0612 -0.250279,-17.54564 c -1.733428,-2.97782 -2.054725,-10.42429 -0.12514,-14.11208 z"
       id="text1"
       aria-label="CPP"
       sodipodi:nodetypes="csssscccccc" /><path
       style="fill:none;stroke:#000000;stroke-width:0.79375;stroke-linecap:butt;stroke-linejoin:miter;stroke-dasharray:none;stroke-opacity:1"
       d="m 109.40562,131.92856 c -1.75441,0.17139 -4.32301,-1.08549 -4.79809,-4.09065"
       id="path1"
       sodipodi:nodetypes="cc" /><path
       style="fill:none;stroke:#000000;stroke-width:0.79375;stroke-linecap:round;stroke-linejoin:miter;stroke-dasharray:none;stroke-opacity:1"
       d="m 110.9429,126.34885 c 2.85775,-1.88469 4.41463,-4.43737 3.80244,-8.07433 -0.34005,-2.02019 -1.66652,-4.47007 -3.89437,-4.86841 -2.0844,-0.37269 -3.14198,-0.0955 -4.66409,1.87 -1.48175,1.64639 -1.04195,2.31713 1.02823,0.56505 1.33209,-0.89673 3.55482,-0.72177 4.15685,1.22595"
       id="path2"
       sodipodi:nodetypes="cssccc" /><path
       style="opacity:1;fill:#000000;fill-opacity:1;stroke:#000000;stroke-width:0.529167;stroke-linecap:butt;stroke-linejoin:miter;stroke-dasharray:none;stroke-opacity:1"
       d="m 107.07942,117.94764 c 1.26106,1.26559 0.45767,1.96368 -0.2023,2.73031 -0.86746,1.37815 1.05481,2.07664 1.21016,3.31034 0.37102,1.58954 -1.9572,1.98245 -2.73984,0.88713 -0.60329,-1.07367 -0.38083,-2.40818 -0.26772,-3.58849 0.1556,-1.33756 0.49435,-3.06817 0.13648,-4.4328 0.92184,-0.43192 1.267,0.49513 1.86322,1.09351 z"
       id="path3"
       sodipodi:nodetypes="scccccs" /><circle
       style="opacity:1;fill:#040404;fill-opacity:1;stroke:#000000;stroke-width:0.0208934;stroke-linecap:round;stroke-linejoin:round;stroke-dasharray:none;stroke-opacity:1"
       id="circle4"
       cx="83.902336"
       cy="119.70224"
       r="0.44797796" /><rect
       style="opacity:1;fill:#040404;fill-opacity:1;stroke:#000000;stroke-width:0.500825;stroke-linecap:round;stroke-linejoin:round;stroke-dasharray:none;stroke-opacity:1"
       id="rect4"
       width="0.47374535"
       height="1.3159592"
       x="83.446106"
       y="109.6043" /><rect
       style="opacity:1;fill:#040404;fill-opacity:1;stroke:#000000;stroke-width:0.500825;stroke-linecap:round;stroke-linejoin:round;stroke-dasharray:none;stroke-opacity:1"
       id="rect5"
       width="0.47374535"
       height="1.3159592"
       x="83.446106"
       y="128.63559" /><rect
       style="opacity:1;fill:#040404;fill-opacity:1;stroke:#000000;stroke-width:0.500825;stroke-linecap:round;stroke-linejoin:round;stroke-dasharray:none;stroke-opacity:1"
       id="rect6"
       width="0.47374535"
       height="1.3159592"
       x="119.85567"
       y="-93.541985"
       transform="rotate(90)" /><rect
       style="opacity:1;fill:#040404;fill-opacity:1;stroke:#000000;stroke-width:0.500825;stroke-linecap:round;stroke-linejoin:round;stroke-dasharray:none;stroke-opacity:1"
       id="rect7"
       width="0.47374535"
       height="1.3159592"
       x="119.54105"
       y="-74.82531"
       transform="rotate(90)" /><path
       id="rect16"
       style="opacity:1;fill:#040404;stroke:#000000;stroke-width:0.500825;stroke-linecap:round;stroke-linejoin:round"
       d="m 84.006507,119.37403 6.460537,6.68115 -0.0052,0.01 -6.827827,-6.31852 z"
       sodipodi:nodetypes="ccccc" /><rect
       style="opacity:1;fill:#040404;fill-opacity:1;stroke:#000000;stroke-width:0.283843;stroke-linecap:round;stroke-linejoin:round;stroke-dasharray:none;stroke-opacity:1"
       id="rect17"
       width="5.2505746"
       height="0.29832813"
       x="93.842697"
       y="-112.05426"
       transform="rotate(105)" /><rect
       style="opacity:1;fill:#040404;fill-opacity:1;stroke:#000000;stroke-width:0.314673;stroke-linecap:round;stroke-linejoin:round;stroke-dasharray:none;stroke-opacity:1"
       id="rect18"
       width="0.18532662"
       height="1.3279985"
       x="132.27867"
       y="51.616318"
       transform="rotate(30)" /><rect
       style="opacity:1;fill:#040404;fill-opacity:1;stroke:#000000;stroke-width:0.314673;stroke-linecap:round;stroke-linejoin:round;stroke-dasharray:none;stroke-opacity:1"
       id="rect19"
       width="0.18532662"
       height="1.3279985"
       x="132.27867"
       y="70.821732"
       transform="rotate(30)" /><rect
       style="opacity:1;fill:#040404;fill-opacity:1;stroke:#000000;stroke-width:0.314673;stroke-linecap:round;stroke-linejoin:round;stroke-dasharray:none;stroke-opacity:1"
       id="rect20"
       width="0.18532662"
       height="1.3279985"
       x="145.60095"
       y="-22.430319"
       transform="rotate(60)" /><rect
       style="opacity:1;fill:#040404;fill-opacity:1;stroke:#000000;stroke-width:0.314673;stroke-linecap:round;stroke-linejoin:round;stroke-dasharray:none;stroke-opacity:1"
       id="rect21"
       width="0.18532662"
       height="1.3279985"
       x="145.48579"
       y="-3.6546776"
       transform="rotate(60)" /><rect
       style="opacity:1;fill:#040404;fill-opacity:1;stroke:#000000;stroke-width:0.314673;stroke-linecap:round;stroke-linejoin:round;stroke-dasharray:none;stroke-opacity:1"
       id="rect22"
       width="0.18532662"
       height="1.3279985"
       x="62.220142"
       y="-142.52289"
       transform="rotate(120)" /><rect
       style="opacity:1;fill:#040404;fill-opacity:1;stroke:#000000;stroke-width:0.314673;stroke-linecap:round;stroke-linejoin:round;stroke-dasharray:none;stroke-opacity:1"
       id="rect23"
       width="0.18532662"
       height="1.3279985"
       x="61.790367"
       y="-123.43259"
       transform="rotate(120)" /><rect
       style="opacity:1;fill:#040404;fill-opacity:1;stroke:#000000;stroke-width:0.314673;stroke-linecap:round;stroke-linejoin:round;stroke-dasharray:none;stroke-opacity:1"
       id="rect24"
       width="0.18532662"
       height="1.3279985"
       x="-12.686048"
       y="-155.84517"
       transform="rotate(150)" /><rect
       style="opacity:1;fill:#040404;fill-opacity:1;stroke:#000000;stroke-width:0.314673;stroke-linecap:round;stroke-linejoin:round;stroke-dasharray:none;stroke-opacity:1"
       id="rect25"
       width="0.18532662"
       height="1.3279985"
       x="-12.686048"
       y="-136.63974"
       transform="rotate(150)" /><path
       d="m 62.088112,129.53407 7.629181,8.00563 c -3.039956,5.1455 -8.167268,6.67752 -13.069873,6.74973 -8.306272,0 -11.844297,-3.95858 -14.199992,-7.13296 -1.9314,-2.60263 -3.595744,-6.88656 -3.595744,-11.16709 0,-5.70739 2.143464,-10.08984 5.169631,-13.14737 3.041846,-3.07321 6.949556,-5.12655 12.499332,-5.2216 4.592205,-0.0787 8.750383,0.91492 13.260649,7.16796 l -8.584017,7.94953 c -2.068868,-3.07555 -5.394188,-2.18663 -6.965169,-0.50164 -2.247432,2.41053 -2.125146,6.00642 -0.880141,7.49197 2.089605,2.49334 6.490066,3.06399 8.736143,-0.19416 z"
       style="font-size:80px;line-height:1.25;font-family:'Arial Black';-inkscape-font-specification:'Arial Black, Normal';white-space:pre;fill:#ffe009;fill-opacity:1;stroke:#000000;stroke-width:1.05833;stroke-dasharray:none;stroke-opacity:1"
       id="path1-5"
       sodipodi:nodetypes="cccssccccssc" /><text
       xml:space="preserve"
       transform="matrix(0.27814531,0,0,0.27814531,36.840317,109.02455)"
       id="text25"
       style="font-style:normal;font-weight:normal;font-size:40px;line-height:0;font-family:sans-serif;white-space:pre;shape-inside:url(#rect26);display:inline;fill:#000000;fill-opacity:1;stroke:none"><tspan
         x="312.73633"
         y="32.803875"
         id="tspan2"><tspan
           style="font-size:33.0636px;line-height:1.05;font-family:Sans;-inkscape-font-specification:'Sans, Normal'"
           id="tspan1">Communication
</tspan></tspan><tspan
         x="312.73633"
         y="73.155302"
         id="tspan5"><tspan
           style="font-size:33.0636px;line-height:1.05;font-family:Sans;-inkscape-font-specification:'Sans, Normal'"
           id="tspan3">Partner</tspan><tspan
           style="line-height:1.05"
           id="tspan4"> 
</tspan></tspan></text><text
       xml:space="preserve"
       style="font-style:normal;font-variant:normal;font-weight:normal;font-stretch:normal;font-size:11.1258px;line-height:1.25;font-family:'Arial Black';-inkscape-font-specification:'Arial Black, Normal';font-variant-ligatures:normal;font-variant-caps:normal;font-variant-numeric:normal;font-variant-east-asian:normal;fill:#000000;fill-opacity:1;stroke:none;stroke-width:0.278145"
       x="123.49558"
       y="140.81566"
       id="text27"><tspan
         sodipodi:role="line"
         id="tspan27"
         style="font-style:normal;font-variant:normal;font-weight:normal;font-stretch:normal;font-size:11.9954px;font-family:'Arial Black';-inkscape-font-specification:'Arial Black, Normal';font-variant-ligatures:normal;font-variant-caps:normal;font-variant-numeric:normal;font-variant-east-asian:normal;stroke-width:0.278145"
         x="123.49558"
         y="140.81566">Profile</tspan></text><g
       inkscape:label="Layer 1"
       id="layer1-5"
       transform="matrix(0.122116,0,0,0.122116,184.47994,112.87168)"><path
         style="opacity:1;fill:url(#linearGradient5781);fill-opacity:1;stroke:#474747;stroke-width:0.711169;stroke-miterlimit:4;stroke-dasharray:none;stroke-opacity:1"
         d="m 82.968883,68.693471 a 12.534797,11.933441 79.618044 0 0 -9.471358,14.483754 12.534797,11.933441 79.618044 0 0 13.998319,10.173921 12.534797,11.933441 79.618044 0 0 9.476767,-14.480018 l -0.0015,-0.0096 A 12.534797,11.933441 79.618044 0 0 82.968883,68.693471 Z m 1.132987,6.164059 a 6.2673989,5.9667205 79.618044 0 1 7.001026,5.084254 l 8.38e-4,0.0046 a 6.2673989,5.9667205 79.618044 0 1 -4.738431,7.239756 6.2673989,5.9667205 79.618044 0 1 -6.999366,-5.086662 6.2673989,5.9667205 79.618044 0 1 4.735933,-7.241922 z"
         id="path5754"
         inkscape:connector-curvature="0" /><path
         style="fill:none;stroke:#7b6212;stroke-width:1.05833;stroke-linecap:round;stroke-linejoin:miter;stroke-miterlimit:4;stroke-dasharray:none;stroke-opacity:1"
         d="M 79.477775,81.165232 18.239492,141.21442 166.95473,113.96848 90.475958,79.080193"
         id="path5748"
         inkscape:connector-curvature="0"
         sodipodi:nodetypes="cccc" /><rect
         ry="12.096519"
         y="139.01443"
         x="-21.870378"
         height="122.84225"
         width="179.91667"
         id="rect5742"
         style="opacity:1;fill:#ffffff;fill-opacity:1;stroke:#a4a4a4;stroke-width:1.32292;stroke-miterlimit:4;stroke-dasharray:none;stroke-opacity:1"
         transform="rotate(-10.381955)" /><rect
         style="opacity:1;fill:url(#radialGradient5794);fill-opacity:1;stroke:none;stroke-width:10;stroke-miterlimit:4;stroke-dasharray:none;stroke-opacity:0.814286"
         id="rect5197"
         width="166.30952"
         height="111.125"
         x="-15.066807"
         y="145.21324"
         ry="7.1815476"
         transform="rotate(-10.381955)" /><g
         aria-label="OPEN"
         transform="matrix(0.26025165,-0.0476804,0.0476804,0.26025165,-26.938291,20.468355)"
         style="font-style:normal;font-variant:normal;font-weight:normal;font-stretch:normal;font-size:133.333px;line-height:1.25;font-family:Corbel;-inkscape-font-specification:Corbel;text-align:center;letter-spacing:0px;word-spacing:0px;text-anchor:middle;fill:#ffffff;fill-opacity:1;stroke:none"
         id="flowRoot5796"><path
           d="m 145.62207,546.85352 q -17.1875,0 -26.66016,12.69531 -9.47265,12.69531 -9.47265,35.74219 0,22.94921 9.47265,35.64453 9.47266,12.69531 26.66016,12.69531 17.28516,0 26.75781,-12.69531 9.47266,-12.69532 9.47266,-35.64453 0,-23.04688 -9.47266,-35.74219 -9.47265,-12.69531 -26.75781,-12.69531 z m 0,-27.2461 q 35.15625,0 55.07813,20.11719 19.92187,20.11719 19.92187,55.56641 0,35.35156 -19.92187,55.46875 -19.92188,20.11718 -55.07813,20.11718 -35.05859,0 -55.078125,-20.11718 -19.921875,-20.11719 -19.921875,-55.46875 0,-35.44922 19.921875,-55.56641 20.019535,-20.11719 55.078125,-20.11719 z"
           style="font-style:normal;font-variant:normal;font-weight:bold;font-stretch:normal;font-size:200px;font-family:'.Muna PUA';-inkscape-font-specification:'.Muna PUA, Bold';font-variant-ligatures:normal;font-variant-caps:normal;font-variant-numeric:normal;font-feature-settings:normal;text-align:center;writing-mode:lr-tb;text-anchor:middle;opacity:1"
           id="path5953"
           inkscape:connector-curvature="0" /><path
           d="m 248.94238,522.24414 h 62.40235 q 27.83203,0 42.67578,12.40234 14.9414,12.30469 14.9414,35.15625 0,22.94922 -14.9414,35.35157 -14.84375,12.30468 -42.67578,12.30468 h -24.80469 v 50.58594 h -37.59766 z m 37.59766,27.24609 v 40.72266 h 20.80078 q 10.9375,0 16.89453,-5.27344 5.95703,-5.37109 5.95703,-15.13672 0,-9.76562 -5.95703,-15.03906 -5.95703,-5.27344 -16.89453,-5.27344 z"
           style="font-style:normal;font-variant:normal;font-weight:bold;font-stretch:normal;font-size:200px;font-family:'.Muna PUA';-inkscape-font-specification:'.Muna PUA, Bold';font-variant-ligatures:normal;font-variant-caps:normal;font-variant-numeric:normal;font-feature-settings:normal;text-align:center;writing-mode:lr-tb;text-anchor:middle;opacity:1;fill:#ffffff;fill-opacity:1;stroke:#7b6212;stroke-opacity:1"
           id="path5955"
           inkscape:connector-curvature="0" /><path
           d="M 395.42676,522.24414 H 496.8916 v 28.41797 h -63.86719 v 27.14844 h 60.0586 v 28.41797 h -60.0586 v 33.39843 h 66.01563 v 28.41797 H 395.42676 Z"
           style="font-style:normal;font-variant:normal;font-weight:bold;font-stretch:normal;font-size:200px;font-family:'.Muna PUA';-inkscape-font-specification:'.Muna PUA, Bold';font-variant-ligatures:normal;font-variant-caps:normal;font-variant-numeric:normal;font-feature-settings:normal;text-align:center;writing-mode:lr-tb;text-anchor:middle;opacity:1"
           id="path5957"
           inkscape:connector-curvature="0" /><path
           d="m 532.14551,522.24414 h 41.99219 l 53.02734,100 v -100 h 35.64453 v 145.80078 h -41.99219 l -53.02734,-100 v 100 h -35.64453 z"
           style="font-style:normal;font-variant:normal;font-weight:bold;font-stretch:normal;font-size:200px;font-family:'.Muna PUA';-inkscape-font-specification:'.Muna PUA, Bold';font-variant-ligatures:normal;font-variant-caps:normal;font-variant-numeric:normal;font-feature-settings:normal;text-align:center;writing-mode:lr-tb;text-anchor:middle;opacity:1"
           id="path5959"
           inkscape:connector-curvature="0" /></g><g
         aria-label="AAC"
         transform="matrix(0.25232555,-0.09094301,0.0476804,0.26025165,-24.554272,33.480936)"
         style="font-style:normal;font-variant:normal;font-weight:normal;font-stretch:normal;font-size:133.333px;line-height:1.25;font-family:'Trebuchet MS';-inkscape-font-specification:'Trebuchet MS, Normal';font-variant-ligatures:normal;font-variant-caps:normal;font-variant-numeric:normal;font-feature-settings:normal;text-align:center;letter-spacing:0px;word-spacing:0px;writing-mode:lr-tb;text-anchor:middle;fill:#000000;fill-opacity:1;stroke:none"
         id="flowRoot5808"><path
           d="m 296.59823,838.49597 -2.34733,-19.63849 -33.1466,2.74977 -10.10669,17.19869 -28.77796,4.19216 66.95312,-116.01562 13.45133,-4.8796 22.65625,116.01562 z m -7.0847,-78.65423 -20.79568,42.65176 25.33409,-2.74977 z"
           style="font-style:italic;font-variant:normal;font-weight:normal;font-stretch:normal;font-size:160px;font-family:'Trebuchet MS';-inkscape-font-specification:'Trebuchet MS, Normal';font-variant-ligatures:normal;font-variant-caps:normal;font-variant-numeric:normal;font-feature-settings:normal;text-align:center;writing-mode:lr-tb;text-anchor:middle;fill:#ffffff;fill-opacity:1"
           id="path5910"
           inkscape:connector-curvature="0"
           sodipodi:nodetypes="ccccccccccccc" /><path
           d="m 400.3125,840.5583 -4.31459,-20.32593 -30.09809,-2.28482 -8.86027,21.70082 -30.02437,-0.30997 64.62544,-114.79572 8.79598,-2.4398 22.29583,117.92296 z m -12.46089,-72.39975 -17.02633,33.80249 24.25284,2.97226 z"
           style="font-style:italic;font-variant:normal;font-weight:normal;font-stretch:normal;font-size:160px;font-family:'Trebuchet MS';-inkscape-font-specification:'Trebuchet MS, Normal';font-variant-ligatures:normal;font-variant-caps:normal;font-variant-numeric:normal;font-feature-settings:normal;text-align:center;writing-mode:lr-tb;text-anchor:middle;fill:#ffffff;fill-opacity:1"
           id="path5912"
           inkscape:connector-curvature="0"
           sodipodi:nodetypes="ccccccccccccc" /><path
           d="m 519.0625,727.82393 -5.73856,22.86374 c -7.91481,-2.96409 -14.38025,-3.86761 -18.87604,-3.09265 -11.8021,2.03437 -17.49943,6.20502 -24.11071,14.77779 -8.38542,12.23959 -10.84122,20.27676 -9.52963,34.65292 1.44543,15.84303 6.61752,23.90453 20.00912,23.79382 9.20613,-0.0761 19.78391,-1.18125 28.48183,-8.73334 l -5.37977,27.31912 c -6.59396,2.91513 -15.24687,3.1061 -28.68437,3.1061 -12.5,0 -22.16146,-3.85417 -28.98437,-11.5625 -6.82292,-7.70833 -10.23438,-18.33333 -10.23438,-31.875 0,-20.9375 5.67708,-38.64583 17.03125,-53.125 11.40625,-14.53125 26.1198,-21.79688 44.14063,-21.79688 9.0625,0 16.35417,1.22396 21.875,3.67188 z"
           style="font-style:italic;font-variant:normal;font-weight:normal;font-stretch:normal;font-size:160px;font-family:'Trebuchet MS';-inkscape-font-specification:'Trebuchet MS, Normal';font-variant-ligatures:normal;font-variant-caps:normal;font-variant-numeric:normal;font-feature-settings:normal;text-align:center;writing-mode:lr-tb;text-anchor:middle;fill:#ffffff;fill-opacity:1"
           id="path5914"
           inkscape:connector-curvature="0"
           sodipodi:nodetypes="ccscssccssscsc" /></g><path
         style="fill:none;stroke:#fdfdfd;stroke-width:3.175;stroke-linecap:butt;stroke-linejoin:miter;stroke-miterlimit:4;stroke-dasharray:none;stroke-opacity:1"
         d="M 69.698078,239.61215 C 86.718266,229.3253 122.09489,216.02159 148.09139,210.26338"
         id="path5816"
         inkscape:connector-curvature="0"
         sodipodi:nodetypes="cc" /></g><path
       d="m 57.586997,141.88142 4.457111,-3.6548 -4.501685,-3.74395 5.23e-4,2.08255 h -4.145669 v 3.3228 h 4.145669 z"
       id="path2587"
       style="fill:#9120ff;fill-opacity:1;stroke:#000000;stroke-width:0.74971324;stroke-opacity:1;stroke-dasharray:none"
       sodipodi:nodetypes="cccccccc" /><path
       style="fill:#ea0000;fill-opacity:1;stroke:none;stroke-width:0.299885px;stroke-linecap:butt;stroke-linejoin:miter;stroke-opacity:1"
       d="m 56.298262,112.6854 c 0.626185,-0.64109 0.420486,-1.96967 1.6743,-1.9671 1.240002,-0.4285 3.006132,0.42723 2.800584,1.90398 -0.12194,1.29953 -0.660122,2.12711 -1.321817,3.17231 -0.529968,0.75547 -1.687641,1.50354 -2.230369,2.2392 -0.277253,1.03187 -1.248625,1.50919 -1.763039,0.34194 -1.208631,-1.37059 -2.628548,-2.61961 -3.495215,-4.24448 -0.404049,-1.2471 -0.204688,-3.09898 1.195338,-3.61995 1.237673,-0.62123 2.191296,0.4306 2.67092,1.46269 0.149732,0.24142 0.301122,0.48232 0.469298,0.71141 z"
       id="path29"
       sodipodi:nodetypes="cccccccccc" /><path
       d="m 56.238737,112.13555 c -0.368152,-0.97773 -1.507313,-1.95667 -2.264353,-1.95669 -0.809296,9.3e-4 -1.364196,0.23355 -1.934057,0.87052 -1.2034,1.33961 -1.2029,2.83511 0.001,4.16901 l 3.74986,4.15652 c 0.0871,0.16948 0.2547,0.27893 0.44751,0.27893 0.160548,-0.002 0.310842,-0.0878 0.40506,-0.23186 l 3.7923,-4.20359 c 1.20393,-1.33448 1.20393,-2.8294 -10e-4,-4.17127 -0.569564,-0.63579 -1.344297,-0.77302 -2.15263,-0.77371 -0.757018,1.4e-4 -1.58095,0.85299 -2.04371,1.86214 z m 3.71833,-0.46512 c 0.79939,0.8906 0.666166,2.12777 -0.132724,3.01382 l -3.585626,3.91781 -3.607924,-4.00696 c -0.79888,-0.88605 -0.887499,-1.94492 -0.09015,-2.83326 0.3887,-0.42858 0.852496,-0.709 1.386936,-0.709 0.53446,0 1.263662,0.81333 1.649272,1.24078 l 0.556291,0.87016 c 0.199599,0.22162 0.167302,0.1901 0.366901,-0.0316 l 0.957761,-1.39582 c 0.7733,-0.85546 1.704715,-0.91806 2.476985,-0.0659 z"
       id="path2400"
       style="stroke-width:0.538455"
       sodipodi:nodetypes="cccccccccccccccccscccccc" /><circle
       style="opacity:1;fill:#209bff;fill-opacity:1;stroke:none;stroke-width:0.899656;stroke-linecap:round;stroke-linejoin:round;stroke-dasharray:none;stroke-opacity:1"
       id="path30"
       cx="45.600368"
       cy="126.32522"
       r="4.6357555" /><g
       id="g2471"
       transform="matrix(0.51004116,0,0,0.51004116,39.531441,120.26114)"><path
         d="M 12,2.3707816 C 6.486,2.3707816 2.3707816,6.486 2.3707816,12 c 0,5.514 4.1770153,9.567421 9.6910154,9.567421 5.514,0 9.567421,-4.053421 9.567421,-9.567421 C 21.629218,6.486 17.514,2.3707816 12,2.3707816 Z M 12,20 C 7.589,20 4,16.411 4,12 4,7.589 7.589,4 12,4 c 4.411,0 8,3.589 8,8 0,4.411 -3.589,8 -8,8 z"
         id="path2453"
         sodipodi:nodetypes="ssssssssss" /><circle
         cx="8.5"
         cy="10.5"
         r="1.5"
         id="circle2455" /><circle
         cx="15.493"
         cy="10.493"
         r="1.493"
         id="circle2457" /><path
         d="m 12,18 c 4,0 5,-4 5,-4 H 7 c 0,0 1,4 5,4 z"
         id="path2459" /></g></g></svg>
