<?xml version="1.0" encoding="UTF-8" standalone="no"?>
<svg
   xmlns:dc="http://purl.org/dc/elements/1.1/"
   xmlns:cc="http://creativecommons.org/ns#"
   xmlns:rdf="http://www.w3.org/1999/02/22-rdf-syntax-ns#"
   xmlns:svg="http://www.w3.org/2000/svg"
   xmlns="http://www.w3.org/2000/svg"
   xmlns:xlink="http://www.w3.org/1999/xlink"
   xmlns:sodipodi="http://sodipodi.sourceforge.net/DTD/sodipodi-0.dtd"
   xmlns:inkscape="http://www.inkscape.org/namespaces/inkscape"
   sodipodi:docname="were_open.svg"
   inkscape:version="1.0 (4035a4f, 2020-05-01)"
   id="svg2415"
   version="1.1"
   viewBox="0 0 119.32332 83.966339"
   height="83.966339mm"
   width="119.32332mm">
  <defs
     id="defs2409">
    <linearGradient
       id="linearGradient3011"
       inkscape:collect="always">
      <stop
         id="stop3007"
         offset="0"
         style="stop-color:#de0000;stop-opacity:1;" />
      <stop
         id="stop3009"
         offset="1"
         style="stop-color:#c10000;stop-opacity:1" />
    </linearGradient>
    <filter
       height="1.0299077"
       y="-0.014953865"
       width="1.0200412"
       x="-0.01002061"
       id="filter3003"
       style="color-interpolation-filters:sRGB"
       inkscape:collect="always">
      <feGaussianBlur
         id="feGaussianBlur3005"
         stdDeviation="0.44748451"
         inkscape:collect="always" />
    </filter>
    <linearGradient
       gradientUnits="userSpaceOnUse"
       y2="172.38351"
       x2="109.77802"
       y1="106.42667"
       x1="101.35423"
       id="linearGradient3013"
       xlink:href="#linearGradient3011"
       inkscape:collect="always" />
  </defs>
  <sodipodi:namedview
     inkscape:document-rotation="0"
     fit-margin-bottom="5"
     fit-margin-right="5"
     fit-margin-left="5"
     fit-margin-top="5"
     inkscape:window-maximized="0"
     inkscape:window-y="76"
     inkscape:window-x="249"
     inkscape:window-height="787"
     inkscape:window-width="1313"
     showgrid="false"
     inkscape:current-layer="layer1"
     inkscape:document-units="mm"
     inkscape:cy="203.27967"
     inkscape:cx="175.08924"
     inkscape:zoom="1.4"
     inkscape:pageshadow="2"
     inkscape:pageopacity="0.0"
     borderopacity="1.0"
     bordercolor="#666666"
     pagecolor="#ffffff"
     id="base" />
  <metadata
     id="metadata2412">
    <rdf:RDF>
      <cc:Work
         rdf:about="">
        <dc:format>image/svg+xml</dc:format>
        <dc:type
           rdf:resource="http://purl.org/dc/dcmitype/StillImage" />
        <dc:title />
      </cc:Work>
    </rdf:RDF>
  </metadata>
  <g
     transform="translate(-41.06604,-97.269848)"
     id="layer1"
     inkscape:groupmode="layer"
     inkscape:label="Layer 1">
    <rect
       ry="2.9399648"
       y="105.64041"
       x="49.760483"
       height="66.962418"
       width="101.9729"
       id="rect2971"
       style="opacity:1;fill:url(#linearGradient3013);fill-opacity:1;stroke:none;stroke-width:0.25576186;stroke-opacity:1" />
    <rect
       style="opacity:1;fill:none;fill-opacity:1;stroke:#000000;stroke-width:0.27154592;stroke-opacity:1"
       id="rect2975"
       width="107.17539"
       height="71.818413"
       x="47.140003"
       y="103.34381"
       ry="3.1531658" />
    <g
       style="font-style:normal;font-weight:normal;font-size:10.5833px;line-height:1.25;font-family:sans-serif;letter-spacing:0px;word-spacing:0px;fill:#ffffff;fill-opacity:1;stroke:none;stroke-width:0.264583"
       id="text2979"
       aria-label="WE'RE">
      <path
         id="path42"
         style="font-style:normal;font-variant:normal;font-weight:bold;font-stretch:normal;font-size:12.7px;font-family:'Arial Narrow';-inkscape-font-specification:'Arial Narrow Bold';fill:#ffffff;fill-opacity:1;stroke-width:0.264583"
         d="m 116.73125,124.3063 -1.77973,-9.09092 h 1.54409 l 1.11621,6.24458 1.36426,-6.24458 h 1.79213 l 1.30845,6.35 1.14722,-6.35 h 1.51308 l -1.81074,9.09092 h -1.5999 l -1.48828,-6.79649 -1.47588,6.79649 z" />
      <path
         id="path44"
         style="font-style:normal;font-variant:normal;font-weight:bold;font-stretch:normal;font-size:12.7px;font-family:'Arial Narrow';-inkscape-font-specification:'Arial Narrow Bold';fill:#ffffff;fill-opacity:1;stroke-width:0.264583"
         d="m 125.50591,124.3063 v -9.09092 h 5.53144 v 1.53789 h -4.03076 v 2.01538 h 3.74551 v 1.53169 h -3.74551 v 2.47427 h 4.16719 v 1.53169 z" />
      <path
         id="path46"
         style="font-style:normal;font-variant:normal;font-weight:bold;font-stretch:normal;font-size:12.7px;font-family:'Arial Narrow';-inkscape-font-specification:'Arial Narrow Bold';fill:#ffffff;fill-opacity:1;stroke-width:0.264583"
         d="m 132.42021,118.44619 -0.26665,-1.69292 v -1.53789 h 1.5565 v 1.53789 l -0.23565,1.69292 z" />
      <path
         id="path48"
         style="font-style:normal;font-variant:normal;font-weight:bold;font-stretch:normal;font-size:12.7px;font-family:'Arial Narrow';-inkscape-font-specification:'Arial Narrow Bold';fill:#ffffff;fill-opacity:1;stroke-width:0.264583"
         d="m 134.93169,124.3063 v -9.09092 h 3.1688 q 1.21543,0 1.73633,0.24805 0.52089,0.24184 0.85576,0.84956 0.33486,0.60151 0.33486,1.44487 0,1.0666 -0.5147,1.71772 -0.50849,0.65113 -1.45107,0.81856 0.48369,0.34726 0.79995,0.76274 0.31626,0.40928 0.86196,1.47588 l 0.90537,1.77354 h -1.79213 l -1.09141,-1.97818 q -0.58911,-1.0728 -0.79995,-1.33945 -0.21084,-0.27285 -0.44649,-0.37207 -0.23564,-0.10542 -0.75654,-0.10542 h -0.31006 v 3.79512 z m 1.50068,-5.24619 h 1.11621 q 1.0232,0 1.30225,-0.0868 0.27905,-0.093 0.45269,-0.36587 0.17363,-0.27285 0.17363,-0.72554 0,-0.43408 -0.17363,-0.69453 -0.17364,-0.26665 -0.47129,-0.36587 -0.21084,-0.0682 -1.22163,-0.0682 h -1.17823 z" />
      <path
         id="path50"
         style="font-style:normal;font-variant:normal;font-weight:bold;font-stretch:normal;font-size:12.7px;font-family:'Arial Narrow';-inkscape-font-specification:'Arial Narrow Bold';fill:#ffffff;fill-opacity:1;stroke-width:0.264583"
         d="m 142.44751,124.3063 v -9.09092 h 5.53145 v 1.53789 h -4.03077 v 2.01538 h 3.74551 v 1.53169 h -3.74551 v 2.47427 h 4.16719 v 1.53169 z" />
    </g>
    <g
       style="font-style:normal;font-weight:normal;font-size:10.5833px;line-height:1.25;font-family:sans-serif;letter-spacing:0px;word-spacing:0px;fill:#ffffff;fill-opacity:1;stroke:none;stroke-width:0.264583"
       id="text2983"
       aria-label="OPEN">
      <path
         id="path53"
         style="font-style:normal;font-variant:normal;font-weight:bold;font-stretch:normal;font-size:42.3333px;font-family:'Arial Narrow';-inkscape-font-specification:'Arial Narrow Bold';letter-spacing:-2.16694px;word-spacing:0px;fill:#ffffff;fill-opacity:1;stroke-width:0.264583"
         d="m 55.839054,150.30673 q 0,-5.41568 1.591633,-8.90901 1.612304,-3.51399 4.196123,-5.22965 2.58382,-1.71565 6.263179,-1.71565 5.333004,0 8.681634,4.0721 3.369301,4.0721 3.369301,11.59618 0,7.60676 -3.555336,11.88557 -3.121254,3.78271 -8.474928,3.78271 -5.395016,0 -8.51627,-3.74137 -3.555336,-4.27881 -3.555336,-11.74088 z m 5.16764,-0.2067 q 0,5.22965 1.984373,7.85481 1.984374,2.60449 4.919593,2.60449 2.955889,0 4.898922,-2.58382 1.943032,-2.60449 1.943032,-7.97884 0,-5.27099 -1.901691,-7.7928 -1.881021,-2.5218 -4.940263,-2.5218 -3.059243,0 -4.981605,2.54248 -1.922361,2.54247 -1.922361,7.87548 z" />
      <path
         id="path55"
         style="font-style:normal;font-variant:normal;font-weight:bold;font-stretch:normal;font-size:42.3333px;font-family:'Arial Narrow';-inkscape-font-specification:'Arial Narrow Bold';letter-spacing:-2.16694px;word-spacing:0px;fill:#ffffff;fill-opacity:1;stroke-width:0.264583"
         d="m 81.701389,165.27222 v -30.30304 h 8.061517 q 4.506182,0 5.891109,0.43408 2.21175,0.7028 3.638018,2.99723 1.446937,2.29443 1.446937,5.91178 0,3.28662 -1.240231,5.51904 -1.240234,2.21175 -3.100584,3.12125 -1.86035,0.88884 -6.407873,0.88884 h -3.286618 v 11.43082 z m 5.002275,-25.17674 v 8.59895 h 2.769854 q 2.790526,0 3.782712,-0.39274 1.012858,-0.39274 1.653645,-1.4056 0.640787,-1.03353 0.640787,-2.52181 0,-1.50895 -0.661458,-2.54248 -0.661458,-1.03352 -1.632974,-1.38492 -0.971516,-0.3514 -4.113441,-0.3514 z" />
      <path
         id="path57"
         style="font-style:normal;font-variant:normal;font-weight:bold;font-stretch:normal;font-size:42.3333px;font-family:'Arial Narrow';-inkscape-font-specification:'Arial Narrow Bold';letter-spacing:-2.16694px;word-spacing:0px;fill:#ffffff;fill-opacity:1;stroke-width:0.264583"
         d="m 102.70614,165.27222 v -30.30304 h 18.43814 v 5.1263 h -13.43586 v 6.71793 h 12.48502 v 5.10563 h -12.48502 v 8.24755 h 13.89061 v 5.10563 z" />
      <path
         id="path59"
         style="font-style:normal;font-variant:normal;font-weight:bold;font-stretch:normal;font-size:42.3333px;font-family:'Arial Narrow';-inkscape-font-specification:'Arial Narrow Bold';letter-spacing:-2.16694px;word-spacing:0px;fill:#ffffff;fill-opacity:1;stroke-width:0.264583"
         d="m 123.73157,165.27222 v -30.30304 h 4.87825 l 10.16992,20.23648 v -20.23648 h 4.67154 v 30.30304 h -5.04361 l -10.00455,-19.76106 v 19.76106 z" />
    </g>
    <g
       style="font-style:normal;font-weight:normal;font-size:10.5833px;line-height:1.25;font-family:sans-serif;letter-spacing:0px;word-spacing:0px;fill:#ffffff;fill-opacity:1;stroke:none;stroke-width:0.264583"
       id="text2987"
       transform="rotate(-7.2707559)"
       aria-label="Come in">
      <path
         id="path31"
         style="font-style:normal;font-variant:normal;font-weight:normal;font-stretch:normal;font-size:21.1667px;font-family:SignPainter;-inkscape-font-specification:SignPainter;fill:#ffffff;fill-opacity:1;stroke-width:0.264583"
         d="m 47.226534,128.52249 c -1.227668,2.3495 -2.730504,3.70417 -3.894673,3.70417 -0.762001,0 -1.566335,-0.80433 -1.566335,-2.62467 0,-1.27 0.402167,-3.00567 1.333502,-4.50851 1.756836,-2.83633 4.762507,-4.67784 5.270508,-4.1275 0.254,0.27516 0,0.9525 -0.296334,1.69333 -0.127,0.3175 -0.275167,0.65617 -0.359834,0.97367 -0.08467,0.27517 -0.127,0.52917 -0.127,0.78317 0,0.61383 0.296334,1.0795 0.719668,1.35467 0.423334,0.254 0.719668,0.0423 0.825501,-0.3175 0.148167,-0.46567 0.444501,-1.18534 0.804335,-1.90501 0.211667,-0.42333 0.296334,-0.84666 0.296334,-1.22766 0,-0.82551 -0.550335,-1.65101 -1.270002,-2.28601 -0.359834,-0.29633 -0.846668,-0.4445 -1.375836,-0.4445 -0.529167,0 -1.121835,0.14817 -1.672169,0.35984 -2.391837,1.0795 -6.180677,4.91067 -6.09601,9.18634 0.04233,1.73567 0.910168,3.06917 1.905003,3.59834 0.529168,0.29634 1.164169,0.4445 1.86267,0.4445 0.910168,0 1.862669,-0.254 2.730504,-0.86783 0.762001,-0.5715 1.905003,-1.79917 1.905003,-3.02684 0,-0.21167 -0.04233,-0.46567 -0.148167,-0.6985 -0.211667,-0.48684 -0.698501,-0.35983 -0.846668,-0.0635 z" />
      <path
         id="path33"
         style="font-style:normal;font-variant:normal;font-weight:normal;font-stretch:normal;font-size:21.1667px;font-family:SignPainter;-inkscape-font-specification:SignPainter;fill:#ffffff;fill-opacity:1;stroke-width:0.264583"
         d="m 54.442064,127.67582 c -0.232834,-0.27517 -0.338668,-0.8255 -0.338668,-1.2065 0,-0.33867 0.190501,-0.508 0.317501,-0.508 0.148167,0 0.3175,0.127 0.3175,0.4445 0,0.27517 -0.08467,0.78317 -0.296333,1.27 z m 14.245189,2.01084 c -0.762001,1.43933 -1.86267,2.794 -2.624671,2.794 -0.338667,0 -0.550334,-0.3175 -0.550334,-0.80433 0,-0.33867 0.105833,-0.74084 0.296334,-1.12184 0.296334,-0.635 0.571501,-1.10067 0.867834,-1.524 0.402168,-0.67733 0.825502,-1.35467 1.016002,-1.79917 0.169334,-0.381 0.232834,-0.78317 0.232834,-1.12183 0,-0.67734 -0.317501,-1.27001 -0.931335,-1.29117 -0.613834,-0.0212 -1.79917,0.71966 -2.709338,1.50283 0,-0.86783 -0.423334,-1.651 -1.121835,-1.651 -0.698501,0 -1.799169,0.762 -2.751671,1.69334 0.04233,-0.23284 0.0635,-0.40217 0.0635,-0.59267 0,-0.3175 -0.105833,-0.65617 -0.275167,-0.9525 -0.232834,-0.35984 -0.592668,-0.33867 -0.825501,0 -0.973668,1.50283 -2.137837,2.9845 -3.259672,3.15383 0,-1.31233 -0.317501,-1.73566 -1.037168,-2.54 -0.465668,-0.61383 -0.825502,-0.762 -1.587503,-0.762 -1.354669,0 -2.667004,1.3335 -3.471339,2.75167 -0.571501,0.97367 -0.910168,2.032 -0.910168,2.98451 0,0.65616 0.1905,1.29116 0.571501,1.82033 0.592668,0.80434 1.375836,1.05834 2.05317,1.05834 2.11667,0 3.683006,-2.43417 4.212173,-4.52968 0.444501,0.0212 0.867835,-0.0847 1.248836,-0.23283 -0.508001,0.97367 -0.910168,1.88384 -1.079502,2.413 -0.127,0.42334 -0.1905,0.78317 -0.1905,1.12184 0,0.48683 0.169333,0.86783 0.486834,1.12183 0.359834,0.27517 0.592667,0.21167 0.740834,-0.10583 0.825502,-1.9685 1.820336,-3.87351 2.963338,-5.12234 1.270002,-1.397 2.11667,-1.94734 2.264837,-1.88384 0.127,0.0635 -0.381,0.80434 -0.973668,1.73567 -0.571501,0.91017 -1.270002,2.032 -1.566336,2.81517 -0.254,0.635 -0.359834,1.2065 -0.359834,1.56634 0,0.55033 0.190501,0.91017 0.423334,1.143 0.296334,0.29633 0.698501,0.16933 0.846668,-0.16933 0.889002,-1.86267 1.905003,-3.93701 3.534839,-5.54568 1.206502,-1.22767 1.778003,-1.524 1.883837,-1.50283 0.0635,0.0212 -0.592668,0.99483 -0.804335,1.31233 -0.529168,0.8255 -1.164169,1.86267 -1.524002,2.667 -0.232834,0.48684 -0.317501,0.95251 -0.317501,1.35467 0,1.12184 0.783168,1.90501 2.201337,1.92617 1.270002,0.0212 2.984505,-1.0795 3.577172,-2.26483 0.275167,-0.52917 0.254001,-1.24884 0.127,-1.41817 -0.211667,-0.3175 -0.508,-0.42334 -0.740834,0 z m -17.907029,1.5875 c 0,-0.80433 0.296334,-1.94734 0.867835,-2.921 0.381001,-0.65617 0.762001,-1.16417 1.227669,-1.62984 0.169333,0.635 0.677334,1.22767 1.270002,1.5875 -0.148167,0.55034 -0.381001,1.12184 -0.698501,1.69334 -0.783168,1.41817 -1.714503,2.20133 -2.222504,2.20133 -0.296334,0 -0.444501,-0.3175 -0.444501,-0.93133 z" />
      <path
         id="path35"
         style="font-style:normal;font-variant:normal;font-weight:normal;font-stretch:normal;font-size:21.1667px;font-family:SignPainter;-inkscape-font-specification:SignPainter;fill:#ffffff;fill-opacity:1;stroke-width:0.264583"
         d="m 73.932957,125.77082 c 0.232834,0.1905 -0.211667,1.18533 -0.825501,2.01083 -0.423334,0.57151 -1.100668,1.20651 -1.608669,1.20651 -0.148167,0 -0.296334,-0.0423 -0.465668,-0.14817 1.016002,-2.032 2.582338,-3.32317 2.899838,-3.06917 z m 1.587503,0.84667 c 0,-0.27517 -0.08467,-0.59267 -0.211667,-0.78317 -0.296334,-0.42334 -0.719668,-0.762 -1.312336,-1.10067 -0.211667,-0.127 -0.4445,-0.16933 -0.740834,-0.16933 -1.227669,0 -2.942171,1.12183 -4.04284,3.3655 -0.444501,0.84667 -0.656168,1.67217 -0.656168,2.43417 0,1.69334 1.079502,2.98451 3.048005,2.96334 1.651003,-0.0212 3.344339,-1.016 4.23334,-2.30717 0.381001,-0.5715 0.359834,-1.18534 0.296334,-1.37584 -0.169333,-0.42333 -0.444501,-0.381 -0.677334,-0.0423 -0.867835,1.31234 -2.286004,2.87867 -3.894673,2.87867 -0.635001,0 -1.016002,-0.65617 -1.016002,-1.5875 0,-0.381 0.0635,-0.8255 0.190501,-1.24884 0.486834,0.3175 0.994834,0.46567 1.502835,0.46567 1.86267,0 3.280839,-2.2225 3.280839,-3.4925 z" />
      <path
         id="path37"
         style="font-style:normal;font-variant:normal;font-weight:normal;font-stretch:normal;font-size:21.1667px;font-family:SignPainter;-inkscape-font-specification:SignPainter;fill:#ffffff;fill-opacity:1;stroke-width:0.264583"
         d="m 83.352469,123.65415 c 0,0.65617 0.571501,1.29117 1.248836,1.29117 0.529167,0 0.846668,-0.48684 0.846668,-1.05834 0,-0.61383 -0.571501,-1.37583 -1.164169,-1.37583 -0.486834,0 -0.931335,0.55033 -0.931335,1.143 z m 1.566336,7.42951 c 0.275167,-0.55033 0.296334,-1.0795 0.105834,-1.43934 -0.190501,-0.381 -0.465668,-0.42333 -0.635001,-0.0423 -0.656168,1.43934 -1.756837,2.85751 -2.603505,2.85751 -0.232833,0 -0.3175,-0.19051 -0.3175,-0.52917 0,-0.33867 0.105833,-0.78317 0.296334,-1.27 0.359834,-0.84667 1.333502,-2.43417 1.735669,-3.34434 0.550334,-1.05834 0.381001,-1.96851 -0.02117,-2.39184 -0.275167,-0.3175 -0.529167,-0.27517 -0.846668,0.14817 -0.783167,1.10067 -2.137836,3.556 -2.667004,5.03767 -0.169333,0.55034 -0.254,0.99484 -0.254,1.397 0,1.05834 0.571501,1.79917 1.862669,1.79917 1.248836,0 2.709338,-0.889 3.344339,-2.2225 z" />
      <path
         id="path39"
         style="font-style:normal;font-variant:normal;font-weight:normal;font-stretch:normal;font-size:21.1667px;font-family:SignPainter;-inkscape-font-specification:SignPainter;fill:#ffffff;fill-opacity:1;stroke-width:0.264583"
         d="m 87.843447,124.75482 c -0.211667,-0.381 -0.529167,-0.40217 -0.804334,0 -1.312336,1.9685 -2.942172,4.93184 -3.344339,6.11717 -0.127,0.42334 -0.1905,0.78317 -0.1905,1.10067 0,0.508 0.169333,0.86784 0.465667,1.16417 0.338667,0.33867 0.613834,0.21167 0.762001,-0.127 0.867835,-1.905 1.820337,-3.97934 2.984505,-5.20701 1.164169,-1.31233 2.201337,-1.905 2.391837,-1.905 0.148167,0 -0.1905,0.55033 -0.635001,1.24883 -0.825501,1.31234 -1.799169,3.25968 -1.799169,4.40268 0,1.10067 0.613834,1.82033 2.032003,1.82033 1.270002,0 2.815171,-1.12183 3.407839,-2.286 0.296334,-0.5715 0.275167,-1.22767 0.105833,-1.48167 -0.1905,-0.29633 -0.486834,-0.3175 -0.698501,0.0847 -0.762001,1.41817 -1.86267,2.794 -2.582337,2.794 -0.275167,0 -0.423334,-0.27517 -0.423334,-0.71967 0,-0.78316 0.719667,-2.18017 1.397002,-3.25967 0.677334,-1.18533 1.058335,-1.86267 1.058335,-2.32833 0,-0.80434 -0.571501,-1.54517 -1.185335,-1.54517 -0.762002,0 -1.778003,0.6985 -2.688171,1.54517 0.02117,-0.127 0.02117,-0.27517 0.02117,-0.42334 0,-0.33867 -0.08467,-0.67733 -0.275167,-0.99483 z" />
    </g>
    <path
       sodipodi:nodetypes="cscsc"
       inkscape:connector-curvature="0"
       id="path2991"
       d="m 56.126599,131.29289 c 5.545005,-2.22087 22.397994,-5.905 32.296363,-6.6833 13.948408,-1.09675 23.731468,-1.60029 23.456838,0.242 -0.0185,1.49565 -12.643759,0.77887 -23.65729,1.86929 -5.450729,0.53966 -27.860514,3.92179 -32.095911,4.57201 z"
       style="fill:#ffffff;fill-opacity:1;stroke:none;stroke-width:0.26458332px;stroke-linecap:butt;stroke-linejoin:miter;stroke-opacity:1" />
    <rect
       ry="3.1531658"
       y="103.34381"
       x="47.140003"
       height="71.818413"
       width="107.17539"
       id="rect3001"
       style="opacity:1;fill:none;fill-opacity:1;stroke:#000000;stroke-width:0.27154592;stroke-opacity:1;filter:url(#filter3003)" />
  </g>
</svg>
