<?xml version="1.0" encoding="UTF-8"?>
<svg width="578px" height="95px" viewBox="0 0 578 95" version="1.1" xmlns="http://www.w3.org/2000/svg" xmlns:xlink="http://www.w3.org/1999/xlink">
    <!-- Generator: Sketch 55.2 (78181) - https://sketchapp.com -->
    <title>Group 2</title>
    <desc>Created with Sketch.</desc>
    <g id="Page-1" stroke="none" stroke-width="1" fill="none" fill-rule="evenodd">
        <g id="--copy-6" transform="translate(-1014.000000, -869.000000)">
            <g id="Group-2" transform="translate(1006.915242, 861.788063)">
                <path d="M151.801728,29.7186503 C156.198777,29.7186503 160.080488,30.8165806 163.446979,33.0124741 C166.81347,35.2083675 169.424178,38.2791413 171.279183,42.2248873 C173.134188,46.1706334 174.061677,50.7510613 174.061677,55.9663083 C174.061677,61.1815553 173.134188,65.7276728 171.279183,69.6047972 C169.424178,73.4819216 166.830645,76.4840747 163.498507,78.6113465 C160.166368,80.7386183 156.267481,81.8022383 151.801728,81.8022383 C147.885606,81.8022383 144.467639,80.9444802 141.547724,79.2289385 C138.627809,77.5133967 136.412142,75.0773639 134.900656,71.920767 L134.900656,96.1097852 C134.900656,97.3449752 134.539966,98.3228194 133.818575,99.0433469 C133.097184,99.7638745 132.083817,100.124133 130.778443,100.124133 C129.473069,100.124133 128.442527,99.7467193 127.686784,98.9918809 C126.931041,98.2370426 126.553175,97.2763536 126.553175,96.1097852 L126.553175,34.041794 C126.553175,32.8066039 126.931041,31.8116046 127.686784,31.0567662 C128.442527,30.3019278 129.473069,29.9245143 130.778443,29.9245143 C132.083817,29.9245143 133.097184,30.3019278 133.818575,31.0567662 C134.539966,31.8116046 134.900656,32.8066039 134.900656,34.041794 L134.900656,39.6001215 C136.412142,36.4435247 138.627809,34.0074919 141.547724,32.2919501 C144.467639,30.5764083 147.885606,29.7186503 151.801728,29.7186503 Z M150.152843,74.9057948 C155.030819,74.9057948 158.809476,73.2588994 161.488928,69.9650592 C164.16838,66.671219 165.508085,62.0050153 165.508085,55.9663083 C165.508085,49.9276012 164.16838,45.2099321 161.488928,41.8131594 C158.809476,38.4163867 155.030819,36.7180258 150.152843,36.7180258 C145.274867,36.7180258 141.513385,38.3649212 138.868286,41.6587614 C136.223186,44.9526016 134.900656,49.6531156 134.900656,55.7604443 C134.900656,61.867773 136.223186,66.5854421 138.868286,69.9135932 C141.513385,73.2417442 145.274867,74.9057948 150.152843,74.9057948 Z" id="Combined-Shape" fill="#FFFFFF" fill-rule="nonzero"></path>
                <path d="M213.321936,29.9245143 C216.207499,29.7186493 217.650259,30.8852002 217.650259,33.424202 C217.650259,34.5221488 217.341096,35.3970619 216.722761,36.0489678 C216.104426,36.7008737 215.039532,37.0954424 213.528047,37.2326857 L210.436387,37.5414817 C205.833227,37.9532117 202.415259,39.582952 200.182383,42.4307513 C197.949507,45.2785507 196.833085,48.623807 196.833085,52.4666205 L196.833085,77.4790946 C196.833085,78.851528 196.455219,79.8808377 195.699477,80.5670544 C194.943734,81.2532711 193.947542,81.5963743 192.710872,81.5963743 C191.474202,81.5963743 190.460835,81.2361159 189.670741,80.5155884 C188.880646,79.7950608 188.485604,78.7829064 188.485604,77.4790946 L188.485604,34.041794 C188.485604,32.7379822 188.897822,31.7258278 189.722268,31.0053002 C190.546715,30.2847727 191.542906,29.9245143 192.710872,29.9245143 C193.810135,29.9245143 194.737623,30.2847727 195.493366,31.0053002 C196.249109,31.7258278 196.626975,32.7036719 196.626975,33.938862 L196.626975,39.7030535 C198.069756,36.6837 200.113666,34.3849085 202.758766,32.8066101 C205.403866,31.2283116 208.443967,30.301933 211.879162,30.0274463 L213.321936,29.9245143 Z" id="Path" fill="#FFFFFF" fill-rule="nonzero"></path>
                <path d="M246.501931,81.8022383 C241.830067,81.8022383 237.69072,80.7386183 234.083766,78.6113465 C230.476811,76.4840747 227.694346,73.4647665 225.736285,69.5533312 C223.778224,65.641896 222.799208,61.1129336 222.799208,55.9663083 C222.799208,50.8196829 223.812576,46.2564103 225.83934,42.2763533 C227.866105,38.2962964 230.700098,35.2083675 234.341404,33.0124741 C237.98271,30.8165806 242.173584,29.7186503 246.914153,29.7186503 C249.5249,29.7186503 252.118433,30.0789087 254.694829,30.7994362 C257.271225,31.5199638 259.521244,32.5664286 261.444953,33.938862 C262.681623,34.762322 263.557584,35.5686146 264.072863,36.3577638 C264.588142,37.146913 264.845778,38.0218262 264.845778,38.9825296 C264.845778,39.943233 264.588142,40.7323704 264.072863,41.3499654 C263.557584,41.9675605 262.887731,42.2763533 262.063284,42.2763533 C261.582357,42.2763533 261.067086,42.1391121 260.517455,41.8646254 C259.967824,41.5901387 259.504079,41.3156561 259.126208,41.0411694 C258.748336,40.7666828 258.490701,40.5951311 258.353293,40.5265095 C256.566992,39.3599411 254.866596,38.4335624 253.252055,37.7473457 C251.637513,37.061129 249.662306,36.7180258 247.326374,36.7180258 C242.31099,36.7180258 238.412103,38.4163867 235.629595,41.8131594 C232.847088,45.2099321 231.455855,49.9276012 231.455855,55.9663083 C231.455855,62.0050153 232.847088,66.671219 235.629595,69.9650592 C238.412103,73.2588994 242.31099,74.9057948 247.326374,74.9057948 C249.662306,74.9057948 251.671865,74.5626916 253.35511,73.8764749 C255.038355,73.1902582 256.738751,72.2638795 258.456348,71.0973111 C259.212091,70.6169594 259.933471,70.2052356 260.62051,69.8621272 C261.307549,69.5190188 261.891523,69.3474672 262.37245,69.3474672 C263.128193,69.3474672 263.763695,69.6562601 264.278974,70.2738552 C264.794253,70.8914502 265.051889,71.6805876 265.051889,72.641291 C265.051889,73.5333727 264.811429,74.3396652 264.330501,75.0601928 C263.849574,75.7807203 262.956437,76.5870129 261.651063,77.4790946 C259.727354,78.7829064 257.408633,79.8293711 254.694829,80.6185204 C251.981026,81.4076696 249.250087,81.8022383 246.501931,81.8022383 Z" id="Path" fill="#FFFFFF" fill-rule="nonzero"></path>
                <path d="M317.594223,81.8022383 C314.433844,81.8022383 311.428094,81.4248247 308.576882,80.6699864 C305.725671,79.915148 303.200841,78.851528 301.002316,77.4790946 C299.765646,76.6556346 298.889685,75.8836523 298.374406,75.1631248 C297.859127,74.4425972 297.601491,73.5676841 297.601491,72.538359 C297.601491,71.6462773 297.859127,70.9086054 298.374406,70.3253212 C298.889685,69.742037 299.559538,69.4503992 300.383984,69.4503992 C301.208431,69.4503992 302.410731,69.965054 303.990921,70.9943791 C306.052037,72.2295692 308.095947,73.2074133 310.122712,73.9279409 C312.149477,74.6484684 314.674307,75.0087268 317.697278,75.0087268 C321.407288,75.0087268 324.292808,74.3568307 326.353925,73.0530189 C328.415041,71.7492072 329.445584,69.8621395 329.445584,67.3917594 C329.445584,65.8820826 329.067718,64.6640662 328.311976,63.7376737 C327.556233,62.8112811 326.250879,61.9878334 324.395874,61.2673059 C322.540869,60.5467783 319.827106,59.8091064 316.254503,59.054268 C310.208561,57.7504563 305.880281,56.0006299 303.269533,53.8047364 C300.658786,51.608843 299.353431,48.6238451 299.353431,44.8496531 C299.353431,41.8989213 300.177866,39.2913369 301.826759,37.0268217 C303.475652,34.7623066 305.760022,32.9781699 308.679938,31.6743582 C311.599853,30.3705464 314.914766,29.7186503 318.624776,29.7186503 C321.304227,29.7186503 323.89776,30.0789087 326.405452,30.7994362 C328.913144,31.5199638 331.128811,32.5321182 333.05252,33.83593 C335.388452,35.4828501 336.556401,37.1983661 336.556401,38.9825296 C336.556401,39.8746113 336.28159,40.6294384 335.731958,41.2470334 C335.182327,41.8646285 334.52965,42.1734213 333.773907,42.1734213 C332.949461,42.1734213 331.712809,41.5901459 330.063916,40.4235775 C328.140207,39.1883874 326.319581,38.2276984 324.601984,37.5414817 C322.884387,36.855265 320.754598,36.5121618 318.212554,36.5121618 C314.983472,36.5121618 312.389939,37.2326785 310.431878,38.6737336 C308.473817,40.1147887 307.494801,42.0361667 307.494801,44.4379252 C307.494801,45.9476019 307.855491,47.1656183 308.576882,48.0920109 C309.298273,49.0184034 310.500573,49.8418511 312.183818,50.5623787 C313.867064,51.2829062 316.288839,51.9862678 319.449218,52.6724845 C324.121083,53.7018096 327.745158,54.8340502 330.321554,56.0692403 C332.89795,57.3044303 334.735752,58.8140845 335.835014,60.5982479 C336.934276,62.3824114 337.483899,64.6468925 337.483899,67.3917594 C337.483899,71.7149247 335.663273,75.1974222 332.021967,77.8393566 C328.380661,80.4812909 323.571461,81.8022383 317.594223,81.8022383 Z" id="Path" fill="#FFFFFF" fill-rule="nonzero"></path>
                <path d="M371.644828,29.7186503 C384.21764,29.7186503 390.503951,36.3062319 390.503951,49.4815928 L390.503951,77.4790946 C390.503951,78.7142847 390.143261,79.709284 389.421871,80.4641224 C388.70048,81.2189608 387.721464,81.5963743 386.484794,81.5963743 C385.248124,81.5963743 384.251933,81.2189608 383.49619,80.4641224 C382.740447,79.709284 382.362581,78.7142847 382.362581,77.4790946 L382.362581,72.538359 C381.057207,75.4890908 379.064825,77.7707272 376.385373,79.3833365 C373.705921,80.9959457 370.614293,81.8022383 367.110394,81.8022383 C363.881312,81.8022383 360.909913,81.1503422 358.196109,79.8465304 C355.482306,78.5427187 353.335341,76.7242717 351.755152,74.3911348 C350.174963,72.057998 349.38488,69.484724 349.38488,66.6712354 C349.38488,62.8970435 350.34672,59.9635111 352.270429,57.8705501 C354.194137,55.7775892 357.354469,54.267935 361.751518,53.3415425 C366.148567,52.4151499 372.263121,51.9519606 380.095364,51.9519606 L382.362581,51.9519606 L382.362581,48.5552049 C382.362581,44.4379046 381.520971,41.4185963 379.837726,39.4971896 C378.154481,37.5757828 375.423542,36.6150938 371.644828,36.6150938 C366.972964,36.6150938 362.232467,37.8845757 357.423194,40.4235775 C355.568189,41.5901459 354.262835,42.1734213 353.507092,42.1734213 C352.682646,42.1734213 351.995617,41.8646285 351.445986,41.2470334 C350.896355,40.6294384 350.621543,39.840301 350.621543,38.8795976 C350.621543,37.9188942 350.913531,37.0782913 351.497514,36.3577638 C352.081497,35.6372363 353.026161,34.8995644 354.331535,34.144726 C356.736171,32.7722925 359.46711,31.6915174 362.524433,30.9023682 C365.581756,30.113219 368.621857,29.7186503 371.644828,29.7186503 Z M368.244003,75.2145908 C372.366236,75.2145908 375.749852,73.8250228 378.394952,71.0458451 C381.040051,68.2666674 382.362581,64.6812389 382.362581,60.2894519 L382.362581,57.3044242 L380.507586,57.3044242 C374.461643,57.3044242 369.858552,57.5617516 366.698173,58.0764141 C363.537794,58.5910766 361.287776,59.4488347 359.94805,60.6497139 C358.608324,61.8505932 357.938471,63.6175747 357.938471,65.9507115 C357.938471,68.6269567 358.917487,70.8399724 360.875548,72.589825 C362.833608,74.3396776 365.289736,75.2145908 368.244003,75.2145908 Z" id="Combined-Shape" fill="#FFFFFF" fill-rule="nonzero"></path>
                <path d="M409.981406,81.5963743 C408.744737,81.5963743 407.731369,81.2361159 406.941275,80.5155884 C406.15118,79.7950608 405.756138,78.7829064 405.756138,77.4790946 L405.756138,12.1172797 C405.756138,10.8134679 406.15118,9.80131346 406.941275,9.08078592 C407.731369,8.36025837 408.744737,8 409.981406,8 C411.149373,8 412.128388,8.36025837 412.918483,9.08078592 C413.708578,9.80131346 414.103619,10.8134679 414.103619,12.1172797 L414.103619,77.4790946 C414.103619,78.7829064 413.708578,79.7950608 412.918483,80.5155884 C412.128388,81.2361159 411.149373,81.5963743 409.981406,81.5963743 Z" id="Path" fill="#FFFFFF" fill-rule="nonzero"></path>
                <path d="M454.806653,75.0087268 C457.211289,75.2145918 458.413589,76.3125221 458.413589,78.3025505 C458.413589,79.469119 457.984196,80.3440321 457.125398,80.9273163 C456.266599,81.5106005 454.97842,81.7336176 453.260823,81.5963743 L450.47833,81.3905103 C444.982018,80.9787803 440.92855,79.3318849 438.317802,76.4497747 C435.707054,73.5676645 434.4017,69.2102537 434.4017,63.3774117 L434.4017,37.5414817 L427.496994,37.5414817 C426.329028,37.5414817 425.418715,37.249844 424.766028,36.6665598 C424.113341,36.0832756 423.787002,35.3112933 423.787002,34.35059 C423.787002,33.3212649 424.113341,32.4978172 424.766028,31.8802221 C425.418715,31.2626271 426.329028,30.9538342 427.496994,30.9538342 L434.4017,30.9538342 L434.4017,19.3225191 C434.4017,18.0187074 434.779566,17.0065529 435.535308,16.2860254 C436.291051,15.5654978 437.321594,15.2052394 438.626968,15.2052394 C439.863638,15.2052394 440.859829,15.5654978 441.615572,16.2860254 C442.371315,17.0065529 442.749181,18.0187074 442.749181,19.3225191 L442.749181,30.9538342 L454.188321,30.9538342 C455.287583,30.9538342 456.163545,31.2626271 456.816232,31.8802221 C457.468919,32.4978172 457.795257,33.3212649 457.795257,34.35059 C457.795257,35.3112933 457.468919,36.0832756 456.816232,36.6665598 C456.163545,37.249844 455.287583,37.5414817 454.188321,37.5414817 L442.749181,37.5414817 L442.749181,63.7891397 C442.749181,67.5633316 443.522088,70.2910021 445.067925,71.972233 C446.613763,73.653464 448.932484,74.5969978 452.024159,74.8028628 L454.806653,75.0087268 Z" id="Path" fill="#FFFFFF" fill-rule="nonzero"></path>
                <path d="M472.837517,81.5963743 C471.600847,81.5963743 470.587479,81.2361159 469.797385,80.5155884 C469.00729,79.7950608 468.612249,78.7829064 468.612249,77.4790946 L468.612249,34.041794 C468.612249,32.7379822 469.00729,31.7258278 469.797385,31.0053002 C470.587479,30.2847727 471.600847,29.9245143 472.837517,29.9245143 C474.074187,29.9245143 475.070378,30.2847727 475.826121,31.0053002 C476.581864,31.7258278 476.959729,32.7379822 476.959729,34.041794 L476.959729,77.4790946 C476.959729,78.851528 476.581864,79.8808377 475.826121,80.5670544 C475.070378,81.2532711 474.074187,81.5963743 472.837517,81.5963743 Z" id="Path" fill="#FFFFFF" fill-rule="nonzero"></path>
                <path d="M472.837517,19.1166551 C471.188623,19.1166551 469.848918,18.6363106 468.818359,17.6756072 C467.787801,16.7149039 467.272529,15.445422 467.272529,13.8671235 C467.272529,12.3574468 467.787801,11.1222752 468.818359,10.1615718 C469.848918,9.20086844 471.188623,8.72052394 472.837517,8.72052394 C474.48641,8.72052394 475.826116,9.20086844 476.856674,10.1615718 C477.887232,11.1222752 478.402504,12.3574468 478.402504,13.8671235 C478.402504,15.445422 477.887232,16.7149039 476.856674,17.6756072 C475.826116,18.6363106 474.48641,19.1166551 472.837517,19.1166551 Z" id="Path" fill="#FFFFFF" fill-rule="nonzero"></path>
                <path d="M496.74635,81.5963743 C495.50968,81.5963743 494.496313,81.2361159 493.706218,80.5155884 C492.916124,79.7950608 492.521082,78.7829064 492.521082,77.4790946 L492.521082,12.1172797 C492.521082,10.8134679 492.916124,9.80131346 493.706218,9.08078592 C494.496313,8.36025837 495.50968,8 496.74635,8 C497.914316,8 498.893332,8.36025837 499.683427,9.08078592 C500.473522,9.80131346 500.868563,10.8134679 500.868563,12.1172797 L500.868563,77.4790946 C500.868563,78.7829064 500.473522,79.7950608 499.683427,80.5155884 C498.893332,81.2361159 497.914316,81.5963743 496.74635,81.5963743 Z" id="Path" fill="#FFFFFF" fill-rule="nonzero"></path>
                <path d="M520.655184,81.5963743 C519.418514,81.5963743 518.405147,81.2361159 517.615052,80.5155884 C516.824957,79.7950608 516.429916,78.7829064 516.429916,77.4790946 L516.429916,12.1172797 C516.429916,10.8134679 516.824957,9.80131346 517.615052,9.08078592 C518.405147,8.36025837 519.418514,8 520.655184,8 C521.82315,8 522.802166,8.36025837 523.592261,9.08078592 C524.382355,9.80131346 524.777397,10.8134679 524.777397,12.1172797 L524.777397,77.4790946 C524.777397,78.7829064 524.382355,79.7950608 523.592261,80.5155884 C522.802166,81.2361159 521.82315,81.5963743 520.655184,81.5963743 Z" id="Path" fill="#FFFFFF" fill-rule="nonzero"></path>
                <path d="M561.155924,81.8022383 C556.415356,81.8022383 552.241657,80.7386183 548.634703,78.6113465 C545.027749,76.4840747 542.245283,73.4476113 540.287222,69.5018652 C538.329161,65.5561191 537.350146,60.9756913 537.350146,55.7604443 C537.350146,50.5451973 538.329161,45.9647694 540.287222,42.0190234 C542.245283,38.0732773 545.027749,35.0368139 548.634703,32.9095421 C552.241657,30.7822703 556.415356,29.7186503 561.155924,29.7186503 C565.896492,29.7186503 570.087367,30.7822703 573.728673,32.9095421 C577.369979,35.0368139 580.16962,38.0732773 582.127681,42.0190234 C584.085742,45.9647694 585.064758,50.5451973 585.064758,55.7604443 C585.064758,60.9756913 584.085742,65.5561191 582.127681,69.5018652 C580.16962,73.4476113 577.369979,76.4840747 573.728673,78.6113465 C570.087367,80.7386183 565.896492,81.8022383 561.155924,81.8022383 Z M561.155924,74.9057948 C566.102604,74.9057948 569.898437,73.2760546 572.543537,70.0165252 C575.188636,66.7569958 576.511166,62.0050164 576.511166,55.7604443 C576.511166,49.6531156 575.171461,44.9354464 572.492009,41.6072954 C569.812557,38.2791443 566.0339,36.6150938 561.155924,36.6150938 C556.277948,36.6150938 552.499291,38.2791443 549.819839,41.6072954 C547.140387,44.9354464 545.800682,49.6531156 545.800682,55.7604443 C545.800682,61.9363947 547.123212,66.671219 549.768311,69.9650592 C552.413411,73.2588994 556.209244,74.9057948 561.155924,74.9057948 Z" id="Combined-Shape" fill="#FFFFFF" fill-rule="nonzero"></path>
                <ellipse id="Oval" fill="#FFFFFF" cx="281.83647" cy="55.7558695" rx="8.33480875" ry="3.24990609"></ellipse>
                <path d="M29.1855176,36.7778694 C25.3979456,41.3575668 22.362054,37.8137981 24.8368928,32.4126951 C28.4968188,24.4252507 34.0050378,17.6292424 41.023564,13.2071008 C59.4752948,1.58127447 81.3784609,10.765271 89.9456546,33.7201313 C97.3149485,53.4653496 78.6235393,65.2384819 71.2539801,45.4933624 C65.0823639,28.9578687 49.3038981,22.3421599 36.0117904,30.7167633 C33.4454326,32.3336798 31.1593945,34.3911798 29.1855176,36.7778694 Z" id="Path-Copy-30" fill="#92D300" transform="translate(57.787097, 31.916557) rotate(-345.000000) translate(-57.787097, -31.916557) "></path>
                <path d="M48.8548893,78.0386953 C45.0736157,82.6173321 42.036054,79.0688315 44.5045342,73.6671254 C48.1550567,65.6787893 53.6539894,58.8842504 60.6646293,54.4662608 C79.0956267,42.8513504 100.995586,52.0606715 109.579557,75.0358552 C116.963282,94.7985554 98.2928723,106.560628 90.9088818,86.7980265 C84.7251802,70.2478926 68.9490249,63.6139408 55.6718527,71.9806805 C53.1083785,73.5960787 50.8254838,75.6525584 48.8548893,78.0386953 Z" id="Path-Copy-30" fill="#812990" transform="translate(77.443425, 73.212608) rotate(-225.000000) translate(-77.443425, -73.212608) "></path>
                <path d="M3.24026545,74.4454717 C-0.543238817,79.0300934 -3.57586749,75.4825123 -1.10368579,70.0756011 C2.55231072,62.0795672 8.0546141,55.2762515 15.0656013,50.849356 C33.497512,39.211032 55.3771428,48.4049135 63.9351246,71.3844651 C71.2964946,91.1509225 52.6251629,102.936711 45.2635279,83.1703525 C39.0985479,66.6170723 23.3370362,59.9942429 10.0592064,68.377849 C7.49560528,69.9965037 5.21202247,72.0562158 3.24026545,74.4454717 Z" id="Path-Copy-30" fill="#00BEFF" transform="translate(31.811116, 69.578945) rotate(-105.000000) translate(-31.811116, -69.578945) "></path>
            </g>
        </g>
    </g>
</svg>